<?xml version="1.0" encoding="UTF-8" standalone="no"?>
<!DOCTYPE svg PUBLIC "-//W3C//DTD SVG 1.1//EN" "http://www.w3.org/Graphics/SVG/1.1/DTD/svg11.dtd">
<svg width="100%" height="100%" viewBox="0 0 400 140" version="1.1" xmlns="http://www.w3.org/2000/svg" xmlns:xlink="http://www.w3.org/1999/xlink" xml:space="preserve" xmlns:serif="http://www.serif.com/" style="fill-rule:evenodd;clip-rule:evenodd;stroke-linecap:round;stroke-linejoin:round;stroke-miterlimit:1.5;">
    <g id="matrix_06">
    </g>
    <g id="matrix_05">
    </g>
    <g id="matrix_04">
    </g>
    <g id="matrix_03">
    </g>
    <g id="matrix_02">
    </g>
    <g id="matrix_01">
    </g>
    <g id="tree_10">
        <g id="edges">
        </g>
        <g id="nodes">
            <g id="Node">
            </g>
            <g id="Node1" serif:id="Node">
            </g>
            <g id="Node2" serif:id="Node">
            </g>
            <g id="Node3" serif:id="Node">
            </g>
            <g id="Node4" serif:id="Node">
            </g>
            <g id="Node5" serif:id="Node">
            </g>
            <g id="Node6" serif:id="Node">
            </g>
            <g id="Node7" serif:id="Node">
            </g>
            <g id="Node8" serif:id="Node">
            </g>
            <g id="Node9" serif:id="Node">
            </g>
            <g id="Node10" serif:id="Node">
            </g>
            <g id="Node11" serif:id="Node">
            </g>
            <g id="Node12" serif:id="Node">
            </g>
            <g id="Node13" serif:id="Node">
            </g>
            <g id="Node14" serif:id="Node">
            </g>
            <g id="Node15" serif:id="Node">
            </g>
            <g id="Node16" serif:id="Node">
            </g>
            <g id="Node17" serif:id="Node">
            </g>
            <g id="Node18" serif:id="Node">
            </g>
            <g id="Node19" serif:id="Node">
            </g>
        </g>
    </g>
    <g id="tree_09">
        <g id="edges1" serif:id="edges">
        </g>
        <g id="nodes1" serif:id="nodes">
            <g id="Node20" serif:id="Node">
            </g>
            <g id="Node21" serif:id="Node">
            </g>
            <g id="Node22" serif:id="Node">
            </g>
            <g id="Node23" serif:id="Node">
            </g>
            <g id="Node24" serif:id="Node">
            </g>
        </g>
    </g>
    <g id="tree_08">
        <g id="edges2" serif:id="edges">
        </g>
        <g id="nodes2" serif:id="nodes">
            <g id="GreenNode">
            </g>
            <g id="Node25" serif:id="Node">
            </g>
            <g id="Node26" serif:id="Node">
            </g>
            <g id="Node27" serif:id="Node">
            </g>
            <g id="Node28" serif:id="Node">
            </g>
            <g id="Node29" serif:id="Node">
            </g>
            <g id="Node30" serif:id="Node">
            </g>
            <g id="Node31" serif:id="Node">
            </g>
            <g id="Node32" serif:id="Node">
            </g>
            <g id="Node33" serif:id="Node">
            </g>
            <g id="Node34" serif:id="Node">
            </g>
            <g id="Node35" serif:id="Node">
            </g>
            <g id="Node36" serif:id="Node">
            </g>
            <g id="Node37" serif:id="Node">
            </g>
            <g id="Node38" serif:id="Node">
            </g>
            <g id="Node39" serif:id="Node">
            </g>
            <g id="Node40" serif:id="Node">
            </g>
            <g id="Node41" serif:id="Node">
            </g>
        </g>
    </g>
    <g id="tree_07">
        <g id="edges3" serif:id="edges">
        </g>
        <g id="nodes3" serif:id="nodes">
            <g id="Node42" serif:id="Node">
            </g>
            <g id="Node43" serif:id="Node">
            </g>
            <g id="Node44" serif:id="Node">
            </g>
            <g id="Node45" serif:id="Node">
            </g>
            <g id="Node46" serif:id="Node">
            </g>
            <g id="Node47" serif:id="Node">
            </g>
            <g id="Node48" serif:id="Node">
            </g>
            <g id="Node49" serif:id="Node">
            </g>
            <g id="Node50" serif:id="Node">
            </g>
            <g id="Node51" serif:id="Node">
            </g>
            <g id="Node52" serif:id="Node">
            </g>
            <g id="Node53" serif:id="Node">
            </g>
            <g id="Node54" serif:id="Node">
            </g>
            <g id="Node55" serif:id="Node">
            </g>
            <g id="Node56" serif:id="Node">
            </g>
            <g id="Node57" serif:id="Node">
            </g>
        </g>
    </g>
    <g id="tree_06">
        <g id="edges4" serif:id="edges">
        </g>
        <g id="nodes4" serif:id="nodes">
            <g id="BlueNode">
            </g>
            <g id="BlueNode1" serif:id="BlueNode">
            </g>
            <g id="BlueNode2" serif:id="BlueNode">
            </g>
            <g id="BlueNode3" serif:id="BlueNode">
            </g>
            <g id="BlueNode4" serif:id="BlueNode">
            </g>
            <g id="BlueNode5" serif:id="BlueNode">
            </g>
            <g id="YellowNode">
            </g>
            <g id="Node58" serif:id="Node">
            </g>
            <g id="Node59" serif:id="Node">
            </g>
            <g id="Node60" serif:id="Node">
            </g>
            <g id="Node61" serif:id="Node">
            </g>
            <g id="Node62" serif:id="Node">
            </g>
            <g id="Node63" serif:id="Node">
            </g>
            <g id="Node64" serif:id="Node">
            </g>
            <g id="Node65" serif:id="Node">
            </g>
            <g id="Node66" serif:id="Node">
            </g>
            <g id="Node67" serif:id="Node">
            </g>
            <g id="Node68" serif:id="Node">
            </g>
        </g>
    </g>
    <g id="tree_05">
        <g id="edges5" serif:id="edges">
        </g>
        <g id="nodes5" serif:id="nodes">
            <g id="BlueNode6" serif:id="BlueNode">
            </g>
            <g id="BlueNode7" serif:id="BlueNode">
            </g>
            <g id="BlueNode8" serif:id="BlueNode">
            </g>
            <g id="BlueNode9" serif:id="BlueNode">
            </g>
            <g id="BlueNode10" serif:id="BlueNode">
            </g>
            <g id="BlueNode11" serif:id="BlueNode">
            </g>
            <g id="YellowNode1" serif:id="YellowNode">
            </g>
            <g id="RedNode">
            </g>
            <g id="RedNode1" serif:id="RedNode">
            </g>
            <g id="RedNode2" serif:id="RedNode">
            </g>
            <g id="RedNode3" serif:id="RedNode">
            </g>
            <g id="GreenNode1" serif:id="GreenNode">
            </g>
            <g id="Node69" serif:id="Node">
            </g>
            <g id="Node70" serif:id="Node">
            </g>
            <g id="Node71" serif:id="Node">
            </g>
            <g id="Node72" serif:id="Node">
            </g>
            <g id="Node73" serif:id="Node">
            </g>
            <g id="Node74" serif:id="Node">
            </g>
        </g>
    </g>
    <g id="tree_04">
        <g id="edges6" serif:id="edges">
        </g>
        <g id="nodes6" serif:id="nodes">
            <g id="YellowNode2" serif:id="YellowNode">
            </g>
            <g id="YellowNode3" serif:id="YellowNode">
            </g>
            <g id="RedNode4" serif:id="RedNode">
            </g>
            <g id="GreenNode2" serif:id="GreenNode">
            </g>
            <g id="GreenNode3" serif:id="GreenNode">
            </g>
            <g id="Node75" serif:id="Node">
            </g>
            <g id="Node76" serif:id="Node">
            </g>
            <g id="Node77" serif:id="Node">
            </g>
            <g id="Node78" serif:id="Node">
            </g>
            <g id="Node79" serif:id="Node">
            </g>
            <g id="Node80" serif:id="Node">
            </g>
            <g id="Node81" serif:id="Node">
            </g>
            <g id="Node82" serif:id="Node">
            </g>
            <g id="Node83" serif:id="Node">
            </g>
            <g id="Node84" serif:id="Node">
            </g>
            <g id="Node85" serif:id="Node">
            </g>
            <g id="Node86" serif:id="Node">
            </g>
            <g id="Node87" serif:id="Node">
            </g>
        </g>
    </g>
    <g>
        <g id="edges7" serif:id="edges">
        </g>
        <g id="nodes7" serif:id="nodes">
            <g id="Node88" serif:id="Node">
            </g>
            <g id="Node89" serif:id="Node">
            </g>
            <g id="Node90" serif:id="Node">
            </g>
            <g id="Node91" serif:id="Node">
            </g>
            <g id="Node92" serif:id="Node">
            </g>
            <g id="Node93" serif:id="Node">
            </g>
            <g id="Node94" serif:id="Node">
            </g>
            <g id="Node95" serif:id="Node">
            </g>
            <g id="Node96" serif:id="Node">
            </g>
            <g id="Node97" serif:id="Node">
            </g>
            <g id="Node98" serif:id="Node">
            </g>
            <g id="Node99" serif:id="Node">
            </g>
            <g id="Node100" serif:id="Node">
            </g>
            <g id="Node101" serif:id="Node">
            </g>
            <g id="Node102" serif:id="Node">
            </g>
            <g id="Node103" serif:id="Node">
            </g>
            <g id="Node104" serif:id="Node">
            </g>
        </g>
    </g>
    <g id="tree_02">
        <g id="edges8" serif:id="edges">
        </g>
        <g id="nodes8" serif:id="nodes">
            <g id="Node105" serif:id="Node">
            </g>
            <g id="Node106" serif:id="Node">
            </g>
            <g id="Node107" serif:id="Node">
            </g>
            <g id="Node108" serif:id="Node">
            </g>
            <g id="Node109" serif:id="Node">
            </g>
            <g id="Node110" serif:id="Node">
            </g>
            <g id="Node111" serif:id="Node">
            </g>
            <g id="Node112" serif:id="Node">
            </g>
            <g id="Node113" serif:id="Node">
            </g>
            <g id="Node114" serif:id="Node">
            </g>
            <g id="Node115" serif:id="Node">
            </g>
            <g id="Node116" serif:id="Node">
            </g>
            <g id="Node117" serif:id="Node">
            </g>
            <g id="Node118" serif:id="Node">
            </g>
            <g id="Node119" serif:id="Node">
            </g>
            <g id="Node120" serif:id="Node">
            </g>
            <g id="Node121" serif:id="Node">
            </g>
            <g id="Node122" serif:id="Node">
            </g>
        </g>
    </g>
    <g id="tree_01">
        <g id="edges9" serif:id="edges">
        </g>
        <g id="nodes9" serif:id="nodes">
            <g id="Node123" serif:id="Node">
            </g>
            <g id="Node124" serif:id="Node">
            </g>
            <g id="Node125" serif:id="Node">
            </g>
            <g id="Node126" serif:id="Node">
            </g>
            <g id="Node127" serif:id="Node">
            </g>
            <g id="Node128" serif:id="Node">
            </g>
            <g id="Node129" serif:id="Node">
            </g>
            <g id="Node130" serif:id="Node">
            </g>
            <g id="Node131" serif:id="Node">
            </g>
            <g id="Node132" serif:id="Node">
            </g>
            <g id="Node133" serif:id="Node">
            </g>
            <g id="Node134" serif:id="Node">
            </g>
            <g id="Node135" serif:id="Node">
            </g>
            <g id="Node136" serif:id="Node">
            </g>
            <g id="Node137" serif:id="Node">
            </g>
            <g id="Node138" serif:id="Node">
            </g>
            <g id="Node139" serif:id="Node">
            </g>
            <g id="Node140" serif:id="Node">
            </g>
        </g>
    </g>
    <g id="graph_02">
        <g id="edges10" serif:id="edges">
        </g>
        <g id="nodes10" serif:id="nodes">
            <g id="Node141" serif:id="Node">
            </g>
            <g id="Node142" serif:id="Node">
            </g>
            <g id="Node143" serif:id="Node">
            </g>
            <g id="Node144" serif:id="Node">
            </g>
            <g id="Node145" serif:id="Node">
            </g>
            <g id="Node146" serif:id="Node">
            </g>
        </g>
    </g>
    <g id="graph_01">
        <g id="edges11" serif:id="edges">
            <path d="M223.774,120l-50,-40" style="fill:none;stroke:#000;stroke-width:1.8px;"/>
            <path d="M173.774,80l30,-60" style="fill:none;stroke:#000;stroke-width:1.8px;"/>
            <path d="M203.774,20l-80,40" style="fill:none;stroke:#000;stroke-width:1.8px;"/>
            <path d="M203.774,20l30,40" style="fill:none;stroke:#000;stroke-width:1.8px;"/>
            <path d="M123.774,60l50,20" style="fill:none;stroke:#000;stroke-width:1.8px;"/>
            <path d="M233.774,60l50,40" style="fill:none;stroke:#000;stroke-width:1.8px;"/>
            <path d="M283.774,100l-110,-20" style="fill:none;stroke:#000;stroke-width:1.8px;"/>
        </g>
        <g id="nodes11" serif:id="nodes">
            <g id="Node147" serif:id="Node">
                <circle cx="123.774" cy="60" r="10" style="fill:#ebebeb;"/>
                <path d="M123.774,50c5.519,0 10,4.481 10,10c-0,5.519 -4.481,10 -10,10c-5.519,0 -10,-4.481 -10,-10c-0,-5.519 4.481,-10 10,-10Zm-0,1.8c4.525,-0 8.2,3.674 8.2,8.2c-0,4.526 -3.675,8.2 -8.2,8.2c-4.526,0 -8.2,-3.674 -8.2,-8.2c-0,-4.526 3.674,-8.2 8.2,-8.2Z"/>
                <path d="M128.226,64.718l-3.5,-9.114c-0.112,-0.308 -0.266,-0.378 -0.588,-0.378l-0.742,0c-0.322,0 -0.462,0.07 -0.588,0.392l-3.5,9.1c-0.112,0.308 -0.028,0.462 0.322,0.462l0.644,0c0.588,0 0.756,-0.084 0.868,-0.42l0.658,-1.806l3.864,0l0.644,1.806c0.112,0.336 0.28,0.42 0.868,0.42l0.728,0c0.35,0 0.434,-0.154 0.322,-0.462Zm-4.116,-6.16l1.064,2.954l-2.884,0l1.078,-2.968c0.294,-0.854 0.308,-1.68 0.308,-1.694l0.098,0c0.014,0.014 0.042,0.84 0.336,1.708Z" style="fill-rule:nonzero;"/>
            </g>
            <g id="Node148" serif:id="Node">
                <circle cx="173.774" cy="80" r="10" style="fill:#ebebeb;"/>
                <path d="M173.774,70c5.519,0 10,4.481 10,10c-0,5.519 -4.481,10 -10,10c-5.519,0 -10,-4.481 -10,-10c-0,-5.519 4.481,-10 10,-10Zm-0,1.8c4.525,-0 8.2,3.674 8.2,8.2c-0,4.526 -3.675,8.2 -8.2,8.2c-4.526,0 -8.2,-3.674 -8.2,-8.2c-0,-4.526 3.674,-8.2 8.2,-8.2Z"/>
                <path d="M174.558,75.24l-3.878,0c-0.364,0 -0.49,0.126 -0.49,0.476l-0,8.988c-0,0.35 0.126,0.476 0.49,0.476l3.962,0c1.834,0 3.15,-0.966 3.15,-2.73c-0,-1.26 -0.518,-2.1 -1.428,-2.422l-0,-0.056c0.728,-0.434 1.064,-1.106 1.064,-2.114c-0,-1.68 -1.064,-2.618 -2.87,-2.618Zm1.078,2.87c-0,0.84 -0.462,1.232 -1.288,1.232l-2.394,0l-0,-2.464l2.394,0c0.84,0 1.288,0.406 1.288,1.232Zm0.294,4.144c-0,0.854 -0.462,1.288 -1.33,1.288l-2.646,0l-0,-2.604l2.646,0c0.868,0 1.33,0.462 1.33,1.316Z" style="fill-rule:nonzero;"/>
            </g>
            <g id="Node149" serif:id="Node">
                <circle cx="233.774" cy="60" r="10" style="fill:#ebebeb;"/>
                <path d="M233.774,50c5.519,0 10,4.481 10,10c-0,5.519 -4.481,10 -10,10c-5.519,0 -10,-4.481 -10,-10c-0,-5.519 4.481,-10 10,-10Zm-0,1.8c4.525,-0 8.2,3.674 8.2,8.2c-0,4.526 -3.675,8.2 -8.2,8.2c-4.526,0 -8.2,-3.674 -8.2,-8.2c-0,-4.526 3.674,-8.2 8.2,-8.2Z"/>
                <path d="M233.704,55.24l-3.136,0c-0.364,0 -0.49,0.126 -0.49,0.476l-0,8.988c-0,0.35 0.126,0.476 0.49,0.476l3.136,0c2.604,0 4.06,-1.414 4.06,-3.696l-0,-2.548c-0,-2.282 -1.456,-3.696 -4.06,-3.696Zm2.31,3.682l-0,2.576c-0,1.33 -0.826,2.044 -2.296,2.044l-1.876,0l-0,-6.664l1.876,0c1.47,0 2.296,0.714 2.296,2.044Z" style="fill-rule:nonzero;"/>
            </g>
            <g id="Node150" serif:id="Node">
                <circle cx="203.774" cy="20" r="10" style="fill:#ebebeb;"/>
                <path d="M203.774,10c5.519,0 10,4.481 10,10c-0,5.519 -4.481,10 -10,10c-5.519,0 -10,-4.481 -10,-10c-0,-5.519 4.481,-10 10,-10Zm-0,1.8c4.525,-0 8.2,3.674 8.2,8.2c-0,4.526 -3.675,8.2 -8.2,8.2c-4.526,0 -8.2,-3.674 -8.2,-8.2c-0,-4.526 3.674,-8.2 8.2,-8.2Z"/>
                <path d="M199.98,18.67l-0,3.066c-0,2.254 1.428,3.654 4.004,3.654c2.072,0 3.29,-0.84 3.822,-2.352c0.112,-0.336 0.028,-0.49 -0.308,-0.616l-0.756,-0.266c-0.336,-0.126 -0.476,-0.056 -0.616,0.294c-0.308,0.854 -0.966,1.302 -2.142,1.302c-1.442,0 -2.24,-0.714 -2.24,-2.002l-0,-3.094c-0,-1.288 0.798,-1.988 2.24,-1.988c1.162,0 1.834,0.434 2.142,1.288c0.126,0.35 0.266,0.392 0.602,0.294l0.77,-0.266c0.336,-0.126 0.42,-0.28 0.294,-0.616c-0.532,-1.512 -1.75,-2.338 -3.808,-2.338c-2.576,0 -4.004,1.4 -4.004,3.64Z" style="fill-rule:nonzero;"/>
            </g>
            <g id="Node151" serif:id="Node">
                <circle cx="223.774" cy="120" r="10" style="fill:#ebebeb;"/>
                <path d="M223.774,110c5.519,0 10,4.481 10,10c-0,5.519 -4.481,10 -10,10c-5.519,0 -10,-4.481 -10,-10c-0,-5.519 4.481,-10 10,-10Zm-0,1.8c4.525,-0 8.2,3.674 8.2,8.2c-0,4.526 -3.675,8.2 -8.2,8.2c-4.526,0 -8.2,-3.674 -8.2,-8.2c-0,-4.526 3.674,-8.2 8.2,-8.2Z"/>
                <path d="M226.735,115.24l-5.558,0c-0.364,0 -0.49,0.126 -0.49,0.476l-0,8.988c-0,0.35 0.126,0.476 0.49,0.476l5.712,0c0.364,0 0.476,-0.126 0.476,-0.476l-0,-0.686c-0,-0.35 -0.112,-0.476 -0.476,-0.476l-4.438,0l-0,-2.576l3.626,0c0.35,0 0.476,-0.126 0.476,-0.476l-0,-0.686c-0,-0.35 -0.126,-0.476 -0.476,-0.476l-3.626,0l-0,-2.45l4.284,0c0.364,0 0.49,-0.126 0.49,-0.476l-0,-0.686c-0,-0.35 -0.126,-0.476 -0.49,-0.476Z" style="fill-rule:nonzero;"/>
            </g>
            <g id="Node152" serif:id="Node">
                <circle cx="283.774" cy="100" r="10" style="fill:#ebebeb;"/>
                <path d="M283.774,90c5.519,0 10,4.481 10,10c-0,5.519 -4.481,10 -10,10c-5.519,0 -10,-4.481 -10,-10c-0,-5.519 4.481,-10 10,-10Zm-0,1.8c4.525,-0 8.2,3.674 8.2,8.2c-0,4.526 -3.675,8.2 -8.2,8.2c-4.526,0 -8.2,-3.674 -8.2,-8.2c-0,-4.526 3.674,-8.2 8.2,-8.2Z"/>
                <path d="M286.84,95.24l-5.558,0c-0.364,0 -0.49,0.126 -0.49,0.476l-0,8.988c-0,0.35 0.126,0.476 0.49,0.476l0.798,0c0.35,0 0.476,-0.126 0.476,-0.476l-0,-3.612l3.598,0c0.364,0 0.49,-0.112 0.49,-0.476l-0,-0.686c-0,-0.35 -0.126,-0.476 -0.49,-0.476l-3.598,0l-0,-2.576l4.284,0c0.364,0 0.49,-0.126 0.49,-0.476l-0,-0.686c-0,-0.35 -0.126,-0.476 -0.49,-0.476Z" style="fill-rule:nonzero;"/>
            </g>
        </g>
        <g transform="matrix(1,0,0,1,56.2262,-37.035)">
            <g transform="matrix(11,0,0,11,55.201,154.07)">
                <path d="M0.19,-0.243l0,-0.433c0,-0.025 -0.009,-0.034 -0.034,-0.034l-0.058,0c-0.025,0 -0.034,0.009 -0.034,0.034l0,0.432c0,0.157 0.096,0.259 0.28,0.259c0.184,-0 0.279,-0.102 0.279,-0.259l0,-0.432c0,-0.025 -0.008,-0.034 -0.034,-0.034l-0.057,0c-0.025,0 -0.034,0.009 -0.034,0.034l0,0.433c0,0.089 -0.051,0.141 -0.154,0.141c-0.103,-0 -0.154,-0.052 -0.154,-0.141Z" style="fill-rule:nonzero;"/>
            </g>
            <g transform="matrix(11,0,0,11,62.67,154.07)">
                <path d="M0.095,-0.499c-0.032,0.013 -0.039,0.025 -0.039,0.057l0,0.411c0,0.023 0.008,0.031 0.031,0.031l0.055,-0c0.023,-0 0.03,-0.008 0.03,-0.031l0,-0.373c0,-0.004 0.002,-0.008 0.007,-0.01c0.026,-0.007 0.057,-0.013 0.096,-0.013c0.073,0 0.109,0.032 0.109,0.098l0,0.298c0,0.023 0.007,0.031 0.03,0.031l0.055,-0c0.023,-0 0.031,-0.008 0.031,-0.031l0,-0.301c0,-0.127 -0.066,-0.201 -0.208,-0.201c-0.096,-0 -0.157,0.018 -0.197,0.034Z" style="fill-rule:nonzero;"/>
            </g>
            <g transform="matrix(11,0,0,11,68.753,154.07)">
                <path d="M0.042,-0.324l0,0.137c0,0.128 0.068,0.202 0.217,0.202c0.091,-0 0.147,-0.017 0.187,-0.032c0.032,-0.013 0.04,-0.022 0.04,-0.055l0,-0.637c0,-0.023 -0.008,-0.031 -0.031,-0.031l-0.055,0c-0.023,0 -0.03,0.008 -0.03,0.031l0,0.189c-0.028,-0.005 -0.07,-0.013 -0.119,-0.013c-0.139,0 -0.209,0.074 -0.209,0.209Zm0.328,-0.09l0,0.301c0,0.006 -0.001,0.008 -0.008,0.011c-0.025,0.007 -0.056,0.011 -0.092,0.011c-0.073,0 -0.112,-0.035 -0.112,-0.1l-0,-0.13c-0,-0.071 0.036,-0.106 0.115,-0.106c0.04,0 0.074,0.008 0.097,0.013Z" style="fill-rule:nonzero;"/>
            </g>
            <g transform="matrix(11,0,0,11,74.715,154.07)">
                <path d="M0.119,-0.712l-0.007,0c-0.046,0 -0.061,0.014 -0.061,0.06l0,0.009c0,0.046 0.015,0.061 0.061,0.061l0.007,-0c0.046,-0 0.061,-0.015 0.061,-0.061l0,-0.009c0,-0.046 -0.015,-0.06 -0.061,-0.06Zm0.024,0.194l-0.055,-0c-0.023,-0 -0.03,0.007 -0.03,0.03l0,0.457c0,0.023 0.007,0.031 0.03,0.031l0.055,-0c0.023,-0 0.031,-0.008 0.031,-0.031l0,-0.457c0,-0.023 -0.008,-0.03 -0.031,-0.03Z" style="fill-rule:nonzero;"/>
            </g>
            <g transform="matrix(11,0,0,11,77.256,154.07)">
                <path d="M0.281,-0.533c-0.089,0.002 -0.149,0.016 -0.186,0.03c-0.032,0.013 -0.039,0.025 -0.039,0.057l-0,0.415c-0,0.023 0.008,0.031 0.031,0.031l0.055,-0c0.023,-0 0.03,-0.008 0.03,-0.031l0,-0.372c0,-0.005 0.001,-0.01 0.01,-0.012c0.026,-0.008 0.056,-0.012 0.095,-0.012l0.036,0c0.023,0 0.031,-0.008 0.031,-0.031l-0,-0.044c-0,-0.024 -0.008,-0.031 -0.031,-0.031l-0.032,0Z" style="fill-rule:nonzero;"/>
            </g>
            <g transform="matrix(11,0,0,11,80.996,154.07)">
                <path d="M0.04,-0.317l0,0.118c0,0.123 0.066,0.214 0.23,0.214c0.113,0 0.18,-0.037 0.216,-0.096c0.014,-0.022 0.011,-0.039 -0.012,-0.05l-0.035,-0.019c-0.024,-0.013 -0.035,-0.01 -0.051,0.012c-0.021,0.033 -0.059,0.053 -0.118,0.053c-0.073,-0 -0.114,-0.035 -0.114,-0.1l0,-0.037l0.302,0c0.035,0 0.045,-0.017 0.045,-0.043l0,-0.061c0,-0.115 -0.072,-0.207 -0.231,-0.207c-0.151,0 -0.232,0.077 -0.232,0.216Zm0.347,-0.016l0,0.022l-0.231,0l0,-0.022c0,-0.065 0.041,-0.102 0.116,-0.102c0.076,0 0.115,0.037 0.115,0.102Z" style="fill-rule:nonzero;"/>
            </g>
            <g transform="matrix(11,0,0,11,86.903,154.07)">
                <path d="M0.041,-0.328l0,0.138c0,0.127 0.069,0.205 0.221,0.205c0.121,-0 0.19,-0.048 0.223,-0.133c0.01,-0.025 0.002,-0.036 -0.021,-0.045l-0.045,-0.013c-0.024,-0.008 -0.035,-0.004 -0.044,0.02c-0.016,0.043 -0.051,0.069 -0.109,0.069c-0.072,-0 -0.109,-0.036 -0.109,-0.098l-0,-0.148c-0,-0.063 0.037,-0.098 0.109,-0.098c0.059,-0 0.093,0.025 0.109,0.067c0.009,0.024 0.02,0.031 0.044,0.021l0.044,-0.014c0.023,-0.009 0.03,-0.02 0.022,-0.045c-0.025,-0.075 -0.095,-0.131 -0.214,-0.131c-0.157,-0 -0.23,0.078 -0.23,0.205Z" style="fill-rule:nonzero;"/>
            </g>
            <g transform="matrix(11,0,0,11,92.59,154.07)">
                <path d="M0.193,-0.638l-0.054,0c-0.023,0 -0.031,0.007 -0.031,0.03l-0,0.09l-0.069,0c-0.023,0 -0.03,0.007 -0.03,0.03l-0,0.046c-0,0.023 0.007,0.031 0.03,0.031l0.069,0l-0,0.205c-0,0.173 0.064,0.225 0.229,0.22c0.024,-0.001 0.032,-0.008 0.032,-0.032l0,-0.046c0,-0.024 -0.008,-0.031 -0.032,-0.031c-0.084,0 -0.113,-0.017 -0.113,-0.115l0,-0.201l0.114,0c0.023,0 0.031,-0.008 0.031,-0.031l0,-0.046c0,-0.023 -0.008,-0.03 -0.031,-0.03l-0.114,0l0,-0.09c0,-0.023 -0.008,-0.03 -0.031,-0.03Z" style="fill-rule:nonzero;"/>
            </g>
            <g transform="matrix(11,0,0,11,96.869,154.07)">
                <path d="M0.04,-0.317l0,0.118c0,0.123 0.066,0.214 0.23,0.214c0.113,0 0.18,-0.037 0.216,-0.096c0.014,-0.022 0.011,-0.039 -0.012,-0.05l-0.035,-0.019c-0.024,-0.013 -0.035,-0.01 -0.051,0.012c-0.021,0.033 -0.059,0.053 -0.118,0.053c-0.073,-0 -0.114,-0.035 -0.114,-0.1l0,-0.037l0.302,0c0.035,0 0.045,-0.017 0.045,-0.043l0,-0.061c0,-0.115 -0.072,-0.207 -0.231,-0.207c-0.151,0 -0.232,0.077 -0.232,0.216Zm0.347,-0.016l0,0.022l-0.231,0l0,-0.022c0,-0.065 0.041,-0.102 0.116,-0.102c0.076,0 0.115,0.037 0.115,0.102Z" style="fill-rule:nonzero;"/>
            </g>
            <g transform="matrix(11,0,0,11,102.776,154.07)">
                <path d="M0.042,-0.324l0,0.137c0,0.128 0.068,0.202 0.217,0.202c0.091,-0 0.147,-0.017 0.187,-0.032c0.032,-0.013 0.04,-0.022 0.04,-0.055l0,-0.637c0,-0.023 -0.008,-0.031 -0.031,-0.031l-0.055,0c-0.023,0 -0.03,0.008 -0.03,0.031l0,0.189c-0.028,-0.005 -0.07,-0.013 -0.119,-0.013c-0.139,0 -0.209,0.074 -0.209,0.209Zm0.328,-0.09l0,0.301c0,0.006 -0.001,0.008 -0.008,0.011c-0.025,0.007 -0.056,0.011 -0.092,0.011c-0.073,0 -0.112,-0.035 -0.112,-0.1l-0,-0.13c-0,-0.071 0.036,-0.106 0.115,-0.106c0.04,0 0.074,0.008 0.097,0.013Z" style="fill-rule:nonzero;"/>
            </g>
            <g transform="matrix(11,0,0,11,111.147,154.07)">
                <path d="M0.586,-0.389l-0.24,0c-0.025,0 -0.034,0.008 -0.034,0.034l0,0.048c0,0.026 0.009,0.035 0.034,0.035l0.151,0l0,0.052c0,0.068 -0.06,0.118 -0.162,0.118c-0.103,0 -0.16,-0.05 -0.16,-0.143l0,-0.221c0,-0.092 0.056,-0.142 0.16,-0.142c0.083,0 0.131,0.031 0.153,0.092c0.009,0.025 0.019,0.03 0.043,0.021l0.055,-0.019c0.024,-0.009 0.03,-0.02 0.021,-0.044c-0.038,-0.108 -0.125,-0.167 -0.272,-0.167c-0.184,0 -0.286,0.1 -0.286,0.26l-0,0.219c-0,0.161 0.102,0.261 0.286,0.261c0.183,0 0.285,-0.1 0.285,-0.236l-0,-0.134c-0,-0.026 -0.008,-0.034 -0.034,-0.034Z" style="fill-rule:nonzero;"/>
            </g>
            <g transform="matrix(11,0,0,11,118.429,154.07)">
                <path d="M0.281,-0.533c-0.089,0.002 -0.149,0.016 -0.186,0.03c-0.032,0.013 -0.039,0.025 -0.039,0.057l-0,0.415c-0,0.023 0.008,0.031 0.031,0.031l0.055,-0c0.023,-0 0.03,-0.008 0.03,-0.031l0,-0.372c0,-0.005 0.001,-0.01 0.01,-0.012c0.026,-0.008 0.056,-0.012 0.095,-0.012l0.036,0c0.023,0 0.031,-0.008 0.031,-0.031l-0,-0.044c-0,-0.024 -0.008,-0.031 -0.031,-0.031l-0.032,0Z" style="fill-rule:nonzero;"/>
            </g>
            <g transform="matrix(11,0,0,11,122.224,154.07)">
                <path d="M0.049,-0.429c-0.012,0.023 -0.005,0.035 0.017,0.045l0.04,0.017c0.023,0.009 0.029,0.006 0.043,-0.015c0.021,-0.032 0.055,-0.048 0.105,-0.048c0.075,0 0.1,0.036 0.1,0.099l0,0.028c-0.017,-0.001 -0.057,-0.005 -0.096,-0.005c-0.16,-0 -0.227,0.041 -0.227,0.161c0,0.104 0.046,0.162 0.223,0.162c0.082,-0 0.143,-0.01 0.18,-0.026c0.028,-0.012 0.036,-0.022 0.036,-0.057l0,-0.259c0,-0.118 -0.05,-0.206 -0.214,-0.206c-0.104,-0 -0.173,0.039 -0.207,0.104Zm0.305,0.221l0,0.105c0,0.009 -0.003,0.011 -0.011,0.014c-0.018,0.004 -0.049,0.008 -0.1,0.008c-0.078,-0 -0.094,-0.026 -0.094,-0.067c0,-0.041 0.02,-0.065 0.096,-0.065c0.039,-0 0.088,0.004 0.109,0.005Z" style="fill-rule:nonzero;"/>
            </g>
            <g transform="matrix(11,0,0,11,127.933,154.07)">
                <path d="M0.095,-0.504c-0.032,0.013 -0.039,0.025 -0.039,0.057l0,0.636c0,0.023 0.008,0.031 0.031,0.031l0.055,0c0.023,0 0.03,-0.008 0.03,-0.031l0,-0.192c0.027,0.007 0.064,0.018 0.105,0.018c0.151,0 0.223,-0.075 0.223,-0.209l0,-0.137c0,-0.128 -0.067,-0.202 -0.211,-0.202c-0.093,0 -0.153,0.014 -0.194,0.029Zm0.289,0.176l0,0.13c0,0.072 -0.036,0.107 -0.115,0.107c-0.039,0 -0.074,-0.009 -0.097,-0.015l0,-0.297c0,-0.007 0.002,-0.01 0.01,-0.013c0.025,-0.007 0.053,-0.011 0.09,-0.011c0.073,0 0.112,0.034 0.112,0.099Z" style="fill-rule:nonzero;"/>
            </g>
            <g transform="matrix(11,0,0,11,133.895,154.07)">
                <path d="M0.144,-0.74l-0.055,0c-0.023,0 -0.031,0.008 -0.031,0.031l-0,0.678c-0,0.023 0.008,0.031 0.031,0.031l0.055,-0c0.023,-0 0.03,-0.008 0.03,-0.031l0,-0.381c0.01,-0.005 0.054,-0.015 0.103,-0.015c0.071,-0 0.109,0.034 0.109,0.098l0,0.298c0,0.023 0.008,0.031 0.031,0.031l0.054,-0c0.023,-0 0.031,-0.008 0.031,-0.031l0,-0.301c0,-0.127 -0.065,-0.201 -0.208,-0.201c-0.059,-0 -0.111,0.009 -0.12,0.014l0,-0.19c0,-0.023 -0.007,-0.031 -0.03,-0.031Z" style="fill-rule:nonzero;"/>
            </g>
            <path d="M57.291,151.397l0,-4.763c0,-0.275 -0.099,-0.374 -0.374,-0.374l-0.638,0c-0.275,0 -0.374,0.099 -0.374,0.374l0,4.752c0,1.727 1.056,2.849 3.08,2.849c2.024,0 3.069,-1.122 3.069,-2.849l0,-4.752c0,-0.275 -0.088,-0.374 -0.374,-0.374l-0.627,0c-0.275,0 -0.374,0.099 -0.374,0.374l0,4.763c0,0.979 -0.561,1.551 -1.694,1.551c-1.133,0 -1.694,-0.572 -1.694,-1.551Zm-0.306,-4.832c-0.019,-0.002 -0.046,-0.005 -0.068,-0.005c-0,0 -0.638,0 -0.638,0c-0.022,0 -0.049,0.003 -0.068,0.005c-0.003,0.02 -0.006,0.047 -0.006,0.069c0,0 0,4.752 0,4.752c0,0.772 0.227,1.412 0.689,1.856c0.469,0.45 1.172,0.693 2.091,0.693c0.918,-0 1.619,-0.242 2.085,-0.693c0.46,-0.444 0.684,-1.084 0.684,-1.856l-0,-4.752c-0,-0.022 -0.003,-0.048 -0.005,-0.069c-0.021,-0.002 -0.047,-0.005 -0.069,-0.005c-0,0 -0.627,0 -0.627,0c-0.022,0 -0.049,0.003 -0.068,0.005c-0.003,0.02 -0.006,0.047 -0.006,0.069c0,0 0,4.763 0,4.763c0,0.585 -0.18,1.044 -0.516,1.361c-0.329,0.309 -0.818,0.49 -1.478,0.49c-0.66,0 -1.149,-0.181 -1.478,-0.49c-0.336,-0.317 -0.516,-0.776 -0.516,-1.361l-0,-4.763c-0,-0.022 -0.003,-0.049 -0.006,-0.069Z"/>
            <path d="M63.715,148.581c-0.352,0.143 -0.429,0.275 -0.429,0.627l0,4.521c0,0.253 0.088,0.341 0.341,0.341l0.605,-0c0.253,-0 0.33,-0.088 0.33,-0.341l0,-4.103c0,-0.044 0.022,-0.088 0.077,-0.11c0.286,-0.077 0.627,-0.143 1.056,-0.143c0.803,0 1.199,0.352 1.199,1.078l0,3.278c0,0.253 0.077,0.341 0.33,0.341l0.605,0c0.253,0 0.341,-0.088 0.341,-0.341l0,-3.311c0,-1.397 -0.726,-2.211 -2.288,-2.211c-1.056,0 -1.727,0.198 -2.167,0.374Zm4.153,5.187c0.001,-0.013 0.002,-0.027 0.002,-0.039c-0,0 -0,-3.311 -0,-3.311c-0,-0.606 -0.144,-1.09 -0.471,-1.418c-0.329,-0.33 -0.834,-0.493 -1.517,-0.493c-1.001,0 -1.638,0.186 -2.055,0.352c-0.102,0.042 -0.172,0.069 -0.209,0.124c-0.036,0.053 -0.032,0.125 -0.032,0.225c0,0 0,4.521 0,4.521c0,0.012 0.001,0.026 0.002,0.039l0.672,0.001c0.001,-0.014 0.002,-0.028 0.002,-0.04c-0,0 -0,-4.103 -0,-4.103c-0,-0.154 0.073,-0.311 0.266,-0.389c0.01,-0.004 0.022,-0.008 0.033,-0.011c0.307,-0.082 0.673,-0.153 1.134,-0.153c0.493,-0 0.856,0.124 1.101,0.343c0.256,0.23 0.398,0.569 0.398,1.035l0,3.278c0,0.012 0.001,0.026 0.002,0.04l0.672,-0.001Z"/>
            <path d="M69.215,150.506l0,1.507c0,1.408 0.748,2.222 2.387,2.222c1.001,-0 1.617,-0.187 2.057,-0.352c0.352,-0.143 0.44,-0.242 0.44,-0.605l0,-7.007c0,-0.253 -0.088,-0.341 -0.341,-0.341l-0.605,0c-0.253,0 -0.33,0.088 -0.33,0.341l0,2.079c-0.308,-0.055 -0.77,-0.143 -1.309,-0.143c-1.529,-0 -2.299,0.814 -2.299,2.299Zm4.582,-4.274l-0.672,-0.001c-0.001,0.014 -0.002,0.028 -0.002,0.04l0,2.079c0,0.089 -0.039,0.173 -0.107,0.23c-0.068,0.057 -0.158,0.081 -0.246,0.065c-0.295,-0.052 -0.739,-0.138 -1.256,-0.138c-0.668,0 -1.174,0.163 -1.509,0.503c-0.335,0.34 -0.49,0.847 -0.49,1.496l0,1.507c0,0.609 0.148,1.095 0.488,1.423c0.345,0.335 0.876,0.499 1.599,0.499c0.948,-0 1.532,-0.176 1.95,-0.332c0.105,-0.043 0.179,-0.067 0.219,-0.12c0.035,-0.046 0.028,-0.11 0.028,-0.205l-0,-7.007c-0,-0.012 -0.001,-0.026 -0.002,-0.039Zm-0.674,3.284c0,-0.141 -0.098,-0.263 -0.236,-0.293c-0.268,-0.058 -0.665,-0.15 -1.131,-0.15c-0.53,-0 -0.91,0.134 -1.163,0.371c-0.261,0.244 -0.402,0.604 -0.402,1.095l-0,1.43c-0,0.457 0.149,0.804 0.415,1.042c0.254,0.227 0.626,0.358 1.117,0.358c0.428,0 0.796,-0.049 1.093,-0.132c0.013,-0.004 0.025,-0.008 0.037,-0.013c0.112,-0.048 0.166,-0.102 0.202,-0.153c0.042,-0.061 0.068,-0.132 0.068,-0.244c0,0 0,-3.311 0,-3.311Zm-0.3,0l0,3.311c0,0.066 -0.011,0.088 -0.088,0.121c-0.275,0.077 -0.616,0.121 -1.012,0.121c-0.803,-0 -1.232,-0.385 -1.232,-1.1l-0,-1.43c-0,-0.781 0.396,-1.166 1.265,-1.166c0.44,-0 0.814,0.088 1.067,0.143Z"/>
            <path d="M76.288,148.372l-0.605,-0c-0.253,-0 -0.33,0.077 -0.33,0.33l0,5.027c0,0.253 0.077,0.341 0.33,0.341l0.605,-0c0.253,-0 0.341,-0.088 0.341,-0.341l0,-5.027c0,-0.253 -0.088,-0.33 -0.341,-0.33Zm0.04,0.302l-0.674,-0.001c-0.001,0.01 -0.001,0.02 -0.001,0.029c0,0 0,5.027 0,5.027c0,0.012 0.001,0.026 0.002,0.04l0.672,-0.001c0.001,-0.013 0.002,-0.027 0.002,-0.039l-0,-5.027c-0,-0.009 -0,-0.018 -0.001,-0.028Zm-0.304,-2.436l-0.077,0c-0.506,0 -0.671,0.154 -0.671,0.66l0,0.099c0,0.506 0.165,0.671 0.671,0.671l0.077,0c0.506,0 0.671,-0.165 0.671,-0.671l0,-0.099c0,-0.506 -0.165,-0.66 -0.671,-0.66Zm0,0.3c0.149,0 0.254,-0.005 0.316,0.055c0.06,0.059 0.055,0.16 0.055,0.305l-0,0.099c-0,0.148 0.003,0.252 -0.058,0.313c-0.061,0.061 -0.165,0.058 -0.313,0.058l-0.077,-0c-0.148,-0 -0.252,0.003 -0.313,-0.058c-0.061,-0.061 -0.058,-0.165 -0.058,-0.313l0,-0.099c0,-0.145 -0.005,-0.246 0.055,-0.305c0.062,-0.06 0.167,-0.055 0.316,-0.055l0.077,0Z"/>
            <path d="M80.347,148.207c-0.979,0.022 -1.639,0.176 -2.046,0.33c-0.352,0.143 -0.429,0.275 -0.429,0.627l0,4.565c0,0.253 0.088,0.341 0.341,0.341l0.605,-0c0.253,-0 0.33,-0.088 0.33,-0.341l0,-4.092c0,-0.055 0.011,-0.11 0.11,-0.132c0.286,-0.088 0.616,-0.132 1.045,-0.132l0.396,0c0.253,0 0.341,-0.088 0.341,-0.341l0,-0.484c0,-0.264 -0.088,-0.341 -0.341,-0.341l-0.352,0Zm0.004,0.3c-0.93,0.021 -1.557,0.164 -1.937,0.308c-0.102,0.042 -0.173,0.068 -0.21,0.124c-0.036,0.053 -0.032,0.125 -0.032,0.225c0,0 0,4.565 0,4.565c0,0.012 0.001,0.026 0.002,0.039l0.672,0.001c0.001,-0.014 0.002,-0.028 0.002,-0.04l-0,-4.092c-0,-0.086 0.019,-0.169 0.066,-0.241c0.046,-0.071 0.119,-0.145 0.264,-0.18c0.309,-0.094 0.664,-0.143 1.125,-0.143l0.435,-0.002l-0,-0.562l-0.387,-0.002Z"/>
            <path d="M81.436,150.583l0,1.298c0,1.353 0.726,2.354 2.53,2.354c1.243,-0 1.98,-0.407 2.376,-1.056c0.154,-0.242 0.121,-0.429 -0.132,-0.55l-0.385,-0.209c-0.264,-0.143 -0.385,-0.11 -0.561,0.132c-0.231,0.363 -0.649,0.583 -1.298,0.583c-0.803,0 -1.254,-0.385 -1.254,-1.1l0,-0.407l3.322,0c0.385,0 0.495,-0.187 0.495,-0.473l0,-0.671c0,-1.265 -0.792,-2.277 -2.541,-2.277c-1.661,0 -2.552,0.847 -2.552,2.376Zm4.073,2.142c-0.279,0.43 -0.77,0.71 -1.543,0.71c-0.488,0 -0.866,-0.13 -1.125,-0.356c-0.273,-0.238 -0.429,-0.586 -0.429,-1.044l-0,-0.407c-0,-0.166 0.134,-0.3 0.3,-0.3l3.322,-0c0.081,-0 0.139,0.003 0.171,-0.032c0.03,-0.033 0.024,-0.084 0.024,-0.141l-0,-0.671c-0,-0.548 -0.165,-1.043 -0.525,-1.399c-0.37,-0.366 -0.939,-0.578 -1.716,-0.578c-0.739,0 -1.311,0.175 -1.694,0.534c-0.376,0.351 -0.558,0.874 -0.558,1.542l0,1.298c0,0.591 0.148,1.109 0.504,1.475c0.361,0.372 0.926,0.579 1.726,0.579c1.103,-0 1.768,-0.336 2.123,-0.917c0.017,-0.027 0.033,-0.067 0.041,-0.088c-0.013,-0.009 -0.033,-0.022 -0.049,-0.03l-0.399,-0.216c-0.033,-0.018 -0.077,-0.035 -0.1,-0.044c-0.016,0.018 -0.049,0.053 -0.073,0.085Zm0.044,-2.318c0,-0.455 -0.148,-0.808 -0.418,-1.052c-0.258,-0.232 -0.638,-0.37 -1.147,-0.37c-0.501,-0 -0.884,0.136 -1.146,0.368c-0.276,0.244 -0.43,0.598 -0.43,1.054l-0,0.242c-0,0.166 0.134,0.3 0.3,0.3l2.541,0c0.166,0 0.3,-0.134 0.3,-0.3l0,-0.242Zm-0.3,0l0,0.242l-2.541,0l0,-0.242c0,-0.715 0.451,-1.122 1.276,-1.122c0.836,0 1.265,0.407 1.265,1.122Z"/>
            <path d="M87.354,150.462l0,1.518c0,1.397 0.759,2.255 2.431,2.255c1.331,0 2.09,-0.528 2.453,-1.463c0.11,-0.275 0.022,-0.396 -0.231,-0.495l-0.495,-0.143c-0.264,-0.088 -0.385,-0.044 -0.484,0.22c-0.176,0.473 -0.561,0.759 -1.199,0.759c-0.792,0 -1.199,-0.396 -1.199,-1.078l0,-1.628c0,-0.693 0.407,-1.078 1.199,-1.078c0.649,0 1.023,0.275 1.199,0.737c0.099,0.264 0.22,0.341 0.484,0.231l0.484,-0.154c0.253,-0.099 0.33,-0.22 0.242,-0.495c-0.275,-0.825 -1.045,-1.441 -2.354,-1.441c-1.727,0 -2.53,0.858 -2.53,2.255Zm4.616,-0.64c-0.003,-0.021 -0.009,-0.055 -0.017,-0.079c-0.24,-0.721 -0.926,-1.236 -2.069,-1.236c-0.769,0 -1.337,0.176 -1.708,0.523c-0.36,0.336 -0.522,0.828 -0.522,1.432c0,0 0,1.518 0,1.518c0,0.606 0.152,1.099 0.498,1.437c0.352,0.344 0.894,0.518 1.633,0.518c1.173,-0 1.853,-0.447 2.174,-1.274c0.008,-0.02 0.015,-0.046 0.02,-0.064c-0.019,-0.011 -0.047,-0.026 -0.072,-0.037l-0.49,-0.141c-0.025,-0.009 -0.057,-0.016 -0.08,-0.021c-0.009,0.018 -0.021,0.041 -0.028,0.061c-0.218,0.587 -0.688,0.954 -1.48,0.954c-0.488,0 -0.852,-0.135 -1.099,-0.362c-0.258,-0.237 -0.4,-0.578 -0.4,-1.016l-0,-1.628c-0,-0.445 0.143,-0.786 0.4,-1.021c0.247,-0.225 0.612,-0.357 1.099,-0.357c0.806,-0 1.261,0.357 1.48,0.932c0.009,0.025 0.024,0.055 0.036,0.076l0.548,-0.176c0.027,-0.011 0.059,-0.029 0.077,-0.039Z"/>
            <path d="M94.713,147.052l-0.594,0c-0.253,0 -0.341,0.077 -0.341,0.33l-0,0.99l-0.759,-0c-0.253,-0 -0.33,0.077 -0.33,0.33l-0,0.506c-0,0.253 0.077,0.341 0.33,0.341l0.759,-0l-0,2.255c-0,1.903 0.704,2.475 2.519,2.42c0.264,-0.011 0.352,-0.088 0.352,-0.352l-0,-0.506c-0,-0.264 -0.088,-0.341 -0.352,-0.341c-0.924,0 -1.243,-0.187 -1.243,-1.265l-0,-2.211l1.254,-0c0.253,-0 0.341,-0.088 0.341,-0.341l-0,-0.506c-0,-0.253 -0.088,-0.33 -0.341,-0.33l-1.254,0l-0,-0.99c-0,-0.253 -0.088,-0.33 -0.341,-0.33Zm0.04,0.302l-0.674,0l-0.001,1.018c0,0.166 -0.134,0.3 -0.3,0.3l-0.788,0.001l0.001,0.575l0.787,0.001c0.166,-0 0.3,0.134 0.3,0.3l0,2.255c0,0.84 0.127,1.394 0.483,1.724c0.357,0.332 0.922,0.421 1.724,0.396c0.019,-0.001 0.042,-0.003 0.061,-0.006l0.001,-0.59c-0.016,-0.002 -0.035,-0.003 -0.05,-0.003c-0.563,0 -0.934,-0.087 -1.172,-0.309c-0.239,-0.221 -0.371,-0.598 -0.371,-1.256l-0,-2.211c-0,-0.166 0.134,-0.3 0.3,-0.3l1.254,-0c0.012,-0 0.026,-0.001 0.039,-0.002l0.001,-0.573c-0.014,-0.001 -0.028,-0.002 -0.04,-0.002l-1.254,0c-0.166,0 -0.3,-0.134 -0.3,-0.3l-0.001,-1.018Z"/>
            <path d="M97.309,150.583l0,1.298c0,1.353 0.726,2.354 2.53,2.354c1.243,-0 1.98,-0.407 2.376,-1.056c0.154,-0.242 0.121,-0.429 -0.132,-0.55l-0.385,-0.209c-0.264,-0.143 -0.385,-0.11 -0.561,0.132c-0.231,0.363 -0.649,0.583 -1.298,0.583c-0.803,0 -1.254,-0.385 -1.254,-1.1l0,-0.407l3.322,0c0.385,0 0.495,-0.187 0.495,-0.473l0,-0.671c0,-1.265 -0.792,-2.277 -2.541,-2.277c-1.661,0 -2.552,0.847 -2.552,2.376Zm4.073,2.142c-0.279,0.43 -0.77,0.71 -1.543,0.71c-0.488,0 -0.866,-0.13 -1.125,-0.356c-0.273,-0.238 -0.429,-0.586 -0.429,-1.044l-0,-0.407c-0,-0.166 0.134,-0.3 0.3,-0.3l3.322,-0c0.081,-0 0.139,0.003 0.171,-0.032c0.03,-0.033 0.024,-0.084 0.024,-0.141l-0,-0.671c-0,-0.548 -0.165,-1.043 -0.525,-1.399c-0.37,-0.366 -0.939,-0.578 -1.716,-0.578c-0.739,0 -1.311,0.175 -1.694,0.534c-0.376,0.351 -0.558,0.874 -0.558,1.542c0,-0 0,1.298 0,1.298c0,0.591 0.148,1.109 0.504,1.475c0.361,0.372 0.926,0.579 1.726,0.579c1.103,-0 1.768,-0.336 2.123,-0.917c0.017,-0.027 0.033,-0.067 0.041,-0.088c-0.013,-0.009 -0.033,-0.022 -0.049,-0.03l-0.399,-0.216c-0.033,-0.018 -0.077,-0.035 -0.1,-0.044c-0.016,0.018 -0.049,0.053 -0.073,0.085Zm0.044,-2.318c0,-0.455 -0.148,-0.808 -0.418,-1.052c-0.258,-0.232 -0.638,-0.37 -1.147,-0.37c-0.501,-0 -0.884,0.136 -1.146,0.368c-0.276,0.244 -0.43,0.598 -0.43,1.054l-0,0.242c-0,0.166 0.134,0.3 0.3,0.3l2.541,0c0.166,0 0.3,-0.134 0.3,-0.3l0,-0.242Zm-0.3,0l0,0.242l-2.541,0l0,-0.242c0,-0.715 0.451,-1.122 1.276,-1.122c0.836,0 1.265,0.407 1.265,1.122Z"/>
            <path d="M103.238,150.506l0,1.507c0,1.408 0.748,2.222 2.387,2.222c1.001,-0 1.617,-0.187 2.057,-0.352c0.352,-0.143 0.44,-0.242 0.44,-0.605l0,-7.007c0,-0.253 -0.088,-0.341 -0.341,-0.341l-0.605,0c-0.253,0 -0.33,0.088 -0.33,0.341l0,2.079c-0.308,-0.055 -0.77,-0.143 -1.309,-0.143c-1.529,-0 -2.299,0.814 -2.299,2.299Zm4.582,-4.274l-0.672,-0.001c-0.001,0.014 -0.002,0.028 -0.002,0.04l0,2.079c0,0.089 -0.039,0.173 -0.107,0.23c-0.068,0.057 -0.158,0.081 -0.246,0.065c-0.295,-0.052 -0.739,-0.138 -1.256,-0.138c-0.668,0 -1.174,0.163 -1.509,0.503c-0.335,0.34 -0.49,0.847 -0.49,1.496c0,0 0,1.507 0,1.507c0,0.609 0.148,1.095 0.488,1.423c0.345,0.335 0.876,0.499 1.599,0.499c0.948,-0 1.532,-0.176 1.95,-0.332c0.105,-0.043 0.179,-0.067 0.219,-0.12c0.035,-0.046 0.028,-0.11 0.028,-0.205l-0,-7.007c-0,-0.012 -0.001,-0.026 -0.002,-0.039Zm-0.674,3.284c0,-0.141 -0.098,-0.263 -0.236,-0.293c-0.268,-0.058 -0.665,-0.15 -1.131,-0.15c-0.53,-0 -0.91,0.134 -1.163,0.371c-0.261,0.244 -0.402,0.604 -0.402,1.095c-0,-0 -0,1.43 -0,1.43c-0,0.457 0.149,0.804 0.415,1.042c0.254,0.227 0.626,0.358 1.117,0.358c0.428,0 0.796,-0.049 1.093,-0.132c0.013,-0.004 0.025,-0.008 0.037,-0.013c0.112,-0.048 0.166,-0.102 0.202,-0.153c0.042,-0.061 0.068,-0.132 0.068,-0.244l0,-3.311Zm-0.3,0l-0,3.311c-0,0.066 -0.011,0.088 -0.088,0.121c-0.275,0.077 -0.616,0.121 -1.012,0.121c-0.803,-0 -1.232,-0.385 -1.232,-1.1l-0,-1.43c-0,-0.781 0.396,-1.166 1.265,-1.166c0.44,-0 0.814,0.088 1.067,0.143Z"/>
            <path d="M117.593,149.791l-2.64,0c-0.275,0 -0.374,0.088 -0.374,0.374l0,0.528c0,0.286 0.099,0.385 0.374,0.385l1.661,0l0,0.572c0,0.748 -0.66,1.298 -1.782,1.298c-1.133,0 -1.76,-0.55 -1.76,-1.573l0,-2.431c0,-1.012 0.616,-1.562 1.76,-1.562c0.913,0 1.441,0.341 1.683,1.012c0.099,0.275 0.209,0.33 0.473,0.231l0.605,-0.209c0.264,-0.099 0.33,-0.22 0.231,-0.484c-0.418,-1.188 -1.375,-1.837 -2.992,-1.837c-2.024,0 -3.146,1.1 -3.146,2.86l0,2.409c0,1.771 1.122,2.871 3.146,2.871c2.013,0 3.135,-1.1 3.135,-2.596l0,-1.474c0,-0.286 -0.088,-0.374 -0.374,-0.374Zm-0.032,-1.69c-0.004,-0.02 -0.012,-0.047 -0.02,-0.069c-0.377,-1.071 -1.251,-1.637 -2.709,-1.637c-0.922,0 -1.642,0.239 -2.128,0.69c-0.476,0.442 -0.718,1.084 -0.718,1.87c0,0 0,2.409 0,2.409c0,0.791 0.242,1.436 0.718,1.88c0.486,0.452 1.206,0.691 2.128,0.691c1.804,-0 2.835,-0.955 2.835,-2.296c-0,0 -0,-1.474 -0,-1.474c-0,-0.022 -0.002,-0.048 -0.005,-0.069c-0.021,-0.003 -0.047,-0.005 -0.069,-0.005l-2.64,0c-0.022,0 -0.048,0.003 -0.069,0.005c-0.002,0.021 -0.005,0.047 -0.005,0.069l0,0.528c0,0.026 0.004,0.058 0.007,0.08c0.019,0.002 0.046,0.005 0.067,0.005l1.661,-0c0.166,-0 0.3,0.134 0.3,0.3c0,0 0,0.572 0,0.572c0,0.89 -0.746,1.598 -2.082,1.598c-0.655,0 -1.159,-0.172 -1.504,-0.479c-0.357,-0.317 -0.556,-0.783 -0.556,-1.394l-0,-2.431c-0,-0.606 0.196,-1.069 0.552,-1.385c0.343,-0.305 0.847,-0.477 1.508,-0.477c1.073,-0 1.681,0.422 1.965,1.21c0.008,0.023 0.02,0.049 0.03,0.069l0.662,-0.227c0.025,-0.009 0.053,-0.023 0.072,-0.033Z"/>
            <path d="M121.52,148.207c-0.979,0.022 -1.639,0.176 -2.046,0.33c-0.352,0.143 -0.429,0.275 -0.429,0.627l0,4.565c0,0.253 0.088,0.341 0.341,0.341l0.605,-0c0.253,-0 0.33,-0.088 0.33,-0.341l0,-4.092c0,-0.055 0.011,-0.11 0.11,-0.132c0.286,-0.088 0.616,-0.132 1.045,-0.132l0.396,0c0.253,0 0.341,-0.088 0.341,-0.341l0,-0.484c0,-0.264 -0.088,-0.341 -0.341,-0.341l-0.352,0Zm0.004,0.3c-0.93,0.021 -1.557,0.164 -1.937,0.308c-0.102,0.042 -0.173,0.068 -0.21,0.124c-0.036,0.053 -0.032,0.125 -0.032,0.225c0,0 0,4.565 0,4.565c0,0.012 0.001,0.026 0.002,0.039l0.672,0.001c0.001,-0.014 0.002,-0.028 0.002,-0.04c-0,0 -0,-4.092 -0,-4.092c-0,-0.086 0.019,-0.169 0.066,-0.241c0.046,-0.071 0.119,-0.145 0.264,-0.18c0.309,-0.094 0.664,-0.143 1.125,-0.143l0.435,-0.002l-0,-0.562l-0.387,-0.002Z"/>
            <path d="M122.763,149.351c-0.132,0.253 -0.055,0.385 0.187,0.495l0.44,0.187c0.253,0.099 0.319,0.066 0.473,-0.165c0.231,-0.352 0.605,-0.528 1.155,-0.528c0.825,-0 1.1,0.396 1.1,1.089l0,0.308c-0.187,-0.011 -0.627,-0.055 -1.056,-0.055c-1.76,-0 -2.497,0.451 -2.497,1.771c0,1.144 0.506,1.782 2.453,1.782c0.902,-0 1.573,-0.11 1.98,-0.286c0.308,-0.132 0.396,-0.242 0.396,-0.627l0,-2.849c0,-1.298 -0.55,-2.266 -2.354,-2.266c-1.144,-0 -1.903,0.429 -2.277,1.144Zm0.797,0.423c0.016,-0.02 0.036,-0.047 0.052,-0.071c0.283,-0.43 0.733,-0.663 1.406,-0.663c0.522,-0 0.862,0.146 1.08,0.381c0.216,0.234 0.32,0.571 0.32,1.008l0,0.308c0,0.083 -0.034,0.162 -0.094,0.218c-0.06,0.057 -0.141,0.086 -0.224,0.081c-0.184,-0.01 -0.616,-0.054 -1.038,-0.054c-0.942,0 -1.564,0.11 -1.904,0.48c-0.21,0.229 -0.293,0.555 -0.293,0.991c0,0.381 0.055,0.699 0.24,0.938c0.294,0.381 0.88,0.544 1.913,0.544c0.847,-0 1.479,-0.096 1.862,-0.262c0.085,-0.036 0.147,-0.057 0.181,-0.107c0.035,-0.055 0.033,-0.13 0.033,-0.244l-0,-2.849c-0,-0.567 -0.107,-1.066 -0.424,-1.419c-0.318,-0.354 -0.84,-0.547 -1.63,-0.547c-1.005,0 -1.682,0.355 -2.011,0.983l-0.02,0.047c0.018,0.011 0.041,0.025 0.058,0.033l0.493,0.204Zm2.858,2.008c0,-0.16 -0.126,-0.292 -0.286,-0.3c-0.233,-0.011 -0.779,-0.055 -1.213,-0.055c-0.633,-0 -0.975,0.158 -1.156,0.377c-0.138,0.166 -0.2,0.379 -0.2,0.638c-0,0.253 0.052,0.465 0.176,0.633c0.17,0.23 0.5,0.404 1.158,0.404c0.594,0 0.955,-0.049 1.165,-0.095c0.014,-0.003 0.027,-0.007 0.04,-0.012c0.139,-0.052 0.211,-0.116 0.258,-0.197c0.033,-0.056 0.058,-0.129 0.058,-0.238l0,-1.155Zm-0.3,-0l0,1.155c0,0.099 -0.033,0.121 -0.121,0.154c-0.198,0.044 -0.539,0.088 -1.1,0.088c-0.858,0 -1.034,-0.286 -1.034,-0.737c0,-0.451 0.22,-0.715 1.056,-0.715c0.429,0 0.968,0.044 1.199,0.055Z"/>
            <path d="M128.978,148.526c-0.352,0.143 -0.429,0.275 -0.429,0.627l0,6.996c0,0.253 0.088,0.341 0.341,0.341l0.605,-0c0.253,-0 0.33,-0.088 0.33,-0.341l0,-2.112c0.297,0.077 0.704,0.198 1.155,0.198c1.661,-0 2.453,-0.825 2.453,-2.299l0,-1.507c0,-1.408 -0.737,-2.222 -2.321,-2.222c-1.023,-0 -1.683,0.154 -2.134,0.319Zm0.545,7.663c0.001,-0.014 0.002,-0.028 0.002,-0.04l-0,-2.112c-0,-0.093 0.043,-0.18 0.116,-0.237c0.074,-0.057 0.169,-0.077 0.259,-0.053c0.278,0.072 0.658,0.188 1.08,0.188c0.735,-0 1.282,-0.167 1.641,-0.513c0.353,-0.34 0.512,-0.845 0.512,-1.486c-0,0 -0,-1.507 -0,-1.507c-0,-0.611 -0.146,-1.097 -0.478,-1.426c-0.335,-0.333 -0.849,-0.496 -1.543,-0.496c-0.97,0 -1.598,0.143 -2.027,0.299c-0.099,0.041 -0.168,0.067 -0.204,0.122c-0.036,0.053 -0.032,0.125 -0.032,0.225l0,6.996c0,0.012 0.001,0.026 0.002,0.039l0.672,0.001Zm2.934,-5.727c0,-0.459 -0.15,-0.803 -0.417,-1.038c-0.253,-0.223 -0.625,-0.351 -1.115,-0.351c-0.44,-0 -0.773,0.049 -1.071,0.132c-0.008,0.002 -0.016,0.005 -0.024,0.008c-0.116,0.043 -0.18,0.098 -0.223,0.156c-0.051,0.068 -0.082,0.149 -0.082,0.268c-0,-0 -0,3.267 -0,3.267c-0,0.137 0.092,0.256 0.224,0.29c0.271,0.071 0.684,0.175 1.143,0.175c0.53,0 0.911,-0.135 1.164,-0.373c0.26,-0.245 0.401,-0.608 0.401,-1.104c0,0 0,-1.43 0,-1.43Zm-0.3,-0l0,1.43c0,0.792 -0.396,1.177 -1.265,1.177c-0.429,-0 -0.814,-0.099 -1.067,-0.165l0,-3.267c0,-0.077 0.022,-0.11 0.11,-0.143c0.275,-0.077 0.583,-0.121 0.99,-0.121c0.803,-0 1.232,0.374 1.232,1.089Z"/>
            <path d="M135.479,145.93l-0.605,0c-0.253,0 -0.341,0.088 -0.341,0.341l0,7.458c0,0.253 0.088,0.341 0.341,0.341l0.605,-0c0.253,-0 0.33,-0.088 0.33,-0.341l-0,-4.191c0.11,-0.055 0.594,-0.165 1.133,-0.165c0.781,-0 1.199,0.374 1.199,1.078l-0,3.278c-0,0.253 0.088,0.341 0.341,0.341l0.594,-0c0.253,-0 0.341,-0.088 0.341,-0.341l-0,-3.311c-0,-1.397 -0.715,-2.211 -2.288,-2.211c-0.649,0 -1.221,0.099 -1.32,0.154l-0,-2.09c-0,-0.253 -0.077,-0.341 -0.33,-0.341Zm0.028,0.301l-0.672,0.001c-0.001,0.013 -0.002,0.027 -0.002,0.039c0,0 0,7.458 0,7.458c0,0.012 0.001,0.026 0.002,0.039l0.672,0.001c0.001,-0.014 0.002,-0.028 0.002,-0.04l-0,-4.191c-0,-0.114 0.064,-0.218 0.166,-0.268c0.123,-0.062 0.663,-0.197 1.267,-0.197c0.48,-0 0.844,0.129 1.093,0.352c0.259,0.233 0.406,0.574 0.406,1.026c0,0 0,3.278 0,3.278c0,0.012 0.001,0.026 0.002,0.039l0.672,-0c0.001,-0.013 0.002,-0.027 0.002,-0.039c-0,0 -0,-3.311 -0,-3.311c-0,-0.606 -0.141,-1.09 -0.467,-1.418c-0.328,-0.331 -0.833,-0.493 -1.521,-0.493c-0.541,0 -1.183,0.121 -1.183,0.121c0,0 0.007,-0.004 0.009,-0.005c-0.093,0.052 -0.207,0.05 -0.298,-0.003c-0.092,-0.054 -0.148,-0.153 -0.148,-0.259c-0,0 -0,-2.09 -0,-2.09c-0,-0.012 -0.001,-0.026 -0.002,-0.04Z"/>
        </g>
    </g>
    <g id="traversal_01">
        <g id="edges12" serif:id="edges">
        </g>
        <g id="Node153" serif:id="Node">
        </g>
        <g id="Node154" serif:id="Node">
        </g>
        <g id="Node155" serif:id="Node">
        </g>
        <g id="Node156" serif:id="Node">
        </g>
        <g id="Node157" serif:id="Node">
        </g>
        <g id="Node158" serif:id="Node">
        </g>
        <g id="Node159" serif:id="Node">
        </g>
        <g id="Node160" serif:id="Node">
        </g>
        <g id="Node161" serif:id="Node">
        </g>
        <g id="Node162" serif:id="Node">
        </g>
        <g id="Node163" serif:id="Node">
        </g>
        <g id="Node164" serif:id="Node">
        </g>
        <g id="Node165" serif:id="Node">
        </g>
        <g id="Node166" serif:id="Node">
        </g>
        <g id="Node167" serif:id="Node">
        </g>
        <g id="Node168" serif:id="Node">
        </g>
        <g id="Node169" serif:id="Node">
        </g>
        <g id="Node170" serif:id="Node">
        </g>
        <g id="BlueNode12" serif:id="BlueNode">
        </g>
        <g id="BlueNode13" serif:id="BlueNode">
        </g>
        <g id="BlueNode14" serif:id="BlueNode">
        </g>
        <g id="BlueNode15" serif:id="BlueNode">
        </g>
        <g id="BlueNode16" serif:id="BlueNode">
        </g>
        <g id="BlueNode17" serif:id="BlueNode">
        </g>
        <g id="BlueNode18" serif:id="BlueNode">
        </g>
        <g id="BlueNode19" serif:id="BlueNode">
        </g>
        <g id="BlueNode20" serif:id="BlueNode">
        </g>
        <g id="BlueNode21" serif:id="BlueNode">
        </g>
        <g id="BlueNode22" serif:id="BlueNode">
        </g>
        <g id="BlueNode23" serif:id="BlueNode">
        </g>
        <g id="BlueNode24" serif:id="BlueNode">
        </g>
        <g id="BlueNode25" serif:id="BlueNode">
        </g>
        <g id="BlueNode26" serif:id="BlueNode">
        </g>
        <g id="BlueNode27" serif:id="BlueNode">
        </g>
        <g id="BlueNode28" serif:id="BlueNode">
        </g>
        <g id="BlueNode29" serif:id="BlueNode">
        </g>
    </g>
    <g id="traversal_02">
        <g id="edges13" serif:id="edges">
        </g>
        <g id="Node171" serif:id="Node">
        </g>
        <g id="Node172" serif:id="Node">
        </g>
        <g id="Node173" serif:id="Node">
        </g>
        <g id="Node174" serif:id="Node">
        </g>
        <g id="Node175" serif:id="Node">
        </g>
        <g id="Node176" serif:id="Node">
        </g>
        <g id="Node177" serif:id="Node">
        </g>
        <g id="Node178" serif:id="Node">
        </g>
        <g id="Node179" serif:id="Node">
        </g>
        <g id="Node180" serif:id="Node">
        </g>
        <g id="Node181" serif:id="Node">
        </g>
        <g id="Node182" serif:id="Node">
        </g>
        <g id="Node183" serif:id="Node">
        </g>
        <g id="Node184" serif:id="Node">
        </g>
        <g id="Node185" serif:id="Node">
        </g>
        <g id="Node186" serif:id="Node">
        </g>
        <g id="Node187" serif:id="Node">
        </g>
        <g id="Node188" serif:id="Node">
        </g>
        <g id="BlueNode30" serif:id="BlueNode">
        </g>
        <g id="BlueNode31" serif:id="BlueNode">
        </g>
        <g id="BlueNode32" serif:id="BlueNode">
        </g>
        <g id="BlueNode33" serif:id="BlueNode">
        </g>
        <g id="BlueNode34" serif:id="BlueNode">
        </g>
        <g id="BlueNode35" serif:id="BlueNode">
        </g>
        <g id="BlueNode36" serif:id="BlueNode">
        </g>
        <g id="BlueNode37" serif:id="BlueNode">
        </g>
        <g id="BlueNode38" serif:id="BlueNode">
        </g>
        <g id="BlueNode39" serif:id="BlueNode">
        </g>
    </g>
    <g id="traversal_05">
        <g id="edges14" serif:id="edges">
        </g>
        <g id="Node189" serif:id="Node">
        </g>
        <g id="Node190" serif:id="Node">
        </g>
        <g id="Node191" serif:id="Node">
        </g>
        <g id="Node192" serif:id="Node">
        </g>
        <g id="Node193" serif:id="Node">
        </g>
        <g id="Node194" serif:id="Node">
        </g>
        <g id="Node195" serif:id="Node">
        </g>
        <g id="Node196" serif:id="Node">
        </g>
        <g id="Node197" serif:id="Node">
        </g>
        <g id="Node198" serif:id="Node">
        </g>
        <g id="Node199" serif:id="Node">
        </g>
        <g id="Node200" serif:id="Node">
        </g>
        <g id="Node201" serif:id="Node">
        </g>
        <g id="Node202" serif:id="Node">
        </g>
        <g id="Node203" serif:id="Node">
        </g>
        <g id="Node204" serif:id="Node">
        </g>
        <g id="Node205" serif:id="Node">
        </g>
        <g id="Node206" serif:id="Node">
        </g>
        <g id="BlueNode40" serif:id="BlueNode">
        </g>
    </g>
    <g id="traversal_06">
        <g id="edges15" serif:id="edges">
        </g>
        <g id="Node207" serif:id="Node">
        </g>
        <g id="Node208" serif:id="Node">
        </g>
        <g id="Node209" serif:id="Node">
        </g>
        <g id="Node210" serif:id="Node">
        </g>
        <g id="Node211" serif:id="Node">
        </g>
        <g id="Node212" serif:id="Node">
        </g>
        <g id="Node213" serif:id="Node">
        </g>
        <g id="Node214" serif:id="Node">
        </g>
        <g id="Node215" serif:id="Node">
        </g>
        <g id="Node216" serif:id="Node">
        </g>
        <g id="Node217" serif:id="Node">
        </g>
        <g id="Node218" serif:id="Node">
        </g>
        <g id="Node219" serif:id="Node">
        </g>
        <g id="Node220" serif:id="Node">
        </g>
        <g id="Node221" serif:id="Node">
        </g>
        <g id="Node222" serif:id="Node">
        </g>
        <g id="Node223" serif:id="Node">
        </g>
        <g id="Node224" serif:id="Node">
        </g>
        <g id="BlueNode41" serif:id="BlueNode">
        </g>
        <g id="BlueNode42" serif:id="BlueNode">
        </g>
        <g id="BlueNode43" serif:id="BlueNode">
        </g>
        <g id="BlueNode44" serif:id="BlueNode">
        </g>
        <g id="BlueNode45" serif:id="BlueNode">
        </g>
        <g id="BlueNode46" serif:id="BlueNode">
        </g>
    </g>
    <g id="traversal_03">
        <g id="edges16" serif:id="edges">
        </g>
        <g id="Node225" serif:id="Node">
        </g>
        <g id="Node226" serif:id="Node">
        </g>
        <g id="Node227" serif:id="Node">
        </g>
        <g id="Node228" serif:id="Node">
        </g>
        <g id="Node229" serif:id="Node">
        </g>
        <g id="Node230" serif:id="Node">
        </g>
        <g id="Node231" serif:id="Node">
        </g>
        <g id="Node232" serif:id="Node">
        </g>
        <g id="Node233" serif:id="Node">
        </g>
        <g id="Node234" serif:id="Node">
        </g>
        <g id="Node235" serif:id="Node">
        </g>
        <g id="Node236" serif:id="Node">
        </g>
        <g id="Node237" serif:id="Node">
        </g>
        <g id="Node238" serif:id="Node">
        </g>
        <g id="Node239" serif:id="Node">
        </g>
        <g id="Node240" serif:id="Node">
        </g>
        <g id="Node241" serif:id="Node">
        </g>
        <g id="Node242" serif:id="Node">
        </g>
        <g id="BlueNode47" serif:id="BlueNode">
        </g>
        <g id="BlueNode48" serif:id="BlueNode">
        </g>
        <g id="BlueNode49" serif:id="BlueNode">
        </g>
    </g>
    <g id="traversal_04">
        <g id="edges17" serif:id="edges">
        </g>
        <g id="Node243" serif:id="Node">
        </g>
        <g id="Node244" serif:id="Node">
        </g>
        <g id="Node245" serif:id="Node">
        </g>
        <g id="Node246" serif:id="Node">
        </g>
        <g id="Node247" serif:id="Node">
        </g>
        <g id="Node248" serif:id="Node">
        </g>
        <g id="Node249" serif:id="Node">
        </g>
        <g id="Node250" serif:id="Node">
        </g>
        <g id="Node251" serif:id="Node">
        </g>
        <g id="Node252" serif:id="Node">
        </g>
        <g id="Node253" serif:id="Node">
        </g>
        <g id="Node254" serif:id="Node">
        </g>
        <g id="Node255" serif:id="Node">
        </g>
        <g id="Node256" serif:id="Node">
        </g>
        <g id="Node257" serif:id="Node">
        </g>
        <g id="Node258" serif:id="Node">
        </g>
        <g id="Node259" serif:id="Node">
        </g>
        <g id="Node260" serif:id="Node">
        </g>
        <g id="BlueNode50" serif:id="BlueNode">
        </g>
    </g>
    <g id="traversal_07">
        <g id="edges18" serif:id="edges">
        </g>
        <g id="Node261" serif:id="Node">
        </g>
        <g id="Node262" serif:id="Node">
        </g>
        <g id="Node263" serif:id="Node">
        </g>
        <g id="Node264" serif:id="Node">
        </g>
        <g id="Node265" serif:id="Node">
        </g>
        <g id="Node266" serif:id="Node">
        </g>
        <g id="Node267" serif:id="Node">
        </g>
        <g id="Node268" serif:id="Node">
        </g>
        <g id="Node269" serif:id="Node">
        </g>
        <g id="Node270" serif:id="Node">
        </g>
        <g id="Node271" serif:id="Node">
        </g>
        <g id="Node272" serif:id="Node">
        </g>
        <g id="Node273" serif:id="Node">
        </g>
        <g id="Node274" serif:id="Node">
        </g>
        <g id="Node275" serif:id="Node">
        </g>
        <g id="Node276" serif:id="Node">
        </g>
        <g id="Node277" serif:id="Node">
        </g>
        <g id="Node278" serif:id="Node">
        </g>
        <g id="BlueNode51" serif:id="BlueNode">
        </g>
        <g id="BlueNode52" serif:id="BlueNode">
        </g>
        <g id="BlueNode53" serif:id="BlueNode">
        </g>
        <g id="BlueNode54" serif:id="BlueNode">
        </g>
    </g>
    <g id="traversal_08">
        <g id="edges19" serif:id="edges">
        </g>
        <g id="Node279" serif:id="Node">
        </g>
        <g id="Node280" serif:id="Node">
        </g>
        <g id="Node281" serif:id="Node">
        </g>
        <g id="Node282" serif:id="Node">
        </g>
        <g id="Node283" serif:id="Node">
        </g>
        <g id="Node284" serif:id="Node">
        </g>
        <g id="Node285" serif:id="Node">
        </g>
        <g id="Node286" serif:id="Node">
        </g>
        <g id="Node287" serif:id="Node">
        </g>
        <g id="Node288" serif:id="Node">
        </g>
        <g id="Node289" serif:id="Node">
        </g>
        <g id="Node290" serif:id="Node">
        </g>
        <g id="Node291" serif:id="Node">
        </g>
        <g id="Node292" serif:id="Node">
        </g>
        <g id="Node293" serif:id="Node">
        </g>
        <g id="Node294" serif:id="Node">
        </g>
        <g id="Node295" serif:id="Node">
        </g>
        <g id="Node296" serif:id="Node">
        </g>
        <g id="BlueNode55" serif:id="BlueNode">
        </g>
    </g>
    <g id="traversal_09">
        <g id="edges20" serif:id="edges">
        </g>
        <g id="Node297" serif:id="Node">
        </g>
        <g id="Node298" serif:id="Node">
        </g>
        <g id="Node299" serif:id="Node">
        </g>
        <g id="Node300" serif:id="Node">
        </g>
        <g id="Node301" serif:id="Node">
        </g>
        <g id="Node302" serif:id="Node">
        </g>
        <g id="Node303" serif:id="Node">
        </g>
        <g id="Node304" serif:id="Node">
        </g>
        <g id="Node305" serif:id="Node">
        </g>
        <g id="Node306" serif:id="Node">
        </g>
        <g id="Node307" serif:id="Node">
        </g>
        <g id="Node308" serif:id="Node">
        </g>
        <g id="Node309" serif:id="Node">
        </g>
        <g id="Node310" serif:id="Node">
        </g>
        <g id="Node311" serif:id="Node">
        </g>
        <g id="Node312" serif:id="Node">
        </g>
        <g id="Node313" serif:id="Node">
        </g>
        <g id="Node314" serif:id="Node">
        </g>
        <g id="BlueNode56" serif:id="BlueNode">
        </g>
        <g id="BlueNode57" serif:id="BlueNode">
        </g>
    </g>
    <g id="traversal_10">
        <g id="edges21" serif:id="edges">
        </g>
        <g id="Node315" serif:id="Node">
        </g>
        <g id="Node316" serif:id="Node">
        </g>
        <g id="Node317" serif:id="Node">
        </g>
        <g id="Node318" serif:id="Node">
        </g>
        <g id="Node319" serif:id="Node">
        </g>
        <g id="Node320" serif:id="Node">
        </g>
        <g id="Node321" serif:id="Node">
        </g>
        <g id="Node322" serif:id="Node">
        </g>
        <g id="Node323" serif:id="Node">
        </g>
        <g id="Node324" serif:id="Node">
        </g>
        <g id="Node325" serif:id="Node">
        </g>
        <g id="Node326" serif:id="Node">
        </g>
        <g id="Node327" serif:id="Node">
        </g>
        <g id="Node328" serif:id="Node">
        </g>
        <g id="Node329" serif:id="Node">
        </g>
        <g id="Node330" serif:id="Node">
        </g>
        <g id="Node331" serif:id="Node">
        </g>
        <g id="Node332" serif:id="Node">
        </g>
        <g id="BlueNode58" serif:id="BlueNode">
        </g>
        <g id="BlueNode59" serif:id="BlueNode">
        </g>
        <g id="BlueNode60" serif:id="BlueNode">
        </g>
        <g id="BlueNode61" serif:id="BlueNode">
        </g>
    </g>
    <g id="traversal_11">
        <g id="edges22" serif:id="edges">
        </g>
        <g id="Node333" serif:id="Node">
        </g>
        <g id="Node334" serif:id="Node">
        </g>
        <g id="Node335" serif:id="Node">
        </g>
        <g id="Node336" serif:id="Node">
        </g>
        <g id="Node337" serif:id="Node">
        </g>
        <g id="Node338" serif:id="Node">
        </g>
        <g id="Node339" serif:id="Node">
        </g>
        <g id="Node340" serif:id="Node">
        </g>
        <g id="Node341" serif:id="Node">
        </g>
        <g id="Node342" serif:id="Node">
        </g>
        <g id="Node343" serif:id="Node">
        </g>
        <g id="Node344" serif:id="Node">
        </g>
        <g id="Node345" serif:id="Node">
        </g>
        <g id="Node346" serif:id="Node">
        </g>
        <g id="Node347" serif:id="Node">
        </g>
        <g id="Node348" serif:id="Node">
        </g>
        <g id="BlueNode62" serif:id="BlueNode">
        </g>
        <g id="BlueNode63" serif:id="BlueNode">
        </g>
        <g id="BlueNode64" serif:id="BlueNode">
        </g>
        <g id="BlueNode65" serif:id="BlueNode">
        </g>
        <g id="BlueNode66" serif:id="BlueNode">
        </g>
        <g id="BlueNode67" serif:id="BlueNode">
        </g>
        <g id="BlueNode68" serif:id="BlueNode">
        </g>
        <g id="Node349" serif:id="Node">
        </g>
        <g id="Node350" serif:id="Node">
        </g>
    </g>
    <g id="traversal_12">
        <g id="edges23" serif:id="edges">
        </g>
        <g id="Node351" serif:id="Node">
        </g>
        <g id="Node352" serif:id="Node">
        </g>
        <g id="Node353" serif:id="Node">
        </g>
        <g id="Node354" serif:id="Node">
        </g>
        <g id="Node355" serif:id="Node">
        </g>
        <g id="Node356" serif:id="Node">
        </g>
        <g id="Node357" serif:id="Node">
        </g>
        <g id="Node358" serif:id="Node">
        </g>
        <g id="Node359" serif:id="Node">
        </g>
        <g id="Node360" serif:id="Node">
        </g>
        <g id="Node361" serif:id="Node">
        </g>
        <g id="Node362" serif:id="Node">
        </g>
        <g id="Node363" serif:id="Node">
        </g>
        <g id="Node364" serif:id="Node">
        </g>
        <g id="Node365" serif:id="Node">
        </g>
        <g id="Node366" serif:id="Node">
        </g>
        <g id="Node367" serif:id="Node">
        </g>
        <g id="Node368" serif:id="Node">
        </g>
        <g id="BlueNode69" serif:id="BlueNode">
        </g>
        <g id="BlueNode70" serif:id="BlueNode">
        </g>
    </g>
    <g id="traversal_13">
        <g id="edges24" serif:id="edges">
        </g>
        <g id="Node369" serif:id="Node">
        </g>
        <g id="Node370" serif:id="Node">
        </g>
        <g id="Node371" serif:id="Node">
        </g>
        <g id="Node372" serif:id="Node">
        </g>
        <g id="Node373" serif:id="Node">
        </g>
        <g id="Node374" serif:id="Node">
        </g>
        <g id="Node375" serif:id="Node">
        </g>
        <g id="Node376" serif:id="Node">
        </g>
        <g id="Node377" serif:id="Node">
        </g>
        <g id="Node378" serif:id="Node">
        </g>
        <g id="Node379" serif:id="Node">
        </g>
        <g id="Node380" serif:id="Node">
        </g>
        <g id="Node381" serif:id="Node">
        </g>
        <g id="Node382" serif:id="Node">
        </g>
        <g id="Node383" serif:id="Node">
        </g>
        <g id="Node384" serif:id="Node">
        </g>
        <g id="Node385" serif:id="Node">
        </g>
        <g id="Node386" serif:id="Node">
        </g>
        <g id="BlueNode71" serif:id="BlueNode">
        </g>
        <g id="BlueNode72" serif:id="BlueNode">
        </g>
    </g>
</svg>
