<?xml version="1.0" encoding="UTF-8" standalone="no"?>
<!DOCTYPE svg PUBLIC "-//W3C//DTD SVG 1.1//EN" "http://www.w3.org/Graphics/SVG/1.1/DTD/svg11.dtd">
<svg width="100%" height="100%" viewBox="0 0 400 200" version="1.1" xmlns="http://www.w3.org/2000/svg" xmlns:xlink="http://www.w3.org/1999/xlink" xml:space="preserve" xmlns:serif="http://www.serif.com/" style="fill-rule:evenodd;clip-rule:evenodd;stroke-linecap:round;stroke-linejoin:round;stroke-miterlimit:1.5;">
    <g id="matrix_06">
    </g>
    <g id="matrix_05">
    </g>
    <g id="matrix_04">
    </g>
    <g id="matrix_03">
    </g>
    <g id="matrix_02">
    </g>
    <g id="matrix_01">
    </g>
    <g id="tree_10">
        <g id="edges">
        </g>
        <g id="nodes">
            <g id="Node">
            </g>
            <g id="Node1" serif:id="Node">
            </g>
            <g id="Node2" serif:id="Node">
            </g>
            <g id="Node3" serif:id="Node">
            </g>
            <g id="Node4" serif:id="Node">
            </g>
            <g id="Node5" serif:id="Node">
            </g>
            <g id="Node6" serif:id="Node">
            </g>
            <g id="Node7" serif:id="Node">
            </g>
            <g id="Node8" serif:id="Node">
            </g>
            <g id="Node9" serif:id="Node">
            </g>
            <g id="Node10" serif:id="Node">
            </g>
            <g id="Node11" serif:id="Node">
            </g>
            <g id="Node12" serif:id="Node">
            </g>
            <g id="Node13" serif:id="Node">
            </g>
            <g id="Node14" serif:id="Node">
            </g>
            <g id="Node15" serif:id="Node">
            </g>
            <g id="Node16" serif:id="Node">
            </g>
            <g id="Node17" serif:id="Node">
            </g>
            <g id="Node18" serif:id="Node">
            </g>
            <g id="Node19" serif:id="Node">
            </g>
        </g>
    </g>
    <g id="tree_09">
        <g id="edges1" serif:id="edges">
        </g>
        <g id="nodes1" serif:id="nodes">
            <g id="Node20" serif:id="Node">
            </g>
            <g id="Node21" serif:id="Node">
            </g>
            <g id="Node22" serif:id="Node">
            </g>
            <g id="Node23" serif:id="Node">
            </g>
            <g id="Node24" serif:id="Node">
            </g>
        </g>
    </g>
    <g id="tree_08">
        <g id="edges2" serif:id="edges">
        </g>
        <g id="nodes2" serif:id="nodes">
            <g id="GreenNode">
            </g>
            <g id="Node25" serif:id="Node">
            </g>
            <g id="Node26" serif:id="Node">
            </g>
            <g id="Node27" serif:id="Node">
            </g>
            <g id="Node28" serif:id="Node">
            </g>
            <g id="Node29" serif:id="Node">
            </g>
            <g id="Node30" serif:id="Node">
            </g>
            <g id="Node31" serif:id="Node">
            </g>
            <g id="Node32" serif:id="Node">
            </g>
            <g id="Node33" serif:id="Node">
            </g>
            <g id="Node34" serif:id="Node">
            </g>
            <g id="Node35" serif:id="Node">
            </g>
            <g id="Node36" serif:id="Node">
            </g>
            <g id="Node37" serif:id="Node">
            </g>
            <g id="Node38" serif:id="Node">
            </g>
            <g id="Node39" serif:id="Node">
            </g>
            <g id="Node40" serif:id="Node">
            </g>
            <g id="Node41" serif:id="Node">
            </g>
        </g>
    </g>
    <g id="tree_07">
        <g id="edges3" serif:id="edges">
        </g>
        <g id="nodes3" serif:id="nodes">
            <g id="Node42" serif:id="Node">
            </g>
            <g id="Node43" serif:id="Node">
            </g>
            <g id="Node44" serif:id="Node">
            </g>
            <g id="Node45" serif:id="Node">
            </g>
            <g id="Node46" serif:id="Node">
            </g>
            <g id="Node47" serif:id="Node">
            </g>
            <g id="Node48" serif:id="Node">
            </g>
            <g id="Node49" serif:id="Node">
            </g>
            <g id="Node50" serif:id="Node">
            </g>
            <g id="Node51" serif:id="Node">
            </g>
            <g id="Node52" serif:id="Node">
            </g>
            <g id="Node53" serif:id="Node">
            </g>
            <g id="Node54" serif:id="Node">
            </g>
            <g id="Node55" serif:id="Node">
            </g>
            <g id="Node56" serif:id="Node">
            </g>
            <g id="Node57" serif:id="Node">
            </g>
        </g>
    </g>
    <g id="tree_06">
        <g id="edges4" serif:id="edges">
        </g>
        <g id="nodes4" serif:id="nodes">
            <g id="BlueNode">
            </g>
            <g id="BlueNode1" serif:id="BlueNode">
            </g>
            <g id="BlueNode2" serif:id="BlueNode">
            </g>
            <g id="BlueNode3" serif:id="BlueNode">
            </g>
            <g id="BlueNode4" serif:id="BlueNode">
            </g>
            <g id="BlueNode5" serif:id="BlueNode">
            </g>
            <g id="YellowNode">
            </g>
            <g id="Node58" serif:id="Node">
            </g>
            <g id="Node59" serif:id="Node">
            </g>
            <g id="Node60" serif:id="Node">
            </g>
            <g id="Node61" serif:id="Node">
            </g>
            <g id="Node62" serif:id="Node">
            </g>
            <g id="Node63" serif:id="Node">
            </g>
            <g id="Node64" serif:id="Node">
            </g>
            <g id="Node65" serif:id="Node">
            </g>
            <g id="Node66" serif:id="Node">
            </g>
            <g id="Node67" serif:id="Node">
            </g>
            <g id="Node68" serif:id="Node">
            </g>
        </g>
    </g>
    <g id="tree_05">
        <g id="edges5" serif:id="edges">
        </g>
        <g id="nodes5" serif:id="nodes">
            <g id="BlueNode6" serif:id="BlueNode">
            </g>
            <g id="BlueNode7" serif:id="BlueNode">
            </g>
            <g id="BlueNode8" serif:id="BlueNode">
            </g>
            <g id="BlueNode9" serif:id="BlueNode">
            </g>
            <g id="BlueNode10" serif:id="BlueNode">
            </g>
            <g id="BlueNode11" serif:id="BlueNode">
            </g>
            <g id="YellowNode1" serif:id="YellowNode">
            </g>
            <g id="RedNode">
            </g>
            <g id="RedNode1" serif:id="RedNode">
            </g>
            <g id="RedNode2" serif:id="RedNode">
            </g>
            <g id="RedNode3" serif:id="RedNode">
            </g>
            <g id="GreenNode1" serif:id="GreenNode">
            </g>
            <g id="Node69" serif:id="Node">
            </g>
            <g id="Node70" serif:id="Node">
            </g>
            <g id="Node71" serif:id="Node">
            </g>
            <g id="Node72" serif:id="Node">
            </g>
            <g id="Node73" serif:id="Node">
            </g>
            <g id="Node74" serif:id="Node">
            </g>
        </g>
    </g>
    <g id="tree_04">
        <g id="edges6" serif:id="edges">
        </g>
        <g id="nodes6" serif:id="nodes">
            <g id="YellowNode2" serif:id="YellowNode">
            </g>
            <g id="YellowNode3" serif:id="YellowNode">
            </g>
            <g id="RedNode4" serif:id="RedNode">
            </g>
            <g id="GreenNode2" serif:id="GreenNode">
            </g>
            <g id="GreenNode3" serif:id="GreenNode">
            </g>
            <g id="Node75" serif:id="Node">
            </g>
            <g id="Node76" serif:id="Node">
            </g>
            <g id="Node77" serif:id="Node">
            </g>
            <g id="Node78" serif:id="Node">
            </g>
            <g id="Node79" serif:id="Node">
            </g>
            <g id="Node80" serif:id="Node">
            </g>
            <g id="Node81" serif:id="Node">
            </g>
            <g id="Node82" serif:id="Node">
            </g>
            <g id="Node83" serif:id="Node">
            </g>
            <g id="Node84" serif:id="Node">
            </g>
            <g id="Node85" serif:id="Node">
            </g>
            <g id="Node86" serif:id="Node">
            </g>
            <g id="Node87" serif:id="Node">
            </g>
        </g>
    </g>
    <g>
        <g id="edges7" serif:id="edges">
        </g>
        <g id="nodes7" serif:id="nodes">
            <g id="Node88" serif:id="Node">
            </g>
            <g id="Node89" serif:id="Node">
            </g>
            <g id="Node90" serif:id="Node">
            </g>
            <g id="Node91" serif:id="Node">
            </g>
            <g id="Node92" serif:id="Node">
            </g>
            <g id="Node93" serif:id="Node">
            </g>
            <g id="Node94" serif:id="Node">
            </g>
            <g id="Node95" serif:id="Node">
            </g>
            <g id="Node96" serif:id="Node">
            </g>
            <g id="Node97" serif:id="Node">
            </g>
            <g id="Node98" serif:id="Node">
            </g>
            <g id="Node99" serif:id="Node">
            </g>
            <g id="Node100" serif:id="Node">
            </g>
            <g id="Node101" serif:id="Node">
            </g>
            <g id="Node102" serif:id="Node">
            </g>
            <g id="Node103" serif:id="Node">
            </g>
            <g id="Node104" serif:id="Node">
            </g>
        </g>
    </g>
    <g id="tree_02">
        <g id="edges8" serif:id="edges">
        </g>
        <g id="nodes8" serif:id="nodes">
            <g id="Node105" serif:id="Node">
            </g>
            <g id="Node106" serif:id="Node">
            </g>
            <g id="Node107" serif:id="Node">
            </g>
            <g id="Node108" serif:id="Node">
            </g>
            <g id="Node109" serif:id="Node">
            </g>
            <g id="Node110" serif:id="Node">
            </g>
            <g id="Node111" serif:id="Node">
            </g>
            <g id="Node112" serif:id="Node">
            </g>
            <g id="Node113" serif:id="Node">
            </g>
            <g id="Node114" serif:id="Node">
            </g>
            <g id="Node115" serif:id="Node">
            </g>
            <g id="Node116" serif:id="Node">
            </g>
            <g id="Node117" serif:id="Node">
            </g>
            <g id="Node118" serif:id="Node">
            </g>
            <g id="Node119" serif:id="Node">
            </g>
            <g id="Node120" serif:id="Node">
            </g>
            <g id="Node121" serif:id="Node">
            </g>
            <g id="Node122" serif:id="Node">
            </g>
        </g>
    </g>
    <g id="tree_01">
        <g id="edges9" serif:id="edges">
        </g>
        <g id="nodes9" serif:id="nodes">
            <g id="Node123" serif:id="Node">
            </g>
            <g id="Node124" serif:id="Node">
            </g>
            <g id="Node125" serif:id="Node">
            </g>
            <g id="Node126" serif:id="Node">
            </g>
            <g id="Node127" serif:id="Node">
            </g>
            <g id="Node128" serif:id="Node">
            </g>
            <g id="Node129" serif:id="Node">
            </g>
            <g id="Node130" serif:id="Node">
            </g>
            <g id="Node131" serif:id="Node">
            </g>
            <g id="Node132" serif:id="Node">
            </g>
            <g id="Node133" serif:id="Node">
            </g>
            <g id="Node134" serif:id="Node">
            </g>
            <g id="Node135" serif:id="Node">
            </g>
            <g id="Node136" serif:id="Node">
            </g>
            <g id="Node137" serif:id="Node">
            </g>
            <g id="Node138" serif:id="Node">
            </g>
            <g id="Node139" serif:id="Node">
            </g>
            <g id="Node140" serif:id="Node">
            </g>
        </g>
    </g>
    <g id="graph_02">
        <g id="edges10" serif:id="edges">
        </g>
        <g id="nodes10" serif:id="nodes">
            <g id="Node141" serif:id="Node">
            </g>
            <g id="Node142" serif:id="Node">
            </g>
            <g id="Node143" serif:id="Node">
            </g>
            <g id="Node144" serif:id="Node">
            </g>
            <g id="Node145" serif:id="Node">
            </g>
            <g id="Node146" serif:id="Node">
            </g>
        </g>
    </g>
    <g id="graph_01">
        <g id="edges11" serif:id="edges">
        </g>
        <g id="nodes11" serif:id="nodes">
            <g id="Node147" serif:id="Node">
            </g>
            <g id="Node148" serif:id="Node">
            </g>
            <g id="Node149" serif:id="Node">
            </g>
            <g id="Node150" serif:id="Node">
            </g>
            <g id="Node151" serif:id="Node">
            </g>
            <g id="Node152" serif:id="Node">
            </g>
        </g>
    </g>
    <g id="traversal_01">
        <g id="edges12" serif:id="edges">
        </g>
        <g id="Node153" serif:id="Node">
        </g>
        <g id="Node154" serif:id="Node">
        </g>
        <g id="Node155" serif:id="Node">
        </g>
        <g id="Node156" serif:id="Node">
        </g>
        <g id="Node157" serif:id="Node">
        </g>
        <g id="Node158" serif:id="Node">
        </g>
        <g id="Node159" serif:id="Node">
        </g>
        <g id="Node160" serif:id="Node">
        </g>
        <g id="Node161" serif:id="Node">
        </g>
        <g id="Node162" serif:id="Node">
        </g>
        <g id="Node163" serif:id="Node">
        </g>
        <g id="Node164" serif:id="Node">
        </g>
        <g id="Node165" serif:id="Node">
        </g>
        <g id="Node166" serif:id="Node">
        </g>
        <g id="Node167" serif:id="Node">
        </g>
        <g id="Node168" serif:id="Node">
        </g>
        <g id="Node169" serif:id="Node">
        </g>
        <g id="Node170" serif:id="Node">
        </g>
        <g id="BlueNode12" serif:id="BlueNode">
        </g>
        <g id="BlueNode13" serif:id="BlueNode">
        </g>
        <g id="BlueNode14" serif:id="BlueNode">
        </g>
        <g id="BlueNode15" serif:id="BlueNode">
        </g>
        <g id="BlueNode16" serif:id="BlueNode">
        </g>
        <g id="BlueNode17" serif:id="BlueNode">
        </g>
        <g id="BlueNode18" serif:id="BlueNode">
        </g>
        <g id="BlueNode19" serif:id="BlueNode">
        </g>
        <g id="BlueNode20" serif:id="BlueNode">
        </g>
        <g id="BlueNode21" serif:id="BlueNode">
        </g>
        <g id="BlueNode22" serif:id="BlueNode">
        </g>
        <g id="BlueNode23" serif:id="BlueNode">
        </g>
        <g id="BlueNode24" serif:id="BlueNode">
        </g>
        <g id="BlueNode25" serif:id="BlueNode">
        </g>
        <g id="BlueNode26" serif:id="BlueNode">
        </g>
        <g id="BlueNode27" serif:id="BlueNode">
        </g>
        <g id="BlueNode28" serif:id="BlueNode">
        </g>
        <g id="BlueNode29" serif:id="BlueNode">
        </g>
    </g>
    <g id="traversal_02">
        <g id="edges13" serif:id="edges">
        </g>
        <g id="Node171" serif:id="Node">
        </g>
        <g id="Node172" serif:id="Node">
        </g>
        <g id="Node173" serif:id="Node">
        </g>
        <g id="Node174" serif:id="Node">
        </g>
        <g id="Node175" serif:id="Node">
        </g>
        <g id="Node176" serif:id="Node">
        </g>
        <g id="Node177" serif:id="Node">
        </g>
        <g id="Node178" serif:id="Node">
        </g>
        <g id="Node179" serif:id="Node">
        </g>
        <g id="Node180" serif:id="Node">
        </g>
        <g id="Node181" serif:id="Node">
        </g>
        <g id="Node182" serif:id="Node">
        </g>
        <g id="Node183" serif:id="Node">
        </g>
        <g id="Node184" serif:id="Node">
        </g>
        <g id="Node185" serif:id="Node">
        </g>
        <g id="Node186" serif:id="Node">
        </g>
        <g id="Node187" serif:id="Node">
        </g>
        <g id="Node188" serif:id="Node">
        </g>
        <g id="BlueNode30" serif:id="BlueNode">
        </g>
        <g id="BlueNode31" serif:id="BlueNode">
        </g>
        <g id="BlueNode32" serif:id="BlueNode">
        </g>
        <g id="BlueNode33" serif:id="BlueNode">
        </g>
        <g id="BlueNode34" serif:id="BlueNode">
        </g>
        <g id="BlueNode35" serif:id="BlueNode">
        </g>
        <g id="BlueNode36" serif:id="BlueNode">
        </g>
        <g id="BlueNode37" serif:id="BlueNode">
        </g>
        <g id="BlueNode38" serif:id="BlueNode">
        </g>
        <g id="BlueNode39" serif:id="BlueNode">
        </g>
    </g>
    <g id="traversal_05">
        <g id="edges14" serif:id="edges">
        </g>
        <g id="Node189" serif:id="Node">
        </g>
        <g id="Node190" serif:id="Node">
        </g>
        <g id="Node191" serif:id="Node">
        </g>
        <g id="Node192" serif:id="Node">
        </g>
        <g id="Node193" serif:id="Node">
        </g>
        <g id="Node194" serif:id="Node">
        </g>
        <g id="Node195" serif:id="Node">
        </g>
        <g id="Node196" serif:id="Node">
        </g>
        <g id="Node197" serif:id="Node">
        </g>
        <g id="Node198" serif:id="Node">
        </g>
        <g id="Node199" serif:id="Node">
        </g>
        <g id="Node200" serif:id="Node">
        </g>
        <g id="Node201" serif:id="Node">
        </g>
        <g id="Node202" serif:id="Node">
        </g>
        <g id="Node203" serif:id="Node">
        </g>
        <g id="Node204" serif:id="Node">
        </g>
        <g id="Node205" serif:id="Node">
        </g>
        <g id="Node206" serif:id="Node">
        </g>
        <g id="BlueNode40" serif:id="BlueNode">
        </g>
    </g>
    <g id="traversal_06">
        <g id="edges15" serif:id="edges">
        </g>
        <g id="Node207" serif:id="Node">
        </g>
        <g id="Node208" serif:id="Node">
        </g>
        <g id="Node209" serif:id="Node">
        </g>
        <g id="Node210" serif:id="Node">
        </g>
        <g id="Node211" serif:id="Node">
        </g>
        <g id="Node212" serif:id="Node">
        </g>
        <g id="Node213" serif:id="Node">
        </g>
        <g id="Node214" serif:id="Node">
        </g>
        <g id="Node215" serif:id="Node">
        </g>
        <g id="Node216" serif:id="Node">
        </g>
        <g id="Node217" serif:id="Node">
        </g>
        <g id="Node218" serif:id="Node">
        </g>
        <g id="Node219" serif:id="Node">
        </g>
        <g id="Node220" serif:id="Node">
        </g>
        <g id="Node221" serif:id="Node">
        </g>
        <g id="Node222" serif:id="Node">
        </g>
        <g id="Node223" serif:id="Node">
        </g>
        <g id="Node224" serif:id="Node">
        </g>
        <g id="BlueNode41" serif:id="BlueNode">
        </g>
        <g id="BlueNode42" serif:id="BlueNode">
        </g>
        <g id="BlueNode43" serif:id="BlueNode">
        </g>
        <g id="BlueNode44" serif:id="BlueNode">
        </g>
        <g id="BlueNode45" serif:id="BlueNode">
        </g>
        <g id="BlueNode46" serif:id="BlueNode">
        </g>
    </g>
    <g id="traversal_03">
        <g id="edges16" serif:id="edges">
        </g>
        <g id="Node225" serif:id="Node">
        </g>
        <g id="Node226" serif:id="Node">
        </g>
        <g id="Node227" serif:id="Node">
        </g>
        <g id="Node228" serif:id="Node">
        </g>
        <g id="Node229" serif:id="Node">
        </g>
        <g id="Node230" serif:id="Node">
        </g>
        <g id="Node231" serif:id="Node">
        </g>
        <g id="Node232" serif:id="Node">
        </g>
        <g id="Node233" serif:id="Node">
        </g>
        <g id="Node234" serif:id="Node">
        </g>
        <g id="Node235" serif:id="Node">
        </g>
        <g id="Node236" serif:id="Node">
        </g>
        <g id="Node237" serif:id="Node">
        </g>
        <g id="Node238" serif:id="Node">
        </g>
        <g id="Node239" serif:id="Node">
        </g>
        <g id="Node240" serif:id="Node">
        </g>
        <g id="Node241" serif:id="Node">
        </g>
        <g id="Node242" serif:id="Node">
        </g>
        <g id="BlueNode47" serif:id="BlueNode">
        </g>
        <g id="BlueNode48" serif:id="BlueNode">
        </g>
        <g id="BlueNode49" serif:id="BlueNode">
        </g>
    </g>
    <g id="traversal_04">
        <g id="edges17" serif:id="edges">
        </g>
        <g id="Node243" serif:id="Node">
        </g>
        <g id="Node244" serif:id="Node">
        </g>
        <g id="Node245" serif:id="Node">
        </g>
        <g id="Node246" serif:id="Node">
        </g>
        <g id="Node247" serif:id="Node">
        </g>
        <g id="Node248" serif:id="Node">
        </g>
        <g id="Node249" serif:id="Node">
        </g>
        <g id="Node250" serif:id="Node">
        </g>
        <g id="Node251" serif:id="Node">
        </g>
        <g id="Node252" serif:id="Node">
        </g>
        <g id="Node253" serif:id="Node">
        </g>
        <g id="Node254" serif:id="Node">
        </g>
        <g id="Node255" serif:id="Node">
        </g>
        <g id="Node256" serif:id="Node">
        </g>
        <g id="Node257" serif:id="Node">
        </g>
        <g id="Node258" serif:id="Node">
        </g>
        <g id="Node259" serif:id="Node">
        </g>
        <g id="Node260" serif:id="Node">
        </g>
        <g id="BlueNode50" serif:id="BlueNode">
        </g>
    </g>
    <g id="traversal_07">
        <g id="edges18" serif:id="edges">
        </g>
        <g id="Node261" serif:id="Node">
        </g>
        <g id="Node262" serif:id="Node">
        </g>
        <g id="Node263" serif:id="Node">
        </g>
        <g id="Node264" serif:id="Node">
        </g>
        <g id="Node265" serif:id="Node">
        </g>
        <g id="Node266" serif:id="Node">
        </g>
        <g id="Node267" serif:id="Node">
        </g>
        <g id="Node268" serif:id="Node">
        </g>
        <g id="Node269" serif:id="Node">
        </g>
        <g id="Node270" serif:id="Node">
        </g>
        <g id="Node271" serif:id="Node">
        </g>
        <g id="Node272" serif:id="Node">
        </g>
        <g id="Node273" serif:id="Node">
        </g>
        <g id="Node274" serif:id="Node">
        </g>
        <g id="Node275" serif:id="Node">
        </g>
        <g id="Node276" serif:id="Node">
        </g>
        <g id="Node277" serif:id="Node">
        </g>
        <g id="Node278" serif:id="Node">
        </g>
        <g id="BlueNode51" serif:id="BlueNode">
        </g>
        <g id="BlueNode52" serif:id="BlueNode">
        </g>
        <g id="BlueNode53" serif:id="BlueNode">
        </g>
        <g id="BlueNode54" serif:id="BlueNode">
        </g>
    </g>
    <g id="traversal_08">
        <g id="edges19" serif:id="edges">
            <path d="M99.498,77.768l-6.178,1.685l3.931,-5.054l2.247,3.369Z"/>
            <path d="M130,55c-0,0 -23.1,15.4 -32.636,21.758" style="fill:none;stroke:#000;stroke-width:1.8px;"/>
            <path d="M75.601,102.749l-5.054,3.931l1.685,-6.178l3.369,2.247Z"/>
            <path d="M85,85c-0,0 -7.575,11.363 -11.758,17.636" style="fill:none;stroke:#000;stroke-width:1.8px;"/>
            <path d="M94.399,102.749l5.054,3.931l-1.685,-6.178l-3.369,2.247Z"/>
            <path d="M96.758,102.636c-4.183,-6.273 -11.758,-17.636 -11.758,-17.636" style="fill:none;stroke:#000;stroke-width:1.8px;"/>
            <path d="M162.232,100.502l-1.685,6.178l5.054,-3.931l-3.369,-2.247Z"/>
            <path d="M163.242,102.636c4.183,-6.273 11.758,-17.636 11.758,-17.636" style="fill:none;stroke:#000;stroke-width:1.8px;"/>
            <path d="M187.768,100.502l1.685,6.178l-5.054,-3.931l3.369,-2.247Z"/>
            <path d="M175,85c-0,0 7.575,11.363 11.758,17.636" style="fill:none;stroke:#000;stroke-width:1.8px;"/>
            <path d="M142.232,160.502l-1.685,6.178l5.054,-3.931l-3.369,-2.247Z"/>
            <path d="M143.242,162.636c4.183,-6.273 11.758,-17.636 11.758,-17.636" style="fill:none;stroke:#000;stroke-width:1.8px;"/>
            <path d="M167.768,160.502l1.685,6.178l-5.054,-3.931l3.369,-2.247Z"/>
            <path d="M155,145c-0,-0 7.575,11.363 11.758,17.636" style="fill:none;stroke:#000;stroke-width:1.8px;"/>
            <path d="M157.025,128.925l-2.025,6.075l-2.025,-6.075l4.05,0Z"/>
            <path d="M155,115l0,15.14" style="fill:none;stroke:#000;stroke-width:1.8px;"/>
            <path d="M285.624,47.421l5.072,3.908l-6.403,-0.083l1.331,-3.825Z"/>
            <path d="M215,25c-0,-0 54.709,19.029 71.106,24.733" style="fill:none;stroke:#000;stroke-width:1.8px;"/>
            <path d="M324.114,73.002l3.295,5.491l-5.931,-2.416l2.636,-3.075Z"/>
            <path d="M300,55c-0,0 16.24,13.92 23.719,20.33" style="fill:none;stroke:#000;stroke-width:1.8px;"/>
            <path d="M337.025,98.925l-2.025,6.075l-2.025,-6.075l4.05,0Z"/>
            <path d="M335,85l-0,15.14" style="fill:none;stroke:#000;stroke-width:1.8px;"/>
            <path d="M337.025,128.925l-2.025,6.075l-2.025,-6.075l4.05,0Z"/>
            <path d="M335,121l-0,9.14" style="fill:none;stroke:#000;stroke-width:1.8px;"/>
            <path d="M252.232,100.502l-1.685,6.178l5.054,-3.931l-3.369,-2.247Z"/>
            <path d="M253.242,102.636c3.386,-5.079 8.758,-13.136 8.758,-13.136" style="fill:none;stroke:#000;stroke-width:1.8px;"/>
            <path d="M277.768,100.502l1.685,6.178l-5.054,-3.931l3.369,-2.247Z"/>
            <path d="M265,85c-0,0 7.575,11.363 11.758,17.636" style="fill:none;stroke:#000;stroke-width:1.8px;"/>
            <path d="M275.886,73.002l-3.295,5.491l5.931,-2.416l-2.636,-3.075Z"/>
            <path d="M276.281,75.33c7.479,-6.41 23.719,-20.33 23.719,-20.33" style="fill:none;stroke:#000;stroke-width:1.8px;"/>
            <path d="M160.502,77.768l6.178,1.685l-3.931,-5.054l-2.247,3.369Z"/>
            <path d="M162.636,76.758c-9.536,-6.358 -32.636,-21.758 -32.636,-21.758" style="fill:none;stroke:#000;stroke-width:1.8px;"/>
            <path d="M145.036,47.911l-5.036,3.955l6.402,-0.143l-1.366,-3.812Z"/>
            <path d="M144.575,50.227c16.28,-5.832 70.425,-25.227 70.425,-25.227" style="fill:none;stroke:#000;stroke-width:1.8px;"/>
        </g>
        <g id="Node279" serif:id="Node">
            <circle cx="85" cy="85" r="10" style="fill:#ebebeb;"/>
            <path d="M85,75c5.519,-0 10,4.481 10,10c-0,5.519 -4.481,10 -10,10c-5.519,-0 -10,-4.481 -10,-10c-0,-5.519 4.481,-10 10,-10Zm-0,1.8c4.526,-0 8.2,3.674 8.2,8.2c0,4.526 -3.674,8.2 -8.2,8.2c-4.526,0 -8.2,-3.674 -8.2,-8.2c-0,-4.526 3.674,-8.2 8.2,-8.2Z"/>
            <path d="M84.93,80.24l-3.136,-0c-0.364,-0 -0.49,0.126 -0.49,0.476l-0,8.988c-0,0.35 0.126,0.476 0.49,0.476l3.136,-0c2.604,-0 4.06,-1.414 4.06,-3.696l-0,-2.548c-0,-2.282 -1.456,-3.696 -4.06,-3.696Zm2.31,3.682l-0,2.576c-0,1.33 -0.826,2.044 -2.296,2.044l-1.876,-0l-0,-6.664l1.876,-0c1.47,-0 2.296,0.714 2.296,2.044Z" style="fill-rule:nonzero;"/>
        </g>
        <g id="Node280" serif:id="Node">
            <circle cx="65" cy="115" r="10" style="fill:#ebebeb;"/>
            <path d="M65,105c5.519,-0 10,4.481 10,10c-0,5.519 -4.481,10 -10,10c-5.519,-0 -10,-4.481 -10,-10c-0,-5.519 4.481,-10 10,-10Zm-0,1.8c4.526,-0 8.2,3.674 8.2,8.2c0,4.526 -3.674,8.2 -8.2,8.2c-4.526,0 -8.2,-3.674 -8.2,-8.2c-0,-4.526 3.674,-8.2 8.2,-8.2Z"/>
            <path d="M68.066,110.24l-5.558,-0c-0.364,-0 -0.49,0.126 -0.49,0.476l-0,8.988c-0,0.35 0.126,0.476 0.49,0.476l0.798,-0c0.35,-0 0.476,-0.126 0.476,-0.476l-0,-3.612l3.598,-0c0.364,-0 0.49,-0.112 0.49,-0.476l-0,-0.686c-0,-0.35 -0.126,-0.476 -0.49,-0.476l-3.598,-0l-0,-2.576l4.284,-0c0.364,-0 0.49,-0.126 0.49,-0.476l-0,-0.686c-0,-0.35 -0.126,-0.476 -0.49,-0.476Z" style="fill-rule:nonzero;"/>
        </g>
        <g id="Node281" serif:id="Node">
            <circle cx="105" cy="115" r="10" style="fill:#ebebeb;"/>
            <path d="M105,105c5.519,-0 10,4.481 10,10c0,5.519 -4.481,10 -10,10c-5.519,-0 -10,-4.481 -10,-10c-0,-5.519 4.481,-10 10,-10Zm-0,1.8c4.526,-0 8.2,3.674 8.2,8.2c0,4.526 -3.674,8.2 -8.2,8.2c-4.526,0 -8.2,-3.674 -8.2,-8.2c-0,-4.526 3.674,-8.2 8.2,-8.2Z"/>
            <path d="M108.57,114.734l-3.36,-0c-0.35,-0 -0.476,0.112 -0.476,0.476l-0,0.672c-0,0.364 0.126,0.49 0.476,0.49l2.114,-0l-0,0.728c-0,0.952 -0.84,1.652 -2.268,1.652c-1.442,-0 -2.24,-0.7 -2.24,-2.002l-0,-3.094c-0,-1.288 0.784,-1.988 2.24,-1.988c1.162,-0 1.834,0.434 2.142,1.288c0.126,0.35 0.266,0.42 0.602,0.294l0.77,-0.266c0.336,-0.126 0.42,-0.28 0.294,-0.616c-0.532,-1.512 -1.75,-2.338 -3.808,-2.338c-2.576,-0 -4.004,1.4 -4.004,3.64l-0,3.066c-0,2.254 1.428,3.654 4.004,3.654c2.562,-0 3.99,-1.4 3.99,-3.304l-0,-1.876c-0,-0.364 -0.112,-0.476 -0.476,-0.476Z" style="fill-rule:nonzero;"/>
        </g>
        <g id="Node282" serif:id="Node">
            <circle cx="175" cy="85" r="10" style="fill:#ebebeb;"/>
            <path d="M175,75c5.519,-0 10,4.481 10,10c0,5.519 -4.481,10 -10,10c-5.519,-0 -10,-4.481 -10,-10c0,-5.519 4.481,-10 10,-10Zm0,1.8c4.526,-0 8.2,3.674 8.2,8.2c0,4.526 -3.674,8.2 -8.2,8.2c-4.526,0 -8.2,-3.674 -8.2,-8.2c-0,-4.526 3.674,-8.2 8.2,-8.2Z"/>
            <path d="M177.961,80.24l-5.558,-0c-0.364,-0 -0.49,0.126 -0.49,0.476l0,8.988c0,0.35 0.126,0.476 0.49,0.476l5.712,-0c0.364,-0 0.476,-0.126 0.476,-0.476l0,-0.686c0,-0.35 -0.112,-0.476 -0.476,-0.476l-4.438,-0l-0,-2.576l3.626,-0c0.35,-0 0.476,-0.126 0.476,-0.476l-0,-0.686c-0,-0.35 -0.126,-0.476 -0.476,-0.476l-3.626,-0l-0,-2.45l4.284,-0c0.364,-0 0.49,-0.126 0.49,-0.476l-0,-0.686c-0,-0.35 -0.126,-0.476 -0.49,-0.476Z" style="fill-rule:nonzero;"/>
        </g>
        <g id="Node283" serif:id="Node">
            <circle cx="130" cy="55" r="10" style="fill:#ebebeb;"/>
            <path d="M130,45c5.519,-0 10,4.481 10,10c0,5.519 -4.481,10 -10,10c-5.519,-0 -10,-4.481 -10,-10c0,-5.519 4.481,-10 10,-10Zm0,1.8c4.526,-0 8.2,3.674 8.2,8.2c0,4.526 -3.674,8.2 -8.2,8.2c-4.526,0 -8.2,-3.674 -8.2,-8.2c-0,-4.526 3.674,-8.2 8.2,-8.2Z"/>
            <path d="M130.784,50.24l-3.878,-0c-0.364,-0 -0.49,0.126 -0.49,0.476l-0,8.988c-0,0.35 0.126,0.476 0.49,0.476l3.962,-0c1.834,-0 3.15,-0.966 3.15,-2.73c-0,-1.26 -0.518,-2.1 -1.428,-2.422l-0,-0.056c0.728,-0.434 1.064,-1.106 1.064,-2.114c-0,-1.68 -1.064,-2.618 -2.87,-2.618Zm1.078,2.87c-0,0.84 -0.462,1.232 -1.288,1.232l-2.394,-0l-0,-2.464l2.394,-0c0.84,-0 1.288,0.406 1.288,1.232Zm0.294,4.144c-0,0.854 -0.462,1.288 -1.33,1.288l-2.646,-0l-0,-2.604l2.646,-0c0.868,-0 1.33,0.462 1.33,1.316Z" style="fill-rule:nonzero;"/>
        </g>
        <g id="Node284" serif:id="Node">
            <circle cx="155" cy="115" r="10" style="fill:#ebebeb;"/>
            <path d="M155,105c5.519,-0 10,4.481 10,10c-0,5.519 -4.481,10 -10,10c-5.519,-0 -10,-4.481 -10,-10c-0,-5.519 4.481,-10 10,-10Zm-0,1.8c4.526,-0 8.2,3.674 8.2,8.2c0,4.526 -3.674,8.2 -8.2,8.2c-4.526,0 -8.2,-3.674 -8.2,-8.2c-0,-4.526 3.674,-8.2 8.2,-8.2Z"/>
            <path d="M158.346,110.24l-0.798,-0c-0.35,-0 -0.476,0.126 -0.476,0.476l-0,3.612l-4.144,-0l-0,-3.612c-0,-0.35 -0.126,-0.476 -0.476,-0.476l-0.798,-0c-0.364,-0 -0.49,0.126 -0.49,0.476l-0,8.988c-0,0.35 0.126,0.476 0.49,0.476l0.798,-0c0.35,-0 0.476,-0.126 0.476,-0.476l-0,-3.738l4.144,-0l-0,3.738c-0,0.35 0.126,0.476 0.476,0.476l0.798,-0c0.364,-0 0.49,-0.126 0.49,-0.476l-0,-8.988c-0,-0.35 -0.126,-0.476 -0.49,-0.476Z" style="fill-rule:nonzero;"/>
        </g>
        <g id="Node285" serif:id="Node">
            <circle cx="195" cy="115" r="10" style="fill:#ebebeb;"/>
            <path d="M195,105c5.519,-0 10,4.481 10,10c-0,5.519 -4.481,10 -10,10c-5.519,-0 -10,-4.481 -10,-10c-0,-5.519 4.481,-10 10,-10Zm-0,1.8c4.526,-0 8.2,3.674 8.2,8.2c0,4.526 -3.674,8.2 -8.2,8.2c-4.526,0 -8.2,-3.674 -8.2,-8.2c-0,-4.526 3.674,-8.2 8.2,-8.2Z"/>
            <path d="M194.118,110.716l-0,8.988c-0,0.35 0.126,0.476 0.49,0.476l0.798,-0c0.35,-0 0.476,-0.126 0.476,-0.476l-0,-8.988c-0,-0.35 -0.126,-0.476 -0.476,-0.476l-0.798,-0c-0.364,-0 -0.49,0.126 -0.49,0.476Z" style="fill-rule:nonzero;"/>
        </g>
        <g id="Node286" serif:id="Node">
            <circle cx="155" cy="145" r="10" style="fill:#ebebeb;"/>
            <path d="M155,135c5.519,-0 10,4.481 10,10c-0,5.519 -4.481,10 -10,10c-5.519,-0 -10,-4.481 -10,-10c-0,-5.519 4.481,-10 10,-10Zm-0,1.8c4.526,-0 8.2,3.674 8.2,8.2c0,4.526 -3.674,8.2 -8.2,8.2c-4.526,0 -8.2,-3.674 -8.2,-8.2c-0,-4.526 3.674,-8.2 8.2,-8.2Z"/>
            <path d="M157.681,140.24l-0.826,-0c-0.364,-0 -0.476,0.126 -0.476,0.462l-0,6.216c-0,1.204 -0.602,1.834 -1.806,1.834c-0.966,-0 -1.442,-0.448 -1.722,-1.288c-0.14,-0.35 -0.28,-0.42 -0.602,-0.294l-0.77,0.266c-0.336,0.126 -0.42,0.28 -0.294,0.616c0.476,1.484 1.54,2.338 3.388,2.338c2.338,-0 3.57,-1.33 3.57,-3.486l-0,-6.202c-0,-0.336 -0.126,-0.462 -0.462,-0.462Z" style="fill-rule:nonzero;"/>
        </g>
        <g id="Node287" serif:id="Node">
            <circle cx="135" cy="175" r="10" style="fill:#ebebeb;"/>
            <path d="M135,165c5.519,-0 10,4.481 10,10c-0,5.519 -4.481,10 -10,10c-5.519,-0 -10,-4.481 -10,-10c-0,-5.519 4.481,-10 10,-10Zm-0,1.8c4.526,-0 8.2,3.674 8.2,8.2c0,4.526 -3.674,8.2 -8.2,8.2c-4.526,0 -8.2,-3.674 -8.2,-8.2c-0,-4.526 3.674,-8.2 8.2,-8.2Z"/>
            <path d="M139.137,179.704l-1.778,-3.416c-0.406,-0.784 -0.854,-1.302 -1.512,-1.596l3.122,-3.99c0.182,-0.238 0.098,-0.462 -0.224,-0.462l-0.896,-0c-0.56,-0 -0.7,0.056 -0.952,0.392l-2.814,3.71l-0.742,-0l-0,-3.626c-0,-0.35 -0.126,-0.476 -0.476,-0.476l-0.798,-0c-0.364,-0 -0.49,0.126 -0.49,0.476l-0,8.988c-0,0.35 0.126,0.476 0.49,0.476l0.798,-0c0.35,-0 0.476,-0.126 0.476,-0.476l-0,-3.766l0.714,-0c0.966,-0 1.288,0.224 1.666,0.98l1.414,2.842c0.168,0.35 0.35,0.42 0.952,0.42l0.812,-0c0.35,-0 0.378,-0.21 0.238,-0.476Z" style="fill-rule:nonzero;"/>
        </g>
        <g id="Node288" serif:id="Node">
            <circle cx="175" cy="175" r="10" style="fill:#ebebeb;"/>
            <path d="M175,165c5.519,-0 10,4.481 10,10c-0,5.519 -4.481,10 -10,10c-5.519,-0 -10,-4.481 -10,-10c-0,-5.519 4.481,-10 10,-10Zm-0,1.8c4.526,-0 8.2,3.674 8.2,8.2c0,4.526 -3.674,8.2 -8.2,8.2c-4.526,0 -8.2,-3.674 -8.2,-8.2c-0,-4.526 3.674,-8.2 8.2,-8.2Z"/>
            <path d="M173.558,170.24l-0.798,-0c-0.364,-0 -0.49,0.126 -0.49,0.476l-0,8.988c-0,0.35 0.126,0.476 0.49,0.476l5.292,-0c0.35,-0 0.476,-0.126 0.476,-0.476l-0,-0.686c-0,-0.35 -0.126,-0.476 -0.476,-0.476l-4.018,-0l-0,-7.826c-0,-0.35 -0.126,-0.476 -0.476,-0.476Z" style="fill-rule:nonzero;"/>
        </g>
        <g id="Node289" serif:id="Node">
            <circle cx="265" cy="85" r="10" style="fill:#ebebeb;"/>
            <path d="M265,75c5.519,-0 10,4.481 10,10c0,5.519 -4.481,10 -10,10c-5.519,-0 -10,-4.481 -10,-10c0,-5.519 4.481,-10 10,-10Zm0,1.8c4.526,-0 8.2,3.674 8.2,8.2c0,4.526 -3.674,8.2 -8.2,8.2c-4.526,0 -8.2,-3.674 -8.2,-8.2c-0,-4.526 3.674,-8.2 8.2,-8.2Z"/>
            <path d="M269.221,80.24l-0.686,-0c-0.378,-0 -0.476,0.07 -0.644,0.378l-2.912,5.194l-2.912,-5.208c-0.154,-0.294 -0.28,-0.364 -0.672,-0.364l-0.616,-0c-0.364,-0 -0.49,0.126 -0.49,0.476l-0,8.988c-0,0.35 0.126,0.476 0.49,0.476l0.672,-0c0.364,-0 0.476,-0.126 0.476,-0.476l-0,-4.256c-0,-0.882 -0.07,-1.708 -0.294,-2.8l0.098,-0c0.336,1.12 0.602,1.736 1.078,2.548l1.4,2.436c0.154,0.28 0.252,0.336 0.546,0.336l0.448,-0c0.28,-0 0.392,-0.084 0.546,-0.336l1.372,-2.422c0.448,-0.812 0.798,-1.512 1.148,-2.562l0.098,-0c-0.238,1.078 -0.336,1.988 -0.336,2.786l-0,4.27c-0,0.35 0.112,0.476 0.476,0.476l0.714,-0c0.364,-0 0.476,-0.126 0.476,-0.476l-0,-8.988c-0,-0.35 -0.112,-0.476 -0.476,-0.476Z" style="fill-rule:nonzero;"/>
        </g>
        <g id="Node290" serif:id="Node">
            <circle cx="245" cy="115" r="10" style="fill:#ebebeb;"/>
            <path d="M245,105c5.519,-0 10,4.481 10,10c0,5.519 -4.481,10 -10,10c-5.519,-0 -10,-4.481 -10,-10c0,-5.519 4.481,-10 10,-10Zm0,1.8c4.526,-0 8.2,3.674 8.2,8.2c0,4.526 -3.674,8.2 -8.2,8.2c-4.526,0 -8.2,-3.674 -8.2,-8.2c-0,-4.526 3.674,-8.2 8.2,-8.2Z"/>
            <path d="M241.003,113.684l0,3.052c0,2.254 1.428,3.654 4.004,3.654c2.562,-0 3.99,-1.4 3.99,-3.654l0,-3.052c0,-2.254 -1.428,-3.654 -3.99,-3.654c-2.576,-0 -4.004,1.4 -4.004,3.654Zm6.244,-0.014l0,3.08c0,1.302 -0.812,2.002 -2.24,2.002c-1.442,-0 -2.24,-0.7 -2.24,-2.002l0,-3.08c0,-1.302 0.798,-2.002 2.24,-2.002c1.428,-0 2.24,0.7 2.24,2.002Z" style="fill-rule:nonzero;"/>
        </g>
        <g id="Node291" serif:id="Node">
            <circle cx="285" cy="115" r="10" style="fill:#ebebeb;"/>
            <path d="M285,105c5.519,-0 10,4.481 10,10c0,5.519 -4.481,10 -10,10c-5.519,-0 -10,-4.481 -10,-10c0,-5.519 4.481,-10 10,-10Zm0,1.8c4.526,-0 8.2,3.674 8.2,8.2c0,4.526 -3.674,8.2 -8.2,8.2c-4.526,0 -8.2,-3.674 -8.2,-8.2c-0,-4.526 3.674,-8.2 8.2,-8.2Z"/>
            <path d="M285.742,110.24l-3.71,-0c-0.364,-0 -0.49,0.126 -0.49,0.476l0,8.988c0,0.35 0.126,0.476 0.49,0.476l0.798,-0c0.35,-0 0.476,-0.126 0.476,-0.476l0,-2.982l2.436,-0c2.03,-0 3.304,-1.204 3.304,-3.234c0,-2.03 -1.288,-3.248 -3.304,-3.248Zm-0.168,4.844l-2.268,-0l0,-3.206l2.268,-0c1.022,-0 1.624,0.602 1.624,1.61c0,1.008 -0.602,1.596 -1.624,1.596Z" style="fill-rule:nonzero;"/>
        </g>
        <g id="Node292" serif:id="Node">
            <circle cx="215" cy="25" r="10" style="fill:#ebebeb;"/>
            <path d="M215,15c5.519,-0 10,4.481 10,10c-0,5.519 -4.481,10 -10,10c-5.519,-0 -10,-4.481 -10,-10c-0,-5.519 4.481,-10 10,-10Zm-0,1.8c4.526,-0 8.2,3.674 8.2,8.2c0,4.526 -3.674,8.2 -8.2,8.2c-4.526,0 -8.2,-3.674 -8.2,-8.2c-0,-4.526 3.674,-8.2 8.2,-8.2Z"/>
            <path d="M219.452,29.718l-3.5,-9.114c-0.112,-0.308 -0.266,-0.378 -0.588,-0.378l-0.742,-0c-0.322,-0 -0.462,0.07 -0.588,0.392l-3.5,9.1c-0.112,0.308 -0.028,0.462 0.322,0.462l0.644,-0c0.588,-0 0.756,-0.084 0.868,-0.42l0.658,-1.806l3.864,-0l0.644,1.806c0.112,0.336 0.28,0.42 0.868,0.42l0.728,-0c0.35,-0 0.434,-0.154 0.322,-0.462Zm-4.116,-6.16l1.064,2.954l-2.884,-0l1.078,-2.968c0.294,-0.854 0.308,-1.68 0.308,-1.694l0.098,-0c0.014,0.014 0.042,0.84 0.336,1.708Z" style="fill-rule:nonzero;"/>
        </g>
        <g id="Node293" serif:id="Node">
            <circle cx="300" cy="55" r="10" style="fill:#ebebeb;"/>
            <path d="M300,45c5.519,-0 10,4.481 10,10c-0,5.519 -4.481,10 -10,10c-5.519,-0 -10,-4.481 -10,-10c-0,-5.519 4.481,-10 10,-10Zm-0,1.8c4.526,-0 8.2,3.674 8.2,8.2c0,4.526 -3.674,8.2 -8.2,8.2c-4.526,0 -8.2,-3.674 -8.2,-8.2c-0,-4.526 3.674,-8.2 8.2,-8.2Z"/>
            <path d="M296.206,53.67l-0,3.066c-0,2.254 1.428,3.654 4.004,3.654c2.072,-0 3.29,-0.84 3.822,-2.352c0.112,-0.336 0.028,-0.49 -0.308,-0.616l-0.756,-0.266c-0.336,-0.126 -0.476,-0.056 -0.616,0.294c-0.308,0.854 -0.966,1.302 -2.142,1.302c-1.442,-0 -2.24,-0.714 -2.24,-2.002l-0,-3.094c-0,-1.288 0.798,-1.988 2.24,-1.988c1.162,-0 1.834,0.434 2.142,1.288c0.126,0.35 0.266,0.392 0.602,0.294l0.77,-0.266c0.336,-0.126 0.42,-0.28 0.294,-0.616c-0.532,-1.512 -1.75,-2.338 -3.808,-2.338c-2.576,-0 -4.004,1.4 -4.004,3.64Z" style="fill-rule:nonzero;"/>
        </g>
        <g id="Node294" serif:id="Node">
            <circle cx="335" cy="145" r="10" style="fill:#ebebeb;"/>
            <path d="M335,135c5.519,-0 10,4.481 10,10c0,5.519 -4.481,10 -10,10c-5.519,-0 -10,-4.481 -10,-10c0,-5.519 4.481,-10 10,-10Zm0,1.8c4.526,-0 8.2,3.674 8.2,8.2c0,4.526 -3.674,8.2 -8.2,8.2c-4.526,0 -8.2,-3.674 -8.2,-8.2c-0,-4.526 3.674,-8.2 8.2,-8.2Z"/>
            <path d="M335.763,140.24l-3.864,-0c-0.364,-0 -0.49,0.126 -0.49,0.476l-0,8.988c-0,0.35 0.126,0.476 0.49,0.476l0.798,-0c0.35,-0 0.476,-0.126 0.476,-0.476l-0,-3.304l1.036,-0c0.966,-0 1.302,0.21 1.666,0.98l1.176,2.38c0.168,0.35 0.35,0.42 0.952,0.42l0.812,-0c0.35,-0 0.378,-0.21 0.238,-0.476l-1.54,-2.954c-0.126,-0.252 -0.266,-0.448 -0.448,-0.602c1.162,-0.392 1.848,-1.372 1.848,-2.828c-0,-1.932 -1.204,-3.08 -3.15,-3.08Zm1.302,3.08c-0,0.938 -0.532,1.442 -1.47,1.442l-2.422,-0l-0,-2.884l2.422,-0c0.952,-0 1.47,0.518 1.47,1.442Z" style="fill-rule:nonzero;"/>
        </g>
        <g id="Node295" serif:id="Node">
            <circle cx="335" cy="115" r="10" style="fill:#ebebeb;"/>
            <path d="M335,105c5.519,-0 10,4.481 10,10c0,5.519 -4.481,10 -10,10c-5.519,-0 -10,-4.481 -10,-10c0,-5.519 4.481,-10 10,-10Zm0,1.8c4.526,-0 8.2,3.674 8.2,8.2c0,4.526 -3.674,8.2 -8.2,8.2c-4.526,0 -8.2,-3.674 -8.2,-8.2c-0,-4.526 3.674,-8.2 8.2,-8.2Z"/>
            <path d="M339.039,120.026l-0.84,-0.98c0.462,-0.602 0.7,-1.386 0.7,-2.31l-0,-3.052c-0,-2.254 -1.428,-3.654 -3.99,-3.654c-2.576,-0 -4.004,1.4 -4.004,3.654l-0,3.052c-0,2.254 1.428,3.654 4.004,3.654c0.756,-0 1.428,-0.126 1.96,-0.378l0.91,1.078c0.224,0.266 0.406,0.28 0.672,0.056l0.532,-0.434c0.266,-0.238 0.28,-0.406 0.056,-0.686Zm-6.37,-3.276l-0,-3.08c-0,-1.302 0.798,-2.002 2.24,-2.002c1.428,-0 2.24,0.7 2.24,2.002l-0,3.08c-0,1.302 -0.812,2.002 -2.24,2.002c-1.442,-0 -2.24,-0.7 -2.24,-2.002Z" style="fill-rule:nonzero;"/>
        </g>
        <g id="Node296" serif:id="Node">
            <circle cx="335" cy="85" r="10" style="fill:#ebebeb;"/>
            <path d="M335,75c5.519,-0 10,4.481 10,10c0,5.519 -4.481,10 -10,10c-5.519,-0 -10,-4.481 -10,-10c0,-5.519 4.481,-10 10,-10Zm0,1.8c4.526,-0 8.2,3.674 8.2,8.2c0,4.526 -3.674,8.2 -8.2,8.2c-4.526,0 -8.2,-3.674 -8.2,-8.2c-0,-4.526 3.674,-8.2 8.2,-8.2Z"/>
            <path d="M338.416,80.24l-0.742,-0c-0.35,-0 -0.476,0.126 -0.476,0.476l-0,4.34c-0,1.414 0.308,2.688 0.308,2.828l-0.084,-0c-0.07,-0.112 -0.462,-1.316 -1.176,-2.38l-3.402,-5.04c-0.098,-0.14 -0.21,-0.224 -0.462,-0.224l-0.798,-0c-0.364,-0 -0.49,0.126 -0.49,0.476l-0,8.988c-0,0.35 0.126,0.476 0.49,0.476l0.742,-0c0.35,-0 0.476,-0.126 0.476,-0.476l-0,-4.396c-0,-1.33 -0.308,-2.674 -0.308,-2.786l0.084,-0c0.056,0.084 0.49,1.372 1.148,2.352l3.43,5.068c0.112,0.182 0.224,0.238 0.462,0.238l0.798,-0c0.364,-0 0.476,-0.126 0.476,-0.476l-0,-8.988c-0,-0.35 -0.112,-0.476 -0.476,-0.476Z" style="fill-rule:nonzero;"/>
        </g>
        <g id="BlueNode55" serif:id="BlueNode">
            <circle cx="215" cy="25" r="10" style="fill:#65baff;"/>
            <path d="M215,15c5.519,-0 10,4.481 10,10c0,5.519 -4.481,10 -10,10c-5.519,-0 -10,-4.481 -10,-10c0,-5.519 4.481,-10 10,-10Zm0,1.8c4.526,-0 8.2,3.674 8.2,8.2c0,4.526 -3.674,8.2 -8.2,8.2c-4.526,0 -8.2,-3.674 -8.2,-8.2c-0,-4.526 3.674,-8.2 8.2,-8.2Z"/>
            <path d="M219.452,29.718l-3.5,-9.114c-0.112,-0.308 -0.266,-0.378 -0.588,-0.378l-0.742,-0c-0.322,-0 -0.462,0.07 -0.588,0.392l-3.5,9.1c-0.112,0.308 -0.028,0.462 0.322,0.462l0.644,-0c0.588,-0 0.756,-0.084 0.868,-0.42l0.658,-1.806l3.864,-0l0.644,1.806c0.112,0.336 0.28,0.42 0.868,0.42l0.728,-0c0.35,-0 0.434,-0.154 0.322,-0.462Zm-4.116,-6.16l1.064,2.954l-2.884,-0l1.078,-2.968c0.294,-0.854 0.308,-1.68 0.308,-1.694l0.098,-0c0.014,0.014 0.042,0.84 0.336,1.708Z" style="fill-rule:nonzero;"/>
        </g>
    </g>
    <g id="traversal_09">
        <g id="edges20" serif:id="edges">
        </g>
        <g id="Node297" serif:id="Node">
        </g>
        <g id="Node298" serif:id="Node">
        </g>
        <g id="Node299" serif:id="Node">
        </g>
        <g id="Node300" serif:id="Node">
        </g>
        <g id="Node301" serif:id="Node">
        </g>
        <g id="Node302" serif:id="Node">
        </g>
        <g id="Node303" serif:id="Node">
        </g>
        <g id="Node304" serif:id="Node">
        </g>
        <g id="Node305" serif:id="Node">
        </g>
        <g id="Node306" serif:id="Node">
        </g>
        <g id="Node307" serif:id="Node">
        </g>
        <g id="Node308" serif:id="Node">
        </g>
        <g id="Node309" serif:id="Node">
        </g>
        <g id="Node310" serif:id="Node">
        </g>
        <g id="Node311" serif:id="Node">
        </g>
        <g id="Node312" serif:id="Node">
        </g>
        <g id="Node313" serif:id="Node">
        </g>
        <g id="Node314" serif:id="Node">
        </g>
        <g id="BlueNode56" serif:id="BlueNode">
        </g>
        <g id="BlueNode57" serif:id="BlueNode">
        </g>
    </g>
    <g id="traversal_10">
        <g id="edges21" serif:id="edges">
        </g>
        <g id="Node315" serif:id="Node">
        </g>
        <g id="Node316" serif:id="Node">
        </g>
        <g id="Node317" serif:id="Node">
        </g>
        <g id="Node318" serif:id="Node">
        </g>
        <g id="Node319" serif:id="Node">
        </g>
        <g id="Node320" serif:id="Node">
        </g>
        <g id="Node321" serif:id="Node">
        </g>
        <g id="Node322" serif:id="Node">
        </g>
        <g id="Node323" serif:id="Node">
        </g>
        <g id="Node324" serif:id="Node">
        </g>
        <g id="Node325" serif:id="Node">
        </g>
        <g id="Node326" serif:id="Node">
        </g>
        <g id="Node327" serif:id="Node">
        </g>
        <g id="Node328" serif:id="Node">
        </g>
        <g id="Node329" serif:id="Node">
        </g>
        <g id="Node330" serif:id="Node">
        </g>
        <g id="Node331" serif:id="Node">
        </g>
        <g id="Node332" serif:id="Node">
        </g>
        <g id="BlueNode58" serif:id="BlueNode">
        </g>
        <g id="BlueNode59" serif:id="BlueNode">
        </g>
        <g id="BlueNode60" serif:id="BlueNode">
        </g>
        <g id="BlueNode61" serif:id="BlueNode">
        </g>
    </g>
    <g id="traversal_11">
        <g id="edges22" serif:id="edges">
        </g>
        <g id="Node333" serif:id="Node">
        </g>
        <g id="Node334" serif:id="Node">
        </g>
        <g id="Node335" serif:id="Node">
        </g>
        <g id="Node336" serif:id="Node">
        </g>
        <g id="Node337" serif:id="Node">
        </g>
        <g id="Node338" serif:id="Node">
        </g>
        <g id="Node339" serif:id="Node">
        </g>
        <g id="Node340" serif:id="Node">
        </g>
        <g id="Node341" serif:id="Node">
        </g>
        <g id="Node342" serif:id="Node">
        </g>
        <g id="Node343" serif:id="Node">
        </g>
        <g id="Node344" serif:id="Node">
        </g>
        <g id="Node345" serif:id="Node">
        </g>
        <g id="Node346" serif:id="Node">
        </g>
        <g id="Node347" serif:id="Node">
        </g>
        <g id="Node348" serif:id="Node">
        </g>
        <g id="BlueNode62" serif:id="BlueNode">
        </g>
        <g id="BlueNode63" serif:id="BlueNode">
        </g>
        <g id="BlueNode64" serif:id="BlueNode">
        </g>
        <g id="BlueNode65" serif:id="BlueNode">
        </g>
        <g id="BlueNode66" serif:id="BlueNode">
        </g>
        <g id="BlueNode67" serif:id="BlueNode">
        </g>
        <g id="BlueNode68" serif:id="BlueNode">
        </g>
        <g id="Node349" serif:id="Node">
        </g>
        <g id="Node350" serif:id="Node">
        </g>
    </g>
    <g id="traversal_12">
        <g id="edges23" serif:id="edges">
        </g>
        <g id="Node351" serif:id="Node">
        </g>
        <g id="Node352" serif:id="Node">
        </g>
        <g id="Node353" serif:id="Node">
        </g>
        <g id="Node354" serif:id="Node">
        </g>
        <g id="Node355" serif:id="Node">
        </g>
        <g id="Node356" serif:id="Node">
        </g>
        <g id="Node357" serif:id="Node">
        </g>
        <g id="Node358" serif:id="Node">
        </g>
        <g id="Node359" serif:id="Node">
        </g>
        <g id="Node360" serif:id="Node">
        </g>
        <g id="Node361" serif:id="Node">
        </g>
        <g id="Node362" serif:id="Node">
        </g>
        <g id="Node363" serif:id="Node">
        </g>
        <g id="Node364" serif:id="Node">
        </g>
        <g id="Node365" serif:id="Node">
        </g>
        <g id="Node366" serif:id="Node">
        </g>
        <g id="Node367" serif:id="Node">
        </g>
        <g id="Node368" serif:id="Node">
        </g>
        <g id="BlueNode69" serif:id="BlueNode">
        </g>
        <g id="BlueNode70" serif:id="BlueNode">
        </g>
    </g>
    <g id="traversal_13">
        <g id="edges24" serif:id="edges">
        </g>
        <g id="Node369" serif:id="Node">
        </g>
        <g id="Node370" serif:id="Node">
        </g>
        <g id="Node371" serif:id="Node">
        </g>
        <g id="Node372" serif:id="Node">
        </g>
        <g id="Node373" serif:id="Node">
        </g>
        <g id="Node374" serif:id="Node">
        </g>
        <g id="Node375" serif:id="Node">
        </g>
        <g id="Node376" serif:id="Node">
        </g>
        <g id="Node377" serif:id="Node">
        </g>
        <g id="Node378" serif:id="Node">
        </g>
        <g id="Node379" serif:id="Node">
        </g>
        <g id="Node380" serif:id="Node">
        </g>
        <g id="Node381" serif:id="Node">
        </g>
        <g id="Node382" serif:id="Node">
        </g>
        <g id="Node383" serif:id="Node">
        </g>
        <g id="Node384" serif:id="Node">
        </g>
        <g id="Node385" serif:id="Node">
        </g>
        <g id="Node386" serif:id="Node">
        </g>
        <g id="BlueNode71" serif:id="BlueNode">
        </g>
        <g id="BlueNode72" serif:id="BlueNode">
        </g>
    </g>
</svg>
