<?xml version="1.0" encoding="UTF-8" standalone="no"?>
<!DOCTYPE svg PUBLIC "-//W3C//DTD SVG 1.1//EN" "http://www.w3.org/Graphics/SVG/1.1/DTD/svg11.dtd">
<svg width="100%" height="100%" viewBox="0 0 150 170" version="1.1" xmlns="http://www.w3.org/2000/svg" xmlns:xlink="http://www.w3.org/1999/xlink" xml:space="preserve" xmlns:serif="http://www.serif.com/" style="fill-rule:evenodd;clip-rule:evenodd;stroke-linecap:round;stroke-linejoin:round;stroke-miterlimit:1.5;">
    <g id="tree_11">
        <g id="edges">
            <path d="M67.232,145.502l-1.685,6.178l5.054,-3.931l-3.369,-2.247Z"/>
            <path d="M68.242,147.636c4.183,-6.273 11.758,-17.636 11.758,-17.636" style="fill:none;stroke:#000;stroke-width:1.8px;"/>
            <path d="M92.768,145.502l1.685,6.178l-5.054,-3.931l3.369,-2.247Z"/>
            <path d="M80,130c-0,-0 7.575,11.363 11.758,17.636" style="fill:none;stroke:#000;stroke-width:1.8px;"/>
            <path d="M44.498,32.768l-6.178,1.685l3.931,-5.054l2.247,3.369Z"/>
            <path d="M75,10c0,0 -23.1,15.4 -32.636,21.758" style="fill:none;stroke:#000;stroke-width:1.8px;"/>
            <path d="M20.601,57.749l-5.054,3.931l1.685,-6.178l3.369,2.247Z"/>
            <path d="M30,40c0,0 -7.575,11.363 -11.758,17.636" style="fill:none;stroke:#000;stroke-width:1.8px;"/>
            <path d="M39.399,57.749l5.054,3.931l-1.685,-6.178l-3.369,2.247Z"/>
            <path d="M41.758,57.636c-4.183,-6.273 -11.758,-17.636 -11.758,-17.636" style="fill:none;stroke:#000;stroke-width:1.8px;"/>
            <path d="M107.232,55.502l-1.685,6.178l5.054,-3.931l-3.369,-2.247Z"/>
            <path d="M108.242,57.636c4.183,-6.273 11.758,-17.636 11.758,-17.636" style="fill:none;stroke:#000;stroke-width:1.8px;"/>
            <path d="M132.768,55.502l1.685,6.178l-5.054,-3.931l3.369,-2.247Z"/>
            <path d="M120,40c0,0 7.575,11.363 11.758,17.636" style="fill:none;stroke:#000;stroke-width:1.8px;"/>
            <path d="M87.232,115.502l-1.685,6.178l5.054,-3.931l-3.369,-2.247Z"/>
            <path d="M88.242,117.636c4.183,-6.273 11.758,-17.636 11.758,-17.636" style="fill:none;stroke:#000;stroke-width:1.8px;"/>
            <path d="M112.768,115.502l1.685,6.178l-5.054,-3.931l3.369,-2.247Z"/>
            <path d="M100,100c0,-0 7.575,11.363 11.758,17.636" style="fill:none;stroke:#000;stroke-width:1.8px;"/>
            <path d="M102.025,83.925l-2.025,6.075l-2.025,-6.075l4.05,0Z"/>
            <path d="M100,70l0,15.14" style="fill:none;stroke:#000;stroke-width:1.8px;"/>
            <path d="M105.502,32.768l6.178,1.685l-3.931,-5.054l-2.247,3.369Z"/>
            <path d="M107.636,31.758c-9.536,-6.358 -32.636,-21.758 -32.636,-21.758" style="fill:none;stroke:#000;stroke-width:1.8px;"/>
        </g>
        <g id="nodes">
            <g id="Node">
                <circle cx="30" cy="40" r="10" style="fill:#ebebeb;"/>
                <path d="M30,30c5.519,-0 10,4.481 10,10c0,5.519 -4.481,10 -10,10c-5.519,-0 -10,-4.481 -10,-10c0,-5.519 4.481,-10 10,-10Zm0,1.8c4.526,-0 8.2,3.674 8.2,8.2c0,4.526 -3.674,8.2 -8.2,8.2c-4.526,0 -8.2,-3.674 -8.2,-8.2c-0,-4.526 3.674,-8.2 8.2,-8.2Z"/>
                <path d="M30.784,35.24l-3.878,0c-0.364,0 -0.49,0.126 -0.49,0.476l0,8.988c0,0.35 0.126,0.476 0.49,0.476l3.962,0c1.834,0 3.15,-0.966 3.15,-2.73c0,-1.26 -0.518,-2.1 -1.428,-2.422l0,-0.056c0.728,-0.434 1.064,-1.106 1.064,-2.114c0,-1.68 -1.064,-2.618 -2.87,-2.618Zm1.078,2.87c0,0.84 -0.462,1.232 -1.288,1.232l-2.394,0l0,-2.464l2.394,0c0.84,0 1.288,0.406 1.288,1.232Zm0.294,4.144c0,0.854 -0.462,1.288 -1.33,1.288l-2.646,0l0,-2.604l2.646,0c0.868,0 1.33,0.462 1.33,1.316Z" style="fill-rule:nonzero;"/>
            </g>
            <g id="Node1" serif:id="Node">
                <circle cx="10" cy="70" r="10" style="fill:#ebebeb;"/>
                <path d="M10,60c5.519,-0 10,4.481 10,10c0,5.519 -4.481,10 -10,10c-5.519,-0 -10,-4.481 -10,-10c0,-5.519 4.481,-10 10,-10Zm0,1.8c4.526,-0 8.2,3.674 8.2,8.2c0,4.526 -3.674,8.2 -8.2,8.2c-4.526,0 -8.2,-3.674 -8.2,-8.2c-0,-4.526 3.674,-8.2 8.2,-8.2Z"/>
                <path d="M9.93,65.24l-3.136,0c-0.364,0 -0.49,0.126 -0.49,0.476l-0,8.988c-0,0.35 0.126,0.476 0.49,0.476l3.136,0c2.604,0 4.06,-1.414 4.06,-3.696l-0,-2.548c-0,-2.282 -1.456,-3.696 -4.06,-3.696Zm2.31,3.682l-0,2.576c-0,1.33 -0.826,2.044 -2.296,2.044l-1.876,0l-0,-6.664l1.876,0c1.47,0 2.296,0.714 2.296,2.044Z" style="fill-rule:nonzero;"/>
            </g>
            <g id="Node2" serif:id="Node">
                <circle cx="50" cy="70" r="10" style="fill:#ebebeb;"/>
                <path d="M50,60c5.519,-0 10,4.481 10,10c0,5.519 -4.481,10 -10,10c-5.519,-0 -10,-4.481 -10,-10c0,-5.519 4.481,-10 10,-10Zm0,1.8c4.526,-0 8.2,3.674 8.2,8.2c0,4.526 -3.674,8.2 -8.2,8.2c-4.526,0 -8.2,-3.674 -8.2,-8.2c-0,-4.526 3.674,-8.2 8.2,-8.2Z"/>
                <path d="M52.961,65.24l-5.558,0c-0.364,0 -0.49,0.126 -0.49,0.476l0,8.988c0,0.35 0.126,0.476 0.49,0.476l5.712,0c0.364,0 0.476,-0.126 0.476,-0.476l0,-0.686c0,-0.35 -0.112,-0.476 -0.476,-0.476l-4.438,0l0,-2.576l3.626,0c0.35,0 0.476,-0.126 0.476,-0.476l0,-0.686c0,-0.35 -0.126,-0.476 -0.476,-0.476l-3.626,0l0,-2.45l4.284,0c0.364,0 0.49,-0.126 0.49,-0.476l0,-0.686c0,-0.35 -0.126,-0.476 -0.49,-0.476Z" style="fill-rule:nonzero;"/>
            </g>
            <g id="Node3" serif:id="Node">
                <circle cx="120" cy="40" r="10" style="fill:#ebebeb;"/>
                <path d="M120,30c5.519,-0 10,4.481 10,10c0,5.519 -4.481,10 -10,10c-5.519,-0 -10,-4.481 -10,-10c0,-5.519 4.481,-10 10,-10Zm0,1.8c4.526,-0 8.2,3.674 8.2,8.2c0,4.526 -3.674,8.2 -8.2,8.2c-4.526,0 -8.2,-3.674 -8.2,-8.2c-0,-4.526 3.674,-8.2 8.2,-8.2Z"/>
                <path d="M116.206,38.67l-0,3.066c-0,2.254 1.428,3.654 4.004,3.654c2.072,0 3.29,-0.84 3.822,-2.352c0.112,-0.336 0.028,-0.49 -0.308,-0.616l-0.756,-0.266c-0.336,-0.126 -0.476,-0.056 -0.616,0.294c-0.308,0.854 -0.966,1.302 -2.142,1.302c-1.442,0 -2.24,-0.714 -2.24,-2.002l-0,-3.094c-0,-1.288 0.798,-1.988 2.24,-1.988c1.162,0 1.834,0.434 2.142,1.288c0.126,0.35 0.266,0.392 0.602,0.294l0.77,-0.266c0.336,-0.126 0.42,-0.28 0.294,-0.616c-0.532,-1.512 -1.75,-2.338 -3.808,-2.338c-2.576,0 -4.004,1.4 -4.004,3.64Z" style="fill-rule:nonzero;"/>
            </g>
            <g id="Node4" serif:id="Node">
                <circle cx="75" cy="10" r="10" style="fill:#ebebeb;"/>
                <path d="M75,-0c5.519,-0 10,4.481 10,10c0,5.519 -4.481,10 -10,10c-5.519,-0 -10,-4.481 -10,-10c0,-5.519 4.481,-10 10,-10Zm0,1.8c4.526,-0 8.2,3.674 8.2,8.2c0,4.526 -3.674,8.2 -8.2,8.2c-4.526,0 -8.2,-3.674 -8.2,-8.2c-0,-4.526 3.674,-8.2 8.2,-8.2Z"/>
                <path d="M79.452,14.718l-3.5,-9.114c-0.112,-0.308 -0.266,-0.378 -0.588,-0.378l-0.742,0c-0.322,0 -0.462,0.07 -0.588,0.392l-3.5,9.1c-0.112,0.308 -0.028,0.462 0.322,0.462l0.644,0c0.588,0 0.756,-0.084 0.868,-0.42l0.658,-1.806l3.864,0l0.644,1.806c0.112,0.336 0.28,0.42 0.868,0.42l0.728,0c0.35,0 0.434,-0.154 0.322,-0.462Zm-4.116,-6.16l1.064,2.954l-2.884,0l1.078,-2.968c0.294,-0.854 0.308,-1.68 0.308,-1.694l0.098,0c0.014,0.014 0.042,0.84 0.336,1.708Z" style="fill-rule:nonzero;"/>
            </g>
            <g id="Node5" serif:id="Node">
                <circle cx="100" cy="70" r="10" style="fill:#ebebeb;"/>
                <path d="M100,60c5.519,-0 10,4.481 10,10c0,5.519 -4.481,10 -10,10c-5.519,-0 -10,-4.481 -10,-10c0,-5.519 4.481,-10 10,-10Zm0,1.8c4.526,-0 8.2,3.674 8.2,8.2c0,4.526 -3.674,8.2 -8.2,8.2c-4.526,0 -8.2,-3.674 -8.2,-8.2c-0,-4.526 3.674,-8.2 8.2,-8.2Z"/>
                <path d="M103.066,65.24l-5.558,0c-0.364,0 -0.49,0.126 -0.49,0.476l-0,8.988c-0,0.35 0.126,0.476 0.49,0.476l0.798,0c0.35,0 0.476,-0.126 0.476,-0.476l-0,-3.612l3.598,0c0.364,0 0.49,-0.112 0.49,-0.476l-0,-0.686c-0,-0.35 -0.126,-0.476 -0.49,-0.476l-3.598,0l-0,-2.576l4.284,0c0.364,0 0.49,-0.126 0.49,-0.476l-0,-0.686c-0,-0.35 -0.126,-0.476 -0.49,-0.476Z" style="fill-rule:nonzero;"/>
            </g>
            <g id="Node6" serif:id="Node">
                <circle cx="140" cy="70" r="10" style="fill:#ebebeb;"/>
                <path d="M140,60c5.519,-0 10,4.481 10,10c0,5.519 -4.481,10 -10,10c-5.519,-0 -10,-4.481 -10,-10c0,-5.519 4.481,-10 10,-10Zm0,1.8c4.526,-0 8.2,3.674 8.2,8.2c0,4.526 -3.674,8.2 -8.2,8.2c-4.526,0 -8.2,-3.674 -8.2,-8.2c-0,-4.526 3.674,-8.2 8.2,-8.2Z"/>
                <path d="M143.57,69.734l-3.36,0c-0.35,0 -0.476,0.112 -0.476,0.476l0,0.672c0,0.364 0.126,0.49 0.476,0.49l2.114,0l0,0.728c0,0.952 -0.84,1.652 -2.268,1.652c-1.442,0 -2.24,-0.7 -2.24,-2.002l0,-3.094c0,-1.288 0.784,-1.988 2.24,-1.988c1.162,0 1.834,0.434 2.142,1.288c0.126,0.35 0.266,0.42 0.602,0.294l0.77,-0.266c0.336,-0.126 0.42,-0.28 0.294,-0.616c-0.532,-1.512 -1.75,-2.338 -3.808,-2.338c-2.576,0 -4.004,1.4 -4.004,3.64l-0,3.066c-0,2.254 1.428,3.654 4.004,3.654c2.562,0 3.99,-1.4 3.99,-3.304l-0,-1.876c-0,-0.364 -0.112,-0.476 -0.476,-0.476Z" style="fill-rule:nonzero;"/>
            </g>
            <g id="Node7" serif:id="Node">
                <circle cx="100" cy="100" r="10" style="fill:#ebebeb;"/>
                <path d="M100,90c5.519,0 10,4.481 10,10c0,5.519 -4.481,10 -10,10c-5.519,0 -10,-4.481 -10,-10c0,-5.519 4.481,-10 10,-10Zm0,1.8c4.526,-0 8.2,3.674 8.2,8.2c0,4.526 -3.674,8.2 -8.2,8.2c-4.526,0 -8.2,-3.674 -8.2,-8.2c-0,-4.526 3.674,-8.2 8.2,-8.2Z"/>
                <path d="M103.346,95.24l-0.798,0c-0.35,0 -0.476,0.126 -0.476,0.476l0,3.612l-4.144,0l0,-3.612c0,-0.35 -0.126,-0.476 -0.476,-0.476l-0.798,0c-0.364,0 -0.49,0.126 -0.49,0.476l0,8.988c0,0.35 0.126,0.476 0.49,0.476l0.798,0c0.35,0 0.476,-0.126 0.476,-0.476l0,-3.738l4.144,0l0,3.738c0,0.35 0.126,0.476 0.476,0.476l0.798,0c0.364,0 0.49,-0.126 0.49,-0.476l0,-8.988c0,-0.35 -0.126,-0.476 -0.49,-0.476Z" style="fill-rule:nonzero;"/>
            </g>
            <g id="Node8" serif:id="Node">
                <circle cx="80" cy="130" r="10" style="fill:#ebebeb;"/>
                <path d="M80,120c5.519,-0 10,4.481 10,10c0,5.519 -4.481,10 -10,10c-5.519,-0 -10,-4.481 -10,-10c0,-5.519 4.481,-10 10,-10Zm0,1.8c4.526,-0 8.2,3.674 8.2,8.2c0,4.526 -3.674,8.2 -8.2,8.2c-4.526,0 -8.2,-3.674 -8.2,-8.2c-0,-4.526 3.674,-8.2 8.2,-8.2Z"/>
                <path d="M79.118,125.716l0,8.988c0,0.35 0.126,0.476 0.49,0.476l0.798,0c0.35,0 0.476,-0.126 0.476,-0.476l0,-8.988c0,-0.35 -0.126,-0.476 -0.476,-0.476l-0.798,0c-0.364,0 -0.49,0.126 -0.49,0.476Z" style="fill-rule:nonzero;"/>
            </g>
            <g id="Node9" serif:id="Node">
                <circle cx="120" cy="130" r="10" style="fill:#ebebeb;"/>
                <path d="M120,120c5.519,-0 10,4.481 10,10c0,5.519 -4.481,10 -10,10c-5.519,-0 -10,-4.481 -10,-10c0,-5.519 4.481,-10 10,-10Zm0,1.8c4.526,-0 8.2,3.674 8.2,8.2c0,4.526 -3.674,8.2 -8.2,8.2c-4.526,0 -8.2,-3.674 -8.2,-8.2c-0,-4.526 3.674,-8.2 8.2,-8.2Z"/>
                <path d="M122.681,125.24l-0.826,0c-0.364,0 -0.476,0.126 -0.476,0.462l0,6.216c0,1.204 -0.602,1.834 -1.806,1.834c-0.966,0 -1.442,-0.448 -1.722,-1.288c-0.14,-0.35 -0.28,-0.42 -0.602,-0.294l-0.77,0.266c-0.336,0.126 -0.42,0.28 -0.294,0.616c0.476,1.484 1.54,2.338 3.388,2.338c2.338,0 3.57,-1.33 3.57,-3.486l-0,-6.202c-0,-0.336 -0.126,-0.462 -0.462,-0.462Z" style="fill-rule:nonzero;"/>
            </g>
            <g id="Node10" serif:id="Node">
                <circle cx="60" cy="160" r="10" style="fill:#ebebeb;"/>
                <path d="M60,150c5.519,-0 10,4.481 10,10c0,5.519 -4.481,10 -10,10c-5.519,-0 -10,-4.481 -10,-10c0,-5.519 4.481,-10 10,-10Zm0,1.8c4.526,-0 8.2,3.674 8.2,8.2c0,4.526 -3.674,8.2 -8.2,8.2c-4.526,0 -8.2,-3.674 -8.2,-8.2c-0,-4.526 3.674,-8.2 8.2,-8.2Z"/>
                <path d="M64.137,164.704l-1.778,-3.416c-0.406,-0.784 -0.854,-1.302 -1.512,-1.596l3.122,-3.99c0.182,-0.238 0.098,-0.462 -0.224,-0.462l-0.896,-0c-0.56,-0 -0.7,0.056 -0.952,0.392l-2.814,3.71l-0.742,-0l-0,-3.626c-0,-0.35 -0.126,-0.476 -0.476,-0.476l-0.798,-0c-0.364,-0 -0.49,0.126 -0.49,0.476l-0,8.988c-0,0.35 0.126,0.476 0.49,0.476l0.798,-0c0.35,-0 0.476,-0.126 0.476,-0.476l-0,-3.766l0.714,-0c0.966,-0 1.288,0.224 1.666,0.98l1.414,2.842c0.168,0.35 0.35,0.42 0.952,0.42l0.812,-0c0.35,-0 0.378,-0.21 0.238,-0.476Z" style="fill-rule:nonzero;"/>
            </g>
            <g id="Node11" serif:id="Node">
                <circle cx="100" cy="160" r="10" style="fill:#ebebeb;"/>
                <path d="M100,150c5.519,-0 10,4.481 10,10c0,5.519 -4.481,10 -10,10c-5.519,-0 -10,-4.481 -10,-10c0,-5.519 4.481,-10 10,-10Zm0,1.8c4.526,-0 8.2,3.674 8.2,8.2c0,4.526 -3.674,8.2 -8.2,8.2c-4.526,0 -8.2,-3.674 -8.2,-8.2c-0,-4.526 3.674,-8.2 8.2,-8.2Z"/>
                <path d="M98.558,155.24l-0.798,-0c-0.364,-0 -0.49,0.126 -0.49,0.476l0,8.988c0,0.35 0.126,0.476 0.49,0.476l5.292,-0c0.35,-0 0.476,-0.126 0.476,-0.476l0,-0.686c0,-0.35 -0.126,-0.476 -0.476,-0.476l-4.018,-0l0,-7.826c0,-0.35 -0.126,-0.476 -0.476,-0.476Z" style="fill-rule:nonzero;"/>
            </g>
        </g>
    </g>
</svg>
