<?xml version="1.0" encoding="UTF-8" standalone="no"?>
<!DOCTYPE svg PUBLIC "-//W3C//DTD SVG 1.1//EN" "http://www.w3.org/Graphics/SVG/1.1/DTD/svg11.dtd">
<svg width="100%" height="100%" viewBox="0 0 400 200" version="1.1" xmlns="http://www.w3.org/2000/svg" xmlns:xlink="http://www.w3.org/1999/xlink" xml:space="preserve" xmlns:serif="http://www.serif.com/" style="fill-rule:evenodd;clip-rule:evenodd;stroke-linecap:round;stroke-linejoin:round;stroke-miterlimit:1.5;">
    <g id="matrix_06">
    </g>
    <g id="matrix_05">
    </g>
    <g id="matrix_04">
    </g>
    <g id="matrix_03">
    </g>
    <g id="matrix_02">
    </g>
    <g id="matrix_01">
    </g>
    <g id="tree_10">
        <g id="edges">
        </g>
        <g id="nodes">
            <g id="Node">
            </g>
            <g id="Node1" serif:id="Node">
            </g>
            <g id="Node2" serif:id="Node">
            </g>
            <g id="Node3" serif:id="Node">
            </g>
            <g id="Node4" serif:id="Node">
            </g>
            <g id="Node5" serif:id="Node">
            </g>
            <g id="Node6" serif:id="Node">
            </g>
            <g id="Node7" serif:id="Node">
            </g>
            <g id="Node8" serif:id="Node">
            </g>
            <g id="Node9" serif:id="Node">
            </g>
            <g id="Node10" serif:id="Node">
            </g>
            <g id="Node11" serif:id="Node">
            </g>
            <g id="Node12" serif:id="Node">
            </g>
            <g id="Node13" serif:id="Node">
            </g>
            <g id="Node14" serif:id="Node">
            </g>
            <g id="Node15" serif:id="Node">
            </g>
            <g id="Node16" serif:id="Node">
            </g>
            <g id="Node17" serif:id="Node">
            </g>
            <g id="Node18" serif:id="Node">
            </g>
            <g id="Node19" serif:id="Node">
            </g>
        </g>
    </g>
    <g id="tree_09">
        <g id="edges1" serif:id="edges">
        </g>
        <g id="nodes1" serif:id="nodes">
            <g id="Node20" serif:id="Node">
            </g>
            <g id="Node21" serif:id="Node">
            </g>
            <g id="Node22" serif:id="Node">
            </g>
            <g id="Node23" serif:id="Node">
            </g>
            <g id="Node24" serif:id="Node">
            </g>
        </g>
    </g>
    <g id="tree_08">
        <g id="edges2" serif:id="edges">
        </g>
        <g id="nodes2" serif:id="nodes">
            <g id="GreenNode">
            </g>
            <g id="Node25" serif:id="Node">
            </g>
            <g id="Node26" serif:id="Node">
            </g>
            <g id="Node27" serif:id="Node">
            </g>
            <g id="Node28" serif:id="Node">
            </g>
            <g id="Node29" serif:id="Node">
            </g>
            <g id="Node30" serif:id="Node">
            </g>
            <g id="Node31" serif:id="Node">
            </g>
            <g id="Node32" serif:id="Node">
            </g>
            <g id="Node33" serif:id="Node">
            </g>
            <g id="Node34" serif:id="Node">
            </g>
            <g id="Node35" serif:id="Node">
            </g>
            <g id="Node36" serif:id="Node">
            </g>
            <g id="Node37" serif:id="Node">
            </g>
            <g id="Node38" serif:id="Node">
            </g>
            <g id="Node39" serif:id="Node">
            </g>
            <g id="Node40" serif:id="Node">
            </g>
            <g id="Node41" serif:id="Node">
            </g>
        </g>
    </g>
    <g id="tree_07">
        <g id="edges3" serif:id="edges">
        </g>
        <g id="nodes3" serif:id="nodes">
            <g id="Node42" serif:id="Node">
            </g>
            <g id="Node43" serif:id="Node">
            </g>
            <g id="Node44" serif:id="Node">
            </g>
            <g id="Node45" serif:id="Node">
            </g>
            <g id="Node46" serif:id="Node">
            </g>
            <g id="Node47" serif:id="Node">
            </g>
            <g id="Node48" serif:id="Node">
            </g>
            <g id="Node49" serif:id="Node">
            </g>
            <g id="Node50" serif:id="Node">
            </g>
            <g id="Node51" serif:id="Node">
            </g>
            <g id="Node52" serif:id="Node">
            </g>
            <g id="Node53" serif:id="Node">
            </g>
            <g id="Node54" serif:id="Node">
            </g>
            <g id="Node55" serif:id="Node">
            </g>
            <g id="Node56" serif:id="Node">
            </g>
            <g id="Node57" serif:id="Node">
            </g>
        </g>
    </g>
    <g id="tree_06">
        <g id="edges4" serif:id="edges">
            <path d="M99.498,77.768l-6.178,1.685l3.931,-5.054l2.247,3.369Z"/>
            <path d="M130,55c0,0 -23.1,15.4 -32.636,21.758" style="fill:none;stroke:#000;stroke-width:1.8px;"/>
            <path d="M75.601,102.749l-5.054,3.931l1.685,-6.178l3.369,2.247Z"/>
            <path d="M85,85c0,0 -7.575,11.363 -11.758,17.636" style="fill:none;stroke:#000;stroke-width:1.8px;"/>
            <path d="M94.399,102.749l5.054,3.931l-1.685,-6.178l-3.369,2.247Z"/>
            <path d="M96.758,102.636c-4.183,-6.273 -11.758,-17.636 -11.758,-17.636" style="fill:none;stroke:#000;stroke-width:1.8px;"/>
            <path d="M162.232,100.502l-1.685,6.178l5.054,-3.931l-3.369,-2.247Z"/>
            <path d="M163.242,102.636c4.183,-6.273 11.758,-17.636 11.758,-17.636" style="fill:none;stroke:#000;stroke-width:1.8px;"/>
            <path d="M187.768,100.502l1.685,6.178l-5.054,-3.931l3.369,-2.247Z"/>
            <path d="M175,85c-0,0 7.575,11.363 11.758,17.636" style="fill:none;stroke:#000;stroke-width:1.8px;"/>
            <path d="M142.232,160.502l-1.685,6.178l5.054,-3.931l-3.369,-2.247Z"/>
            <path d="M143.242,162.636c4.183,-6.273 11.758,-17.636 11.758,-17.636" style="fill:none;stroke:#000;stroke-width:1.8px;"/>
            <path d="M167.768,160.502l1.685,6.178l-5.054,-3.931l3.369,-2.247Z"/>
            <path d="M155,145c-0,0 7.575,11.363 11.758,17.636" style="fill:none;stroke:#000;stroke-width:1.8px;"/>
            <path d="M157.025,128.925l-2.025,6.075l-2.025,-6.075l4.05,0Z"/>
            <path d="M155,115l0,15.14" style="fill:none;stroke:#000;stroke-width:1.8px;"/>
            <path d="M285.624,47.421l5.072,3.908l-6.403,-0.083l1.331,-3.825Z"/>
            <path d="M215,25c-0,0 54.709,19.029 71.106,24.733" style="fill:none;stroke:#000;stroke-width:1.8px;"/>
            <path d="M324.114,73.002l3.295,5.491l-5.931,-2.416l2.636,-3.075Z"/>
            <path d="M300,55c-0,0 16.24,13.92 23.719,20.33" style="fill:none;stroke:#000;stroke-width:1.8px;"/>
            <path d="M337.025,98.925l-2.025,6.075l-2.025,-6.075l4.05,0Z"/>
            <path d="M335,85l0,15.14" style="fill:none;stroke:#000;stroke-width:1.8px;"/>
            <path d="M337.025,128.925l-2.025,6.075l-2.025,-6.075l4.05,0Z"/>
            <path d="M335,121l0,9.14" style="fill:none;stroke:#000;stroke-width:1.8px;"/>
            <path d="M252.232,100.502l-1.685,6.178l5.054,-3.931l-3.369,-2.247Z"/>
            <path d="M253.242,102.636c3.386,-5.079 8.758,-13.136 8.758,-13.136" style="fill:none;stroke:#000;stroke-width:1.8px;"/>
            <path d="M277.768,100.502l1.685,6.178l-5.054,-3.931l3.369,-2.247Z"/>
            <path d="M265,85c0,0 7.575,11.363 11.758,17.636" style="fill:none;stroke:#000;stroke-width:1.8px;"/>
            <path d="M275.886,73.002l-3.295,5.491l5.931,-2.416l-2.636,-3.075Z"/>
            <path d="M276.281,75.33c7.479,-6.41 23.719,-20.33 23.719,-20.33" style="fill:none;stroke:#000;stroke-width:1.8px;"/>
            <path d="M160.502,77.768l6.178,1.685l-3.931,-5.054l-2.247,3.369Z"/>
            <path d="M162.636,76.758c-9.536,-6.358 -32.636,-21.758 -32.636,-21.758" style="fill:none;stroke:#000;stroke-width:1.8px;"/>
            <path d="M145.036,47.911l-5.036,3.955l6.402,-0.143l-1.366,-3.812Z"/>
            <path d="M144.575,50.227c16.28,-5.832 70.425,-25.227 70.425,-25.227" style="fill:none;stroke:#000;stroke-width:1.8px;"/>
        </g>
        <g id="nodes4" serif:id="nodes">
            <g id="BlueNode">
                <circle cx="245" cy="115" r="10" style="fill:#65baff;"/>
                <path d="M245,105c5.519,-0 10,4.481 10,10c0,5.519 -4.481,10 -10,10c-5.519,-0 -10,-4.481 -10,-10c0,-5.519 4.481,-10 10,-10Zm0,1.8c4.526,-0 8.2,3.674 8.2,8.2c0,4.526 -3.674,8.2 -8.2,8.2c-4.526,0 -8.2,-3.674 -8.2,-8.2c-0,-4.526 3.674,-8.2 8.2,-8.2Z"/>
                <path d="M241.003,113.684l0,3.052c0,2.254 1.428,3.654 4.004,3.654c2.562,0 3.99,-1.4 3.99,-3.654l0,-3.052c0,-2.254 -1.428,-3.654 -3.99,-3.654c-2.576,0 -4.004,1.4 -4.004,3.654Zm6.244,-0.014l0,3.08c0,1.302 -0.812,2.002 -2.24,2.002c-1.442,0 -2.24,-0.7 -2.24,-2.002l0,-3.08c0,-1.302 0.798,-2.002 2.24,-2.002c1.428,0 2.24,0.7 2.24,2.002Z" style="fill-rule:nonzero;"/>
            </g>
            <g id="BlueNode1" serif:id="BlueNode">
                <circle cx="285" cy="115" r="10" style="fill:#65baff;"/>
                <path d="M285,105c5.519,0 10,4.481 10,10c0,5.519 -4.481,10 -10,10c-5.519,0 -10,-4.481 -10,-10c0,-5.519 4.481,-10 10,-10Zm0,1.8c4.526,-0 8.2,3.674 8.2,8.2c0,4.526 -3.674,8.2 -8.2,8.2c-4.526,0 -8.2,-3.674 -8.2,-8.2c-0,-4.526 3.674,-8.2 8.2,-8.2Z"/>
                <path d="M285.742,110.24l-3.71,0c-0.364,0 -0.49,0.126 -0.49,0.476l0,8.988c0,0.35 0.126,0.476 0.49,0.476l0.798,0c0.35,0 0.476,-0.126 0.476,-0.476l0,-2.982l2.436,0c2.03,0 3.304,-1.204 3.304,-3.234c0,-2.03 -1.288,-3.248 -3.304,-3.248Zm-0.168,4.844l-2.268,0l0,-3.206l2.268,0c1.022,0 1.624,0.602 1.624,1.61c0,1.008 -0.602,1.596 -1.624,1.596Z" style="fill-rule:nonzero;"/>
            </g>
            <g id="BlueNode2" serif:id="BlueNode">
                <circle cx="335" cy="145" r="10" style="fill:#65baff;"/>
                <path d="M335,135c5.519,0 10,4.481 10,10c0,5.519 -4.481,10 -10,10c-5.519,0 -10,-4.481 -10,-10c0,-5.519 4.481,-10 10,-10Zm0,1.8c4.526,-0 8.2,3.674 8.2,8.2c0,4.526 -3.674,8.2 -8.2,8.2c-4.526,0 -8.2,-3.674 -8.2,-8.2c-0,-4.526 3.674,-8.2 8.2,-8.2Z"/>
                <path d="M335.763,140.24l-3.864,0c-0.364,0 -0.49,0.126 -0.49,0.476l-0,8.988c-0,0.35 0.126,0.476 0.49,0.476l0.798,0c0.35,0 0.476,-0.126 0.476,-0.476l-0,-3.304l1.036,0c0.966,0 1.302,0.21 1.666,0.98l1.176,2.38c0.168,0.35 0.35,0.42 0.952,0.42l0.812,0c0.35,0 0.378,-0.21 0.238,-0.476l-1.54,-2.954c-0.126,-0.252 -0.266,-0.448 -0.448,-0.602c1.162,-0.392 1.848,-1.372 1.848,-2.828c-0,-1.932 -1.204,-3.08 -3.15,-3.08Zm1.302,3.08c-0,0.938 -0.532,1.442 -1.47,1.442l-2.422,0l-0,-2.884l2.422,0c0.952,0 1.47,0.518 1.47,1.442Z" style="fill-rule:nonzero;"/>
            </g>
            <g id="BlueNode3" serif:id="BlueNode">
                <circle cx="335" cy="115" r="10" style="fill:#65baff;"/>
                <path d="M335,105c5.519,0 10,4.481 10,10c0,5.519 -4.481,10 -10,10c-5.519,0 -10,-4.481 -10,-10c0,-5.519 4.481,-10 10,-10Zm0,1.8c4.526,-0 8.2,3.674 8.2,8.2c0,4.526 -3.674,8.2 -8.2,8.2c-4.526,0 -8.2,-3.674 -8.2,-8.2c-0,-4.526 3.674,-8.2 8.2,-8.2Z"/>
                <path d="M339.039,120.026l-0.84,-0.98c0.462,-0.602 0.7,-1.386 0.7,-2.31l-0,-3.052c-0,-2.254 -1.428,-3.654 -3.99,-3.654c-2.576,0 -4.004,1.4 -4.004,3.654l-0,3.052c-0,2.254 1.428,3.654 4.004,3.654c0.756,0 1.428,-0.126 1.96,-0.378l0.91,1.078c0.224,0.266 0.406,0.28 0.672,0.056l0.532,-0.434c0.266,-0.238 0.28,-0.406 0.056,-0.686Zm-6.37,-3.276l-0,-3.08c-0,-1.302 0.798,-2.002 2.24,-2.002c1.428,0 2.24,0.7 2.24,2.002l-0,3.08c-0,1.302 -0.812,2.002 -2.24,2.002c-1.442,0 -2.24,-0.7 -2.24,-2.002Z" style="fill-rule:nonzero;"/>
            </g>
            <g id="BlueNode4" serif:id="BlueNode">
                <circle cx="265" cy="85" r="10" style="fill:#65baff;"/>
                <path d="M265,75c5.519,0 10,4.481 10,10c0,5.519 -4.481,10 -10,10c-5.519,0 -10,-4.481 -10,-10c0,-5.519 4.481,-10 10,-10Zm0,1.8c4.526,-0 8.2,3.674 8.2,8.2c0,4.526 -3.674,8.2 -8.2,8.2c-4.526,0 -8.2,-3.674 -8.2,-8.2c-0,-4.526 3.674,-8.2 8.2,-8.2Z"/>
                <path d="M269.221,80.24l-0.686,0c-0.378,0 -0.476,0.07 -0.644,0.378l-2.912,5.194l-2.912,-5.208c-0.154,-0.294 -0.28,-0.364 -0.672,-0.364l-0.616,0c-0.364,0 -0.49,0.126 -0.49,0.476l-0,8.988c-0,0.35 0.126,0.476 0.49,0.476l0.672,0c0.364,0 0.476,-0.126 0.476,-0.476l-0,-4.256c-0,-0.882 -0.07,-1.708 -0.294,-2.8l0.098,0c0.336,1.12 0.602,1.736 1.078,2.548l1.4,2.436c0.154,0.28 0.252,0.336 0.546,0.336l0.448,0c0.28,0 0.392,-0.084 0.546,-0.336l1.372,-2.422c0.448,-0.812 0.798,-1.512 1.148,-2.562l0.098,0c-0.238,1.078 -0.336,1.988 -0.336,2.786l-0,4.27c-0,0.35 0.112,0.476 0.476,0.476l0.714,0c0.364,0 0.476,-0.126 0.476,-0.476l-0,-8.988c-0,-0.35 -0.112,-0.476 -0.476,-0.476Z" style="fill-rule:nonzero;"/>
            </g>
            <g id="BlueNode5" serif:id="BlueNode">
                <circle cx="335" cy="85" r="10" style="fill:#65baff;"/>
                <path d="M335,75c5.519,-0 10,4.481 10,10c0,5.519 -4.481,10 -10,10c-5.519,-0 -10,-4.481 -10,-10c0,-5.519 4.481,-10 10,-10Zm0,1.8c4.526,-0 8.2,3.674 8.2,8.2c0,4.526 -3.674,8.2 -8.2,8.2c-4.526,0 -8.2,-3.674 -8.2,-8.2c-0,-4.526 3.674,-8.2 8.2,-8.2Z"/>
                <path d="M338.416,80.24l-0.742,0c-0.35,0 -0.476,0.126 -0.476,0.476l-0,4.34c-0,1.414 0.308,2.688 0.308,2.828l-0.084,0c-0.07,-0.112 -0.462,-1.316 -1.176,-2.38l-3.402,-5.04c-0.098,-0.14 -0.21,-0.224 -0.462,-0.224l-0.798,0c-0.364,0 -0.49,0.126 -0.49,0.476l-0,8.988c-0,0.35 0.126,0.476 0.49,0.476l0.742,0c0.35,0 0.476,-0.126 0.476,-0.476l-0,-4.396c-0,-1.33 -0.308,-2.674 -0.308,-2.786l0.084,0c0.056,0.084 0.49,1.372 1.148,2.352l3.43,5.068c0.112,0.182 0.224,0.238 0.462,0.238l0.798,0c0.364,0 0.476,-0.126 0.476,-0.476l-0,-8.988c-0,-0.35 -0.112,-0.476 -0.476,-0.476Z" style="fill-rule:nonzero;"/>
            </g>
            <g id="YellowNode">
                <circle cx="300" cy="55" r="10" style="fill:#fff266;"/>
                <path d="M300,45c5.519,0 10,4.481 10,10c0,5.519 -4.481,10 -10,10c-5.519,0 -10,-4.481 -10,-10c0,-5.519 4.481,-10 10,-10Zm0,1.8c4.526,-0 8.2,3.674 8.2,8.2c0,4.526 -3.674,8.2 -8.2,8.2c-4.526,0 -8.2,-3.674 -8.2,-8.2c-0,-4.526 3.674,-8.2 8.2,-8.2Z"/>
                <path d="M296.206,53.67l-0,3.066c-0,2.254 1.428,3.654 4.004,3.654c2.072,0 3.29,-0.84 3.822,-2.352c0.112,-0.336 0.028,-0.49 -0.308,-0.616l-0.756,-0.266c-0.336,-0.126 -0.476,-0.056 -0.616,0.294c-0.308,0.854 -0.966,1.302 -2.142,1.302c-1.442,0 -2.24,-0.714 -2.24,-2.002l-0,-3.094c-0,-1.288 0.798,-1.988 2.24,-1.988c1.162,0 1.834,0.434 2.142,1.288c0.126,0.35 0.266,0.392 0.602,0.294l0.77,-0.266c0.336,-0.126 0.42,-0.28 0.294,-0.616c-0.532,-1.512 -1.75,-2.338 -3.808,-2.338c-2.576,0 -4.004,1.4 -4.004,3.64Z" style="fill-rule:nonzero;"/>
            </g>
            <g id="Node58" serif:id="Node">
                <circle cx="85" cy="85" r="10" style="fill:#ebebeb;"/>
                <path d="M85,75c5.519,0 10,4.481 10,10c0,5.519 -4.481,10 -10,10c-5.519,-0 -10,-4.481 -10,-10c0,-5.519 4.481,-10 10,-10Zm0,1.8c4.526,-0 8.2,3.674 8.2,8.2c0,4.526 -3.674,8.2 -8.2,8.2c-4.526,0 -8.2,-3.674 -8.2,-8.2c-0,-4.526 3.674,-8.2 8.2,-8.2Z"/>
                <path d="M84.93,80.24l-3.136,0c-0.364,0 -0.49,0.126 -0.49,0.476l-0,8.988c-0,0.35 0.126,0.476 0.49,0.476l3.136,0c2.604,0 4.06,-1.414 4.06,-3.696l-0,-2.548c-0,-2.282 -1.456,-3.696 -4.06,-3.696Zm2.31,3.682l-0,2.576c-0,1.33 -0.826,2.044 -2.296,2.044l-1.876,0l-0,-6.664l1.876,0c1.47,0 2.296,0.714 2.296,2.044Z" style="fill-rule:nonzero;"/>
            </g>
            <g id="Node59" serif:id="Node">
                <circle cx="65" cy="115" r="10" style="fill:#ebebeb;"/>
                <path d="M65,105c5.519,0 10,4.481 10,10c0,5.519 -4.481,10 -10,10c-5.519,-0 -10,-4.481 -10,-10c0,-5.519 4.481,-10 10,-10Zm0,1.8c4.526,-0 8.2,3.674 8.2,8.2c0,4.526 -3.674,8.2 -8.2,8.2c-4.526,0 -8.2,-3.674 -8.2,-8.2c-0,-4.526 3.674,-8.2 8.2,-8.2Z"/>
                <path d="M68.066,110.24l-5.558,0c-0.364,0 -0.49,0.126 -0.49,0.476l0,8.988c0,0.35 0.126,0.476 0.49,0.476l0.798,0c0.35,0 0.476,-0.126 0.476,-0.476l0,-3.612l3.598,0c0.364,0 0.49,-0.112 0.49,-0.476l0,-0.686c0,-0.35 -0.126,-0.476 -0.49,-0.476l-3.598,0l0,-2.576l4.284,0c0.364,0 0.49,-0.126 0.49,-0.476l0,-0.686c0,-0.35 -0.126,-0.476 -0.49,-0.476Z" style="fill-rule:nonzero;"/>
            </g>
            <g id="Node60" serif:id="Node">
                <circle cx="105" cy="115" r="10" style="fill:#ebebeb;"/>
                <path d="M105,105c5.519,0 10,4.481 10,10c0,5.519 -4.481,10 -10,10c-5.519,-0 -10,-4.481 -10,-10c0,-5.519 4.481,-10 10,-10Zm0,1.8c4.526,-0 8.2,3.674 8.2,8.2c0,4.526 -3.674,8.2 -8.2,8.2c-4.526,0 -8.2,-3.674 -8.2,-8.2c-0,-4.526 3.674,-8.2 8.2,-8.2Z"/>
                <path d="M108.57,114.734l-3.36,0c-0.35,0 -0.476,0.112 -0.476,0.476l-0,0.672c-0,0.364 0.126,0.49 0.476,0.49l2.114,0l-0,0.728c-0,0.952 -0.84,1.652 -2.268,1.652c-1.442,0 -2.24,-0.7 -2.24,-2.002l-0,-3.094c-0,-1.288 0.784,-1.988 2.24,-1.988c1.162,0 1.834,0.434 2.142,1.288c0.126,0.35 0.266,0.42 0.602,0.294l0.77,-0.266c0.336,-0.126 0.42,-0.28 0.294,-0.616c-0.532,-1.512 -1.75,-2.338 -3.808,-2.338c-2.576,0 -4.004,1.4 -4.004,3.64l0,3.066c0,2.254 1.428,3.654 4.004,3.654c2.562,0 3.99,-1.4 3.99,-3.304l0,-1.876c0,-0.364 -0.112,-0.476 -0.476,-0.476Z" style="fill-rule:nonzero;"/>
            </g>
            <g id="Node61" serif:id="Node">
                <circle cx="195" cy="115" r="10" style="fill:#ebebeb;"/>
                <path d="M195,105c5.519,0 10,4.481 10,10c0,5.519 -4.481,10 -10,10c-5.519,-0 -10,-4.481 -10,-10c0,-5.519 4.481,-10 10,-10Zm0,1.8c4.526,-0 8.2,3.674 8.2,8.2c0,4.526 -3.674,8.2 -8.2,8.2c-4.526,0 -8.2,-3.674 -8.2,-8.2c-0,-4.526 3.674,-8.2 8.2,-8.2Z"/>
                <path d="M194.118,110.716l0,8.988c0,0.35 0.126,0.476 0.49,0.476l0.798,0c0.35,0 0.476,-0.126 0.476,-0.476l0,-8.988c0,-0.35 -0.126,-0.476 -0.476,-0.476l-0.798,0c-0.364,0 -0.49,0.126 -0.49,0.476Z" style="fill-rule:nonzero;"/>
            </g>
            <g id="Node62" serif:id="Node">
                <circle cx="135" cy="175" r="10" style="fill:#ebebeb;"/>
                <path d="M135,165c5.519,0 10,4.481 10,10c0,5.519 -4.481,10 -10,10c-5.519,0 -10,-4.481 -10,-10c0,-5.519 4.481,-10 10,-10Zm0,1.8c4.526,-0 8.2,3.674 8.2,8.2c0,4.526 -3.674,8.2 -8.2,8.2c-4.526,0 -8.2,-3.674 -8.2,-8.2c-0,-4.526 3.674,-8.2 8.2,-8.2Z"/>
                <path d="M139.137,179.704l-1.778,-3.416c-0.406,-0.784 -0.854,-1.302 -1.512,-1.596l3.122,-3.99c0.182,-0.238 0.098,-0.462 -0.224,-0.462l-0.896,0c-0.56,0 -0.7,0.056 -0.952,0.392l-2.814,3.71l-0.742,0l0,-3.626c0,-0.35 -0.126,-0.476 -0.476,-0.476l-0.798,0c-0.364,0 -0.49,0.126 -0.49,0.476l0,8.988c0,0.35 0.126,0.476 0.49,0.476l0.798,0c0.35,0 0.476,-0.126 0.476,-0.476l0,-3.766l0.714,0c0.966,0 1.288,0.224 1.666,0.98l1.414,2.842c0.168,0.35 0.35,0.42 0.952,0.42l0.812,0c0.35,0 0.378,-0.21 0.238,-0.476Z" style="fill-rule:nonzero;"/>
            </g>
            <g id="Node63" serif:id="Node">
                <circle cx="175" cy="175" r="10" style="fill:#ebebeb;"/>
                <path d="M175,165c5.519,0 10,4.481 10,10c0,5.519 -4.481,10 -10,10c-5.519,0 -10,-4.481 -10,-10c0,-5.519 4.481,-10 10,-10Zm0,1.8c4.526,-0 8.2,3.674 8.2,8.2c0,4.526 -3.674,8.2 -8.2,8.2c-4.526,0 -8.2,-3.674 -8.2,-8.2c-0,-4.526 3.674,-8.2 8.2,-8.2Z"/>
                <path d="M173.558,170.24l-0.798,0c-0.364,0 -0.49,0.126 -0.49,0.476l0,8.988c0,0.35 0.126,0.476 0.49,0.476l5.292,0c0.35,0 0.476,-0.126 0.476,-0.476l-0,-0.686c-0,-0.35 -0.126,-0.476 -0.476,-0.476l-4.018,0l-0,-7.826c-0,-0.35 -0.126,-0.476 -0.476,-0.476Z" style="fill-rule:nonzero;"/>
            </g>
            <g id="Node64" serif:id="Node">
                <circle cx="175" cy="85" r="10" style="fill:#ebebeb;"/>
                <path d="M175,75c5.519,0 10,4.481 10,10c0,5.519 -4.481,10 -10,10c-5.519,0 -10,-4.481 -10,-10c0,-5.519 4.481,-10 10,-10Zm0,1.8c4.526,-0 8.2,3.674 8.2,8.2c0,4.526 -3.674,8.2 -8.2,8.2c-4.526,0 -8.2,-3.674 -8.2,-8.2c-0,-4.526 3.674,-8.2 8.2,-8.2Z"/>
                <path d="M177.961,80.24l-5.558,0c-0.364,0 -0.49,0.126 -0.49,0.476l0,8.988c0,0.35 0.126,0.476 0.49,0.476l5.712,0c0.364,0 0.476,-0.126 0.476,-0.476l0,-0.686c0,-0.35 -0.112,-0.476 -0.476,-0.476l-4.438,0l-0,-2.576l3.626,0c0.35,0 0.476,-0.126 0.476,-0.476l-0,-0.686c-0,-0.35 -0.126,-0.476 -0.476,-0.476l-3.626,0l-0,-2.45l4.284,0c0.364,0 0.49,-0.126 0.49,-0.476l-0,-0.686c-0,-0.35 -0.126,-0.476 -0.49,-0.476Z" style="fill-rule:nonzero;"/>
            </g>
            <g id="Node65" serif:id="Node">
                <circle cx="130" cy="55" r="10" style="fill:#ebebeb;"/>
                <path d="M130,45c5.519,0 10,4.481 10,10c0,5.519 -4.481,10 -10,10c-5.519,0 -10,-4.481 -10,-10c0,-5.519 4.481,-10 10,-10Zm0,1.8c4.526,-0 8.2,3.674 8.2,8.2c0,4.526 -3.674,8.2 -8.2,8.2c-4.526,0 -8.2,-3.674 -8.2,-8.2c-0,-4.526 3.674,-8.2 8.2,-8.2Z"/>
                <path d="M130.784,50.24l-3.878,0c-0.364,0 -0.49,0.126 -0.49,0.476l0,8.988c0,0.35 0.126,0.476 0.49,0.476l3.962,0c1.834,0 3.15,-0.966 3.15,-2.73c0,-1.26 -0.518,-2.1 -1.428,-2.422l0,-0.056c0.728,-0.434 1.064,-1.106 1.064,-2.114c0,-1.68 -1.064,-2.618 -2.87,-2.618Zm1.078,2.87c0,0.84 -0.462,1.232 -1.288,1.232l-2.394,0l0,-2.464l2.394,0c0.84,0 1.288,0.406 1.288,1.232Zm0.294,4.144c0,0.854 -0.462,1.288 -1.33,1.288l-2.646,0l0,-2.604l2.646,0c0.868,0 1.33,0.462 1.33,1.316Z" style="fill-rule:nonzero;"/>
            </g>
            <g id="Node66" serif:id="Node">
                <circle cx="155" cy="115" r="10" style="fill:#ebebeb;"/>
                <path d="M155,105c5.519,0 10,4.481 10,10c0,5.519 -4.481,10 -10,10c-5.519,0 -10,-4.481 -10,-10c0,-5.519 4.481,-10 10,-10Zm0,1.8c4.526,-0 8.2,3.674 8.2,8.2c0,4.526 -3.674,8.2 -8.2,8.2c-4.526,0 -8.2,-3.674 -8.2,-8.2c-0,-4.526 3.674,-8.2 8.2,-8.2Z"/>
                <path d="M158.346,110.24l-0.798,0c-0.35,0 -0.476,0.126 -0.476,0.476l-0,3.612l-4.144,0l-0,-3.612c-0,-0.35 -0.126,-0.476 -0.476,-0.476l-0.798,0c-0.364,0 -0.49,0.126 -0.49,0.476l0,8.988c0,0.35 0.126,0.476 0.49,0.476l0.798,0c0.35,0 0.476,-0.126 0.476,-0.476l-0,-3.738l4.144,0l-0,3.738c-0,0.35 0.126,0.476 0.476,0.476l0.798,0c0.364,0 0.49,-0.126 0.49,-0.476l-0,-8.988c-0,-0.35 -0.126,-0.476 -0.49,-0.476Z" style="fill-rule:nonzero;"/>
            </g>
            <g id="Node67" serif:id="Node">
                <circle cx="155" cy="145" r="10" style="fill:#ebebeb;"/>
                <path d="M155,135c5.519,0 10,4.481 10,10c0,5.519 -4.481,10 -10,10c-5.519,0 -10,-4.481 -10,-10c0,-5.519 4.481,-10 10,-10Zm0,1.8c4.526,-0 8.2,3.674 8.2,8.2c0,4.526 -3.674,8.2 -8.2,8.2c-4.526,0 -8.2,-3.674 -8.2,-8.2c-0,-4.526 3.674,-8.2 8.2,-8.2Z"/>
                <path d="M157.681,140.24l-0.826,0c-0.364,0 -0.476,0.126 -0.476,0.462l0,6.216c0,1.204 -0.602,1.834 -1.806,1.834c-0.966,0 -1.442,-0.448 -1.722,-1.288c-0.14,-0.35 -0.28,-0.42 -0.602,-0.294l-0.77,0.266c-0.336,0.126 -0.42,0.28 -0.294,0.616c0.476,1.484 1.54,2.338 3.388,2.338c2.338,0 3.57,-1.33 3.57,-3.486l0,-6.202c0,-0.336 -0.126,-0.462 -0.462,-0.462Z" style="fill-rule:nonzero;"/>
            </g>
            <g id="Node68" serif:id="Node">
                <circle cx="215" cy="25" r="10" style="fill:#ebebeb;"/>
                <path d="M215,15c5.519,0 10,4.481 10,10c-0,5.519 -4.481,10 -10,10c-5.519,0 -10,-4.481 -10,-10c-0,-5.519 4.481,-10 10,-10Zm-0,1.8c4.526,-0 8.2,3.674 8.2,8.2c0,4.526 -3.674,8.2 -8.2,8.2c-4.526,0 -8.2,-3.674 -8.2,-8.2c-0,-4.526 3.674,-8.2 8.2,-8.2Z"/>
                <path d="M219.452,29.718l-3.5,-9.114c-0.112,-0.308 -0.266,-0.378 -0.588,-0.378l-0.742,0c-0.322,0 -0.462,0.07 -0.588,0.392l-3.5,9.1c-0.112,0.308 -0.028,0.462 0.322,0.462l0.644,0c0.588,0 0.756,-0.084 0.868,-0.42l0.658,-1.806l3.864,0l0.644,1.806c0.112,0.336 0.28,0.42 0.868,0.42l0.728,0c0.35,0 0.434,-0.154 0.322,-0.462Zm-4.116,-6.16l1.064,2.954l-2.884,0l1.078,-2.968c0.294,-0.854 0.308,-1.68 0.308,-1.694l0.098,0c0.014,0.014 0.042,0.84 0.336,1.708Z" style="fill-rule:nonzero;"/>
            </g>
        </g>
        <g transform="matrix(1,0,0,1,181.002,-8.57)">
            <g transform="matrix(11,0,0,11,56.1812,148.57)">
                <path d="M0.043,-0.506c0,0.175 0.15,0.194 0.272,0.207c0.084,0.009 0.158,0.024 0.158,0.093c0,0.072 -0.056,0.104 -0.159,0.104c-0.078,-0 -0.131,-0.034 -0.156,-0.093c-0.01,-0.024 -0.02,-0.029 -0.043,-0.021l-0.055,0.02c-0.024,0.008 -0.03,0.019 -0.021,0.044c0.041,0.108 0.12,0.167 0.275,0.167c0.184,-0 0.285,-0.091 0.285,-0.224c0,-0.167 -0.136,-0.196 -0.254,-0.209c-0.091,-0.01 -0.173,-0.023 -0.173,-0.095c0,-0.062 0.048,-0.092 0.145,-0.092c0.079,-0 0.119,0.031 0.146,0.084c0.012,0.023 0.021,0.027 0.043,0.017l0.055,-0.024c0.024,-0.011 0.03,-0.023 0.019,-0.046c-0.047,-0.099 -0.12,-0.151 -0.263,-0.151c-0.18,0 -0.274,0.092 -0.274,0.219Z" style="fill:#65baff;fill-rule:nonzero;"/>
            </g>
            <g transform="matrix(11,0,0,11,63.1332,148.57)">
                <path d="M0.466,-0.518l-0.054,0c-0.023,0 -0.031,0.007 -0.031,0.03l0,0.368c0,0.008 -0.002,0.014 -0.011,0.017c-0.027,0.008 -0.053,0.012 -0.092,0.012c-0.073,0 -0.109,-0.032 -0.109,-0.099l-0,-0.298c-0,-0.023 -0.007,-0.03 -0.03,-0.03l-0.055,0c-0.023,0 -0.031,0.007 -0.031,0.03l-0,0.302c-0,0.126 0.066,0.201 0.209,0.201c0.095,-0 0.156,-0.019 0.196,-0.035c0.032,-0.013 0.039,-0.025 0.039,-0.056l0,-0.412c0,-0.023 -0.008,-0.03 -0.031,-0.03Z" style="fill:#65baff;fill-rule:nonzero;"/>
            </g>
            <g transform="matrix(11,0,0,11,69.2162,148.57)">
                <path d="M0.142,-0.74l-0.055,0c-0.023,0 -0.031,0.008 -0.031,0.031l-0,0.637c-0,0.032 0.005,0.04 0.037,0.055c0.035,0.015 0.1,0.032 0.181,0.032c0.153,-0 0.226,-0.075 0.226,-0.212l0,-0.135c0,-0.127 -0.065,-0.201 -0.208,-0.201c-0.049,-0 -0.09,0.01 -0.12,0.017l0,-0.193c0,-0.023 -0.007,-0.031 -0.03,-0.031Zm0.242,0.411l0,0.129c0,0.074 -0.038,0.109 -0.118,0.109c-0.033,-0 -0.063,-0.004 -0.086,-0.012c-0.007,-0.003 -0.008,-0.006 -0.008,-0.011l0,-0.295c0.024,-0.008 0.061,-0.018 0.103,-0.018c0.071,-0 0.109,0.035 0.109,0.098Z" style="fill:#65baff;fill-rule:nonzero;"/>
            </g>
            <g transform="matrix(11,0,0,11,75.1672,148.57)">
                <path d="M0.193,-0.638l-0.054,0c-0.023,0 -0.031,0.007 -0.031,0.03l-0,0.09l-0.069,0c-0.023,0 -0.03,0.007 -0.03,0.03l-0,0.046c-0,0.023 0.007,0.031 0.03,0.031l0.069,0l-0,0.205c-0,0.173 0.064,0.225 0.229,0.22c0.024,-0.001 0.032,-0.008 0.032,-0.032l0,-0.046c0,-0.024 -0.008,-0.031 -0.032,-0.031c-0.084,0 -0.113,-0.017 -0.113,-0.115l0,-0.201l0.114,0c0.023,0 0.031,-0.008 0.031,-0.031l0,-0.046c0,-0.023 -0.008,-0.03 -0.031,-0.03l-0.114,0l0,-0.09c0,-0.023 -0.008,-0.03 -0.031,-0.03Z" style="fill:#65baff;fill-rule:nonzero;"/>
            </g>
            <g transform="matrix(11,0,0,11,79.4462,148.57)">
                <path d="M0.281,-0.533c-0.089,0.002 -0.149,0.016 -0.186,0.03c-0.032,0.013 -0.039,0.025 -0.039,0.057l-0,0.415c-0,0.023 0.008,0.031 0.031,0.031l0.055,-0c0.023,-0 0.03,-0.008 0.03,-0.031l0,-0.372c0,-0.005 0.001,-0.01 0.01,-0.012c0.026,-0.008 0.056,-0.012 0.095,-0.012l0.036,0c0.023,0 0.031,-0.008 0.031,-0.031l-0,-0.044c-0,-0.024 -0.008,-0.031 -0.031,-0.031l-0.032,0Z" style="fill:#65baff;fill-rule:nonzero;"/>
            </g>
            <g transform="matrix(11,0,0,11,83.1862,148.57)">
                <path d="M0.04,-0.317l0,0.118c0,0.123 0.066,0.214 0.23,0.214c0.113,0 0.18,-0.037 0.216,-0.096c0.014,-0.022 0.011,-0.039 -0.012,-0.05l-0.035,-0.019c-0.024,-0.013 -0.035,-0.01 -0.051,0.012c-0.021,0.033 -0.059,0.053 -0.118,0.053c-0.073,-0 -0.114,-0.035 -0.114,-0.1l0,-0.037l0.302,0c0.035,0 0.045,-0.017 0.045,-0.043l0,-0.061c0,-0.115 -0.072,-0.207 -0.231,-0.207c-0.151,0 -0.232,0.077 -0.232,0.216Zm0.347,-0.016l0,0.022l-0.231,0l0,-0.022c0,-0.065 0.041,-0.102 0.116,-0.102c0.076,0 0.115,0.037 0.115,0.102Z" style="fill:#65baff;fill-rule:nonzero;"/>
            </g>
            <g transform="matrix(11,0,0,11,89.0932,148.57)">
                <path d="M0.04,-0.317l0,0.118c0,0.123 0.066,0.214 0.23,0.214c0.113,0 0.18,-0.037 0.216,-0.096c0.014,-0.022 0.011,-0.039 -0.012,-0.05l-0.035,-0.019c-0.024,-0.013 -0.035,-0.01 -0.051,0.012c-0.021,0.033 -0.059,0.053 -0.118,0.053c-0.073,-0 -0.114,-0.035 -0.114,-0.1l0,-0.037l0.302,0c0.035,0 0.045,-0.017 0.045,-0.043l0,-0.061c0,-0.115 -0.072,-0.207 -0.231,-0.207c-0.151,0 -0.232,0.077 -0.232,0.216Zm0.347,-0.016l0,0.022l-0.231,0l0,-0.022c0,-0.065 0.041,-0.102 0.116,-0.102c0.076,0 0.115,0.037 0.115,0.102Z" style="fill:#65baff;fill-rule:nonzero;"/>
            </g>
            <path d="M56.654,143.004c0,1.925 1.65,2.134 2.992,2.277c0.924,0.099 1.738,0.264 1.738,1.023c0,0.792 -0.616,1.144 -1.749,1.144c-0.858,0 -1.441,-0.374 -1.716,-1.023c-0.11,-0.264 -0.22,-0.319 -0.473,-0.231l-0.605,0.22c-0.264,0.088 -0.33,0.209 -0.231,0.484c0.451,1.188 1.32,1.837 3.025,1.837c2.024,0 3.135,-1.001 3.135,-2.464c0,-1.837 -1.496,-2.156 -2.794,-2.299c-1.001,-0.11 -1.903,-0.253 -1.903,-1.045c0,-0.682 0.528,-1.012 1.595,-1.012c0.869,0 1.309,0.341 1.606,0.924c0.132,0.253 0.231,0.297 0.473,0.187l0.605,-0.264c0.264,-0.121 0.33,-0.253 0.209,-0.506c-0.517,-1.089 -1.32,-1.661 -2.893,-1.661c-1.98,0 -3.014,1.012 -3.014,2.409Zm5.658,-0.563c-0.006,-0.017 -0.014,-0.039 -0.022,-0.056c-0.467,-0.985 -1.2,-1.49 -2.622,-1.49c-1.764,0 -2.714,0.865 -2.714,2.109c0,1.724 1.522,1.851 2.724,1.979c0.499,0.053 0.966,0.13 1.31,0.29c0.431,0.2 0.696,0.519 0.696,1.031c0,0.95 -0.69,1.444 -2.049,1.444c-1,0 -1.671,-0.449 -1.993,-1.208c-0.011,-0.026 -0.028,-0.057 -0.04,-0.078c-0.017,0.003 -0.038,0.009 -0.053,0.014l-0.613,0.223c-0.02,0.006 -0.045,0.017 -0.063,0.026c0.004,0.02 0.011,0.047 0.018,0.067c0.407,1.073 1.203,1.643 2.744,1.643c1.811,-0 2.835,-0.855 2.835,-2.164c0,-1.636 -1.37,-1.873 -2.527,-2.001c-0.532,-0.058 -1.038,-0.13 -1.411,-0.289c-0.47,-0.199 -0.759,-0.523 -0.759,-1.054c0,-0.832 0.593,-1.312 1.895,-1.312c1.016,-0 1.526,0.406 1.872,1.085c0.012,0.023 0.028,0.049 0.042,0.069l0.645,-0.28c0.029,-0.013 0.063,-0.034 0.085,-0.048Z"/>
            <path d="M68.259,142.872l-0.594,0c-0.253,0 -0.341,0.077 -0.341,0.33l0,4.048c0,0.088 -0.022,0.154 -0.121,0.187c-0.297,0.088 -0.583,0.132 -1.012,0.132c-0.803,0 -1.199,-0.352 -1.199,-1.089l0,-3.278c0,-0.253 -0.077,-0.33 -0.33,-0.33l-0.605,0c-0.253,0 -0.341,0.077 -0.341,0.33l0,3.322c0,1.386 0.726,2.211 2.299,2.211c1.045,-0 1.716,-0.209 2.156,-0.385c0.352,-0.143 0.429,-0.275 0.429,-0.616l0,-4.532c0,-0.253 -0.088,-0.33 -0.341,-0.33Zm-3.568,0.301l-0.674,0.001c-0,0.01 -0.001,0.019 -0.001,0.028c0,-0 0,3.322 0,3.322c0,0.601 0.145,1.084 0.472,1.414c0.331,0.332 0.839,0.497 1.527,0.497c0.991,-0 1.628,-0.197 2.043,-0.363c0.103,-0.042 0.174,-0.069 0.211,-0.124c0.035,-0.052 0.031,-0.12 0.031,-0.214l0,-4.532c0,-0.009 -0,-0.018 -0.001,-0.028l-0.674,0c-0,0.01 -0.001,0.019 -0.001,0.028c0,0 0,4.048 0,4.048c0,0.129 -0.033,0.235 -0.101,0.32c-0.05,0.062 -0.119,0.116 -0.225,0.152l-0.01,0.003c-0.322,0.095 -0.632,0.144 -1.097,0.144c-0.493,0 -0.857,-0.124 -1.102,-0.346c-0.254,-0.23 -0.397,-0.572 -0.397,-1.043l0,-3.278c0,-0.009 -0,-0.019 -0.001,-0.029Z"/>
            <path d="M70.778,140.43l-0.605,0c-0.253,0 -0.341,0.088 -0.341,0.341l0,7.007c0,0.352 0.055,0.44 0.407,0.605c0.385,0.165 1.1,0.352 1.991,0.352c1.683,0 2.486,-0.825 2.486,-2.332l0,-1.485c0,-1.397 -0.715,-2.211 -2.288,-2.211c-0.539,0 -0.99,0.11 -1.32,0.187l0,-2.123c0,-0.253 -0.077,-0.341 -0.33,-0.341Zm0.028,0.301l-0.672,0.001c-0.001,0.013 -0.002,0.027 -0.002,0.039c0,0 0,7.007 0,7.007c0,0.096 -0.01,0.159 0.021,0.206c0.035,0.052 0.103,0.076 0.206,0.124c0.363,0.155 1.035,0.327 1.871,0.327c0.746,-0 1.302,-0.167 1.667,-0.517c0.358,-0.344 0.519,-0.858 0.519,-1.515l0,-1.485c0,-0.606 -0.141,-1.09 -0.467,-1.418c-0.328,-0.331 -0.833,-0.493 -1.521,-0.493c-0.511,0 -0.939,0.106 -1.252,0.179c-0.089,0.021 -0.183,-0 -0.254,-0.057c-0.072,-0.057 -0.114,-0.143 -0.114,-0.235l0,-2.123c0,-0.012 -0.001,-0.026 -0.002,-0.04Zm2.934,4.22c0,-0.445 -0.146,-0.786 -0.405,-1.021c-0.249,-0.225 -0.613,-0.357 -1.094,-0.357c-0.5,-0 -0.942,0.118 -1.228,0.213c-0.122,0.041 -0.205,0.156 -0.205,0.285l0,3.245c0,0.094 0.021,0.166 0.063,0.231c0.037,0.057 0.093,0.117 0.207,0.166c0.006,0.003 0.013,0.005 0.02,0.007c0.279,0.098 0.643,0.149 1.044,0.149c0.534,0 0.922,-0.134 1.183,-0.374c0.268,-0.247 0.415,-0.616 0.415,-1.125l0,-1.419Zm-0.3,0l0,1.419c0,0.814 -0.418,1.199 -1.298,1.199c-0.363,0 -0.693,-0.044 -0.946,-0.132c-0.077,-0.033 -0.088,-0.066 -0.088,-0.121l0,-3.245c0.264,-0.088 0.671,-0.198 1.133,-0.198c0.781,0 1.199,0.385 1.199,1.078Z"/>
            <path d="M77.29,141.552l-0.594,0c-0.253,0 -0.341,0.077 -0.341,0.33l0,0.99l-0.759,0c-0.253,0 -0.33,0.077 -0.33,0.33l0,0.506c0,0.253 0.077,0.341 0.33,0.341l0.759,0l0,2.255c0,1.903 0.704,2.475 2.519,2.42c0.264,-0.011 0.352,-0.088 0.352,-0.352l0,-0.506c0,-0.264 -0.088,-0.341 -0.352,-0.341c-0.924,0 -1.243,-0.187 -1.243,-1.265l0,-2.211l1.254,0c0.253,0 0.341,-0.088 0.341,-0.341l0,-0.506c0,-0.253 -0.088,-0.33 -0.341,-0.33l-1.254,0l0,-0.99c0,-0.253 -0.088,-0.33 -0.341,-0.33Zm0.04,0.302l-0.674,0l-0.001,1.018c0,0.166 -0.134,0.3 -0.3,0.3l-0.788,0.001l0.001,0.575l0.787,0.001c0.166,-0 0.3,0.134 0.3,0.3c0,0 0,2.255 0,2.255c0,0.84 0.128,1.394 0.483,1.724c0.357,0.332 0.922,0.421 1.724,0.396c0.019,-0.001 0.042,-0.003 0.061,-0.006l0.001,-0.59c-0.016,-0.002 -0.034,-0.003 -0.05,-0.003c-0.563,0 -0.934,-0.087 -1.172,-0.309c-0.239,-0.221 -0.371,-0.598 -0.371,-1.256l0,-2.211c0,-0.166 0.135,-0.3 0.3,-0.3l1.254,-0c0.012,-0 0.026,-0.001 0.039,-0.002l0.001,-0.573c-0.013,-0.001 -0.028,-0.002 -0.04,-0.002l-1.254,0c-0.165,0 -0.3,-0.134 -0.3,-0.3l-0.001,-1.018Z"/>
            <path d="M82.537,142.707c-0.979,0.022 -1.639,0.176 -2.046,0.33c-0.352,0.143 -0.429,0.275 -0.429,0.627l0,4.565c0,0.253 0.088,0.341 0.341,0.341l0.605,0c0.253,0 0.33,-0.088 0.33,-0.341l0,-4.092c0,-0.055 0.011,-0.11 0.11,-0.132c0.286,-0.088 0.616,-0.132 1.045,-0.132l0.396,0c0.253,0 0.341,-0.088 0.341,-0.341l0,-0.484c0,-0.264 -0.088,-0.341 -0.341,-0.341l-0.352,0Zm0.004,0.3c-0.929,0.021 -1.557,0.164 -1.937,0.308c-0.102,0.042 -0.173,0.068 -0.21,0.124c-0.036,0.053 -0.032,0.125 -0.032,0.225l0,4.565c0,0.012 0.001,0.026 0.002,0.039l0.672,0.001c0.001,-0.014 0.002,-0.028 0.002,-0.04c0,0 0,-4.092 0,-4.092c0,-0.086 0.019,-0.169 0.066,-0.241c0.046,-0.071 0.119,-0.145 0.265,-0.18c0.308,-0.094 0.663,-0.143 1.124,-0.143l0.435,-0.002l0,-0.562l-0.387,-0.002Z"/>
            <path d="M83.626,145.083l0,1.298c0,1.353 0.726,2.354 2.53,2.354c1.243,0 1.98,-0.407 2.376,-1.056c0.154,-0.242 0.121,-0.429 -0.132,-0.55l-0.385,-0.209c-0.264,-0.143 -0.385,-0.11 -0.561,0.132c-0.231,0.363 -0.649,0.583 -1.298,0.583c-0.803,0 -1.254,-0.385 -1.254,-1.1l0,-0.407l3.322,0c0.385,0 0.495,-0.187 0.495,-0.473l0,-0.671c0,-1.265 -0.792,-2.277 -2.541,-2.277c-1.661,0 -2.552,0.847 -2.552,2.376Zm4.073,2.142c-0.279,0.43 -0.77,0.71 -1.543,0.71c-0.488,0 -0.866,-0.13 -1.125,-0.356c-0.273,-0.238 -0.429,-0.586 -0.429,-1.044l0,-0.407c0,-0.166 0.135,-0.3 0.3,-0.3c0,-0 3.322,-0 3.322,-0c0.081,-0 0.139,0.003 0.171,-0.032c0.03,-0.033 0.024,-0.084 0.024,-0.141l0,-0.671c0,-0.548 -0.164,-1.043 -0.525,-1.399c-0.37,-0.366 -0.939,-0.578 -1.716,-0.578c-0.739,0 -1.311,0.175 -1.694,0.534c-0.375,0.351 -0.558,0.874 -0.558,1.542c0,0 0,1.298 0,1.298c0,0.591 0.148,1.109 0.504,1.475c0.361,0.372 0.927,0.579 1.726,0.579c1.103,-0 1.769,-0.336 2.123,-0.917c0.017,-0.027 0.033,-0.067 0.041,-0.088c-0.012,-0.009 -0.033,-0.022 -0.049,-0.03l-0.399,-0.216c-0.033,-0.018 -0.077,-0.035 -0.099,-0.044c-0.017,0.018 -0.05,0.053 -0.074,0.085Zm0.044,-2.318c0,-0.455 -0.148,-0.808 -0.418,-1.052c-0.258,-0.232 -0.638,-0.37 -1.147,-0.37c-0.501,-0 -0.884,0.136 -1.146,0.368c-0.275,0.244 -0.43,0.598 -0.43,1.054l0,0.242c0,0.166 0.135,0.3 0.3,0.3l2.541,0c0.166,0 0.3,-0.134 0.3,-0.3l0,-0.242Zm-0.3,0l0,0.242l-2.541,0l0,-0.242c0,-0.715 0.451,-1.122 1.276,-1.122c0.836,0 1.265,0.407 1.265,1.122Z"/>
            <path d="M89.533,145.083l0,1.298c0,1.353 0.726,2.354 2.53,2.354c1.243,0 1.98,-0.407 2.376,-1.056c0.154,-0.242 0.121,-0.429 -0.132,-0.55l-0.385,-0.209c-0.264,-0.143 -0.385,-0.11 -0.561,0.132c-0.231,0.363 -0.649,0.583 -1.298,0.583c-0.803,0 -1.254,-0.385 -1.254,-1.1l0,-0.407l3.322,0c0.385,0 0.495,-0.187 0.495,-0.473l0,-0.671c0,-1.265 -0.792,-2.277 -2.541,-2.277c-1.661,0 -2.552,0.847 -2.552,2.376Zm4.073,2.142c-0.279,0.43 -0.77,0.71 -1.543,0.71c-0.488,0 -0.866,-0.13 -1.125,-0.356c-0.273,-0.238 -0.429,-0.586 -0.429,-1.044l0,-0.407c0,-0.166 0.135,-0.3 0.3,-0.3c0,-0 3.322,-0 3.322,-0c0.081,-0 0.139,0.003 0.171,-0.032c0.03,-0.033 0.024,-0.084 0.024,-0.141l0,-0.671c0,-0.548 -0.164,-1.043 -0.525,-1.399c-0.37,-0.366 -0.939,-0.578 -1.716,-0.578c-0.739,0 -1.311,0.175 -1.694,0.534c-0.375,0.351 -0.558,0.874 -0.558,1.542c0,0 0,1.298 0,1.298c0,0.591 0.148,1.109 0.504,1.475c0.361,0.372 0.927,0.579 1.726,0.579c1.103,-0 1.769,-0.336 2.123,-0.917c0.017,-0.027 0.033,-0.067 0.041,-0.088c-0.012,-0.009 -0.033,-0.022 -0.049,-0.03l-0.399,-0.216c-0.033,-0.018 -0.077,-0.035 -0.099,-0.044c-0.017,0.018 -0.05,0.053 -0.074,0.085Zm0.044,-2.318c0,-0.455 -0.148,-0.808 -0.418,-1.052c-0.258,-0.232 -0.638,-0.37 -1.147,-0.37c-0.501,-0 -0.884,0.136 -1.146,0.368c-0.275,0.244 -0.43,0.598 -0.43,1.054l0,0.242c0,0.166 0.135,0.3 0.3,0.3l2.541,0c0.166,0 0.3,-0.134 0.3,-0.3l0,-0.242Zm-0.3,0l0,0.242l-2.541,0l0,-0.242c0,-0.715 0.451,-1.122 1.276,-1.122c0.836,0 1.265,0.407 1.265,1.122Z"/>
            <g transform="matrix(11,0,0,11,97.4092,148.57)">
                <path d="M0.041,-0.333l0,0.148c0,0.124 0.082,0.2 0.23,0.2c0.15,0 0.231,-0.076 0.231,-0.2l0,-0.148c0,-0.124 -0.081,-0.2 -0.231,-0.2c-0.148,0 -0.23,0.076 -0.23,0.2Zm0.345,0l0,0.148c0,0.06 -0.041,0.095 -0.115,0.095c-0.073,0 -0.114,-0.035 -0.114,-0.095l-0,-0.148c-0,-0.061 0.041,-0.095 0.114,-0.095c0.074,0 0.115,0.034 0.115,0.095Z" style="fill-rule:nonzero;"/>
            </g>
            <g transform="matrix(11,0,0,11,103.371,148.57)">
                <path d="M0.331,-0.74l-0.009,0c-0.151,0.003 -0.22,0.074 -0.22,0.212l0,0.01l-0.06,0c-0.023,0 -0.03,0.007 -0.03,0.03l-0,0.046c-0,0.023 0.007,0.031 0.03,0.031l0.06,0l0,0.38c0,0.023 0.008,0.031 0.032,0.031l0.053,0c0.024,0 0.031,-0.008 0.031,-0.031l0,-0.38l0.115,0c0.023,0 0.03,-0.008 0.03,-0.031l0,-0.046c0,-0.023 -0.007,-0.03 -0.03,-0.03l-0.115,0l0,-0.01c0,-0.075 0.029,-0.104 0.113,-0.104c0.024,0 0.032,-0.008 0.032,-0.032l0,-0.044c0,-0.024 -0.008,-0.032 -0.032,-0.032Z" style="fill-rule:nonzero;"/>
            </g>
            <path d="M97.86,144.907l0,1.628c0,1.364 0.902,2.2 2.53,2.2c1.65,0 2.541,-0.836 2.541,-2.2l0,-1.628c0,-1.364 -0.891,-2.2 -2.541,-2.2c-1.628,-0 -2.53,0.836 -2.53,2.2Zm0.3,0c0,-0.585 0.185,-1.061 0.553,-1.387c0.383,-0.338 0.951,-0.513 1.677,-0.513c0.737,0 1.308,0.174 1.691,0.513c0.368,0.326 0.55,0.802 0.55,1.387l0,1.628c0,0.585 -0.182,1.061 -0.55,1.387c-0.383,0.339 -0.954,0.513 -1.691,0.513c-0.726,-0 -1.294,-0.175 -1.677,-0.513c-0.368,-0.326 -0.553,-0.802 -0.553,-1.387l0,-1.628Zm3.795,0c0,-0.437 -0.156,-0.774 -0.436,-1.005c-0.259,-0.215 -0.637,-0.34 -1.129,-0.34c-0.486,-0 -0.862,0.126 -1.12,0.34c-0.278,0.231 -0.434,0.568 -0.434,1.005c0,-0 0,1.628 0,1.628c0,0.43 0.156,0.767 0.433,1c0.259,0.216 0.635,0.345 1.121,0.345c0.492,0 0.871,-0.128 1.13,-0.345c0.28,-0.233 0.435,-0.57 0.435,-1l0,-1.628Zm-0.3,0l0,1.628c0,0.66 -0.451,1.045 -1.265,1.045c-0.803,0 -1.254,-0.385 -1.254,-1.045l0,-1.628c0,-0.671 0.451,-1.045 1.254,-1.045c0.814,0 1.265,0.374 1.265,1.045Z"/>
            <path d="M107.012,140.43l-0.099,0c-1.661,0.033 -2.42,0.814 -2.42,2.332l0,0.11l-0.66,0c-0.253,0 -0.33,0.077 -0.33,0.33l0,0.506c0,0.253 0.077,0.341 0.33,0.341l0.66,0l0,4.18c0,0.253 0.088,0.341 0.352,0.341l0.583,0c0.264,0 0.341,-0.088 0.341,-0.341l0,-4.18l1.265,0c0.253,0 0.33,-0.088 0.33,-0.341l0,-0.506c0,-0.253 -0.077,-0.33 -0.33,-0.33l-1.265,0l0,-0.11c0,-0.825 0.319,-1.144 1.243,-1.144c0.264,0 0.352,-0.088 0.352,-0.352l0,-0.484c0,-0.264 -0.088,-0.352 -0.352,-0.352Zm0.049,0.303c-0.016,-0.002 -0.034,-0.003 -0.049,-0.003c0,0 -0.099,0 -0.093,-0c-0.736,0.015 -1.277,0.179 -1.629,0.523c-0.347,0.34 -0.497,0.847 -0.497,1.509l0,0.11c0,0.166 -0.134,0.3 -0.3,0.3l-0.689,0.001l0.001,0.575l0.688,0.001c0.166,-0 0.3,0.134 0.3,0.3l0,4.18c0,0.012 0.001,0.025 0.002,0.038l0.672,0.001c0.001,-0.013 0.002,-0.027 0.002,-0.039l0,-4.18c0,-0.166 0.135,-0.3 0.3,-0.3l1.293,-0.001l0.001,-0.575l-1.294,-0.001c-0.165,0 -0.3,-0.134 -0.3,-0.3l0,-0.11c0,-0.519 0.125,-0.87 0.37,-1.1c0.238,-0.223 0.61,-0.344 1.173,-0.344c0.015,-0 0.033,-0.001 0.049,-0.003l0,-0.582Z"/>
            <g transform="matrix(11,0,0,11,109.608,148.57)">
                <path d="M0.049,-0.465l0,0.219c0,0.161 0.102,0.261 0.286,0.261c0.148,0 0.235,-0.06 0.273,-0.168c0.008,-0.024 0.002,-0.035 -0.022,-0.044l-0.054,-0.019c-0.024,-0.009 -0.034,-0.004 -0.044,0.021c-0.022,0.061 -0.069,0.093 -0.153,0.093c-0.103,0 -0.16,-0.051 -0.16,-0.143l-0,-0.221c-0,-0.092 0.057,-0.142 0.16,-0.142c0.083,0 0.131,0.031 0.153,0.092c0.009,0.025 0.019,0.028 0.043,0.021l0.055,-0.019c0.024,-0.009 0.03,-0.02 0.021,-0.044c-0.038,-0.108 -0.125,-0.167 -0.272,-0.167c-0.184,0 -0.286,0.1 -0.286,0.26Z" style="fill:#fff266;fill-rule:nonzero;"/>
            </g>
            <path d="M110.147,143.455l0,2.409c0,1.771 1.122,2.871 3.146,2.871c1.628,0 2.585,-0.66 3.003,-1.848c0.088,-0.264 0.022,-0.385 -0.242,-0.484l-0.594,-0.209c-0.264,-0.099 -0.374,-0.044 -0.484,0.231c-0.242,0.671 -0.759,1.023 -1.683,1.023c-1.133,0 -1.76,-0.561 -1.76,-1.573l0,-2.431c0,-1.012 0.627,-1.562 1.76,-1.562c0.913,0 1.441,0.341 1.683,1.012c0.099,0.275 0.209,0.308 0.473,0.231l0.605,-0.209c0.264,-0.099 0.33,-0.22 0.231,-0.484c-0.418,-1.188 -1.375,-1.837 -2.992,-1.837c-2.024,0 -3.146,1.1 -3.146,2.86Zm5.875,-0.854c-0.004,-0.02 -0.011,-0.047 -0.02,-0.069c-0.377,-1.071 -1.251,-1.637 -2.709,-1.637c-0.922,0 -1.642,0.239 -2.128,0.69c-0.476,0.442 -0.718,1.084 -0.718,1.87c0,0 0,2.409 0,2.409c0,0.791 0.242,1.436 0.719,1.88c0.485,0.452 1.206,0.691 2.127,0.691c1.468,-0 2.343,-0.576 2.719,-1.643c0.007,-0.022 0.013,-0.05 0.017,-0.07c-0.02,-0.011 -0.051,-0.027 -0.074,-0.036l-0.661,-0.23c-0.012,0.022 -0.028,0.052 -0.038,0.079c-0.286,0.783 -0.881,1.213 -1.963,1.213c-0.655,0 -1.16,-0.175 -1.505,-0.483c-0.356,-0.319 -0.555,-0.785 -0.555,-1.39l0,-2.431c0,-0.606 0.199,-1.069 0.557,-1.385c0.344,-0.305 0.849,-0.477 1.503,-0.477c1.073,-0 1.681,0.422 1.965,1.21c0.008,0.021 0.019,0.044 0.028,0.063c0.022,-0.004 0.05,-0.01 0.074,-0.017l0.591,-0.204c0.024,-0.009 0.052,-0.023 0.071,-0.033Z"/>
            <g transform="matrix(11,0,0,11,50.8792,159.57)">
                <path d="M0.054,-0.61l0,0.51c0,0.132 0.051,0.203 0.142,0.245c0.022,0.01 0.031,0.003 0.042,-0.019l0.022,-0.043c0.011,-0.021 0.004,-0.03 -0.017,-0.042c-0.048,-0.024 -0.075,-0.058 -0.075,-0.132l0,-0.528c0,-0.074 0.027,-0.108 0.075,-0.132c0.021,-0.012 0.026,-0.02 0.017,-0.042l-0.022,-0.043c-0.011,-0.022 -0.02,-0.029 -0.042,-0.019c-0.091,0.042 -0.142,0.113 -0.142,0.245Z" style="fill-rule:nonzero;"/>
            </g>
            <path d="M51.473,152.86l0,5.61c0,1.452 0.561,2.233 1.562,2.695c0.242,0.11 0.341,0.033 0.462,-0.209l0.242,-0.473c0.121,-0.231 0.044,-0.33 -0.187,-0.462c-0.528,-0.264 -0.825,-0.638 -0.825,-1.452l0,-5.808c0,-0.814 0.297,-1.188 0.825,-1.452c0.231,-0.132 0.286,-0.22 0.187,-0.462l-0.242,-0.473c-0.121,-0.242 -0.22,-0.319 -0.462,-0.209c-1.001,0.462 -1.562,1.243 -1.562,2.695Zm1.71,-2.431c-0.008,0.002 -0.016,0.005 -0.022,0.008c-0.897,0.414 -1.388,1.122 -1.388,2.423l0,5.61c0,1.301 0.491,2.009 1.386,2.422c0.007,0.003 0.016,0.006 0.024,0.009c0.014,-0.022 0.033,-0.053 0.046,-0.079l0.251,-0.491c-0.021,-0.015 -0.048,-0.033 -0.073,-0.047c-0.621,-0.314 -0.98,-0.753 -0.98,-1.715l0,-5.808c0,-0.962 0.359,-1.401 0.98,-1.715c0.023,-0.013 0.049,-0.031 0.069,-0.044l-0.011,-0.032l-0.236,-0.462c-0.013,-0.027 -0.032,-0.057 -0.046,-0.079Z"/>
            <g transform="matrix(11,0,0,11,54.0362,159.57)">
                <path d="M0.199,-0.673l-0.034,0c-0.014,0 -0.019,0.006 -0.016,0.019l0.011,0.087l-0.078,-0.038c-0.013,-0.007 -0.019,-0.004 -0.025,0.01l-0.01,0.032c-0.004,0.013 -0.001,0.02 0.014,0.022l0.086,0.016l-0.061,0.063c-0.011,0.01 -0.01,0.018 0.002,0.026l0.027,0.021c0.011,0.007 0.02,0.006 0.026,-0.007l0.041,-0.075l0.041,0.075c0.006,0.013 0.014,0.014 0.026,0.006l0.027,-0.02c0.012,-0.008 0.012,-0.016 0.002,-0.026l-0.06,-0.063l0.086,-0.016c0.015,-0.001 0.018,-0.009 0.014,-0.022l-0.01,-0.032c-0.005,-0.014 -0.011,-0.017 -0.025,-0.01l-0.079,0.038l0.011,-0.087c0.004,-0.013 -0.002,-0.019 -0.016,-0.019Z" style="fill-rule:nonzero;"/>
            </g>
            <path d="M56.225,152.167l-0.374,0c-0.154,0 -0.209,0.066 -0.176,0.209l0.121,0.957l-0.858,-0.418c-0.143,-0.077 -0.209,-0.044 -0.275,0.11l-0.11,0.352c-0.044,0.143 -0.011,0.22 0.154,0.242l0.946,0.176l-0.671,0.693c-0.121,0.11 -0.11,0.198 0.022,0.286l0.297,0.231c0.121,0.077 0.22,0.066 0.286,-0.077l0.451,-0.825l0.451,0.825c0.066,0.143 0.154,0.154 0.286,0.066l0.297,-0.22c0.132,-0.088 0.132,-0.176 0.022,-0.286l-0.66,-0.693l0.946,-0.176c0.165,-0.011 0.198,-0.099 0.154,-0.242l-0.11,-0.352c-0.055,-0.154 -0.121,-0.187 -0.275,-0.11l-0.869,0.418l0.121,-0.957c0.044,-0.143 -0.022,-0.209 -0.176,-0.209Zm-0.944,2.443l0.098,0.076l0.22,-0.404l-0.318,0.328Zm1.414,0.07l0.098,-0.072l-0.324,-0.341l0.226,0.413Zm-0.657,-1.17c-0.018,0.025 -0.041,0.048 -0.067,0.067c-0.024,0.017 -0.05,0.03 -0.077,0.039c0.02,0.026 0.035,0.056 0.045,0.088c0.012,0.037 0.016,0.074 0.013,0.112c0.028,-0.009 0.057,-0.013 0.086,-0.013c0.034,-0 0.066,0.006 0.097,0.016c-0.003,-0.039 0.001,-0.078 0.014,-0.116c0.01,-0.031 0.024,-0.059 0.042,-0.084c-0.03,-0.009 -0.059,-0.023 -0.086,-0.043c-0.026,-0.018 -0.049,-0.041 -0.067,-0.066Zm0.743,-0.085l0.428,-0.079l-0.034,-0.11l-0.394,0.189Zm-1.904,-0.079l0.421,0.078l-0.386,-0.188l-0.035,0.11Zm1.11,-0.879l0.051,0.392l0.049,-0.392l-0.1,0Z"/>
            <g transform="matrix(11,0,0,11,58.0292,159.57)">
                <path d="M0.049,-0.465l0,0.219c0,0.161 0.102,0.261 0.286,0.261c0.148,0 0.235,-0.06 0.273,-0.168c0.008,-0.024 0.002,-0.035 -0.022,-0.044l-0.054,-0.019c-0.024,-0.009 -0.034,-0.004 -0.044,0.021c-0.022,0.061 -0.069,0.093 -0.153,0.093c-0.103,0 -0.16,-0.051 -0.16,-0.143l-0,-0.221c-0,-0.092 0.057,-0.142 0.16,-0.142c0.083,0 0.131,0.031 0.153,0.092c0.009,0.025 0.019,0.028 0.043,0.021l0.055,-0.019c0.024,-0.009 0.03,-0.02 0.021,-0.044c-0.038,-0.108 -0.125,-0.167 -0.272,-0.167c-0.184,0 -0.286,0.1 -0.286,0.26Z" style="fill:#fff266;fill-rule:nonzero;"/>
            </g>
            <path d="M58.568,154.455l0,2.409c0,1.771 1.122,2.871 3.146,2.871c1.628,0 2.585,-0.66 3.003,-1.848c0.088,-0.264 0.022,-0.385 -0.242,-0.484l-0.594,-0.209c-0.264,-0.099 -0.374,-0.044 -0.484,0.231c-0.242,0.671 -0.759,1.023 -1.683,1.023c-1.133,0 -1.76,-0.561 -1.76,-1.573l0,-2.431c0,-1.012 0.627,-1.562 1.76,-1.562c0.913,0 1.441,0.341 1.683,1.012c0.099,0.275 0.209,0.308 0.473,0.231l0.605,-0.209c0.264,-0.099 0.33,-0.22 0.231,-0.484c-0.418,-1.188 -1.375,-1.837 -2.992,-1.837c-2.024,0 -3.146,1.1 -3.146,2.86Zm5.875,-0.854c-0.004,-0.02 -0.011,-0.047 -0.02,-0.069c-0.377,-1.071 -1.251,-1.637 -2.709,-1.637c-0.922,0 -1.642,0.239 -2.128,0.69c-0.476,0.442 -0.718,1.084 -0.718,1.87c0,0 0,2.409 0,2.409c0,0.791 0.242,1.436 0.719,1.88c0.485,0.452 1.206,0.691 2.127,0.691c1.468,-0 2.343,-0.576 2.719,-1.643c0.007,-0.022 0.013,-0.05 0.017,-0.07c-0.02,-0.011 -0.051,-0.027 -0.074,-0.036l-0.661,-0.23c-0.012,0.022 -0.028,0.052 -0.038,0.079c-0.286,0.783 -0.881,1.213 -1.963,1.213c-0.655,0 -1.16,-0.175 -1.505,-0.483c-0.356,-0.319 -0.555,-0.785 -0.555,-1.39c0,0 0,-2.431 0,-2.431c0,-0.606 0.199,-1.069 0.557,-1.385c0.344,-0.305 0.849,-0.477 1.503,-0.477c1.073,-0 1.681,0.422 1.965,1.21c0.008,0.021 0.019,0.044 0.028,0.063c0.022,-0.004 0.05,-0.01 0.074,-0.017l0.591,-0.204c0.024,-0.009 0.052,-0.023 0.071,-0.033Z"/>
            <g transform="matrix(11,0,0,11,67.4782,159.57)">
                <path d="M0.119,-0.712l-0.007,0c-0.046,0 -0.061,0.014 -0.061,0.06l0,0.009c0,0.046 0.015,0.061 0.061,0.061l0.007,-0c0.046,-0 0.061,-0.015 0.061,-0.061l0,-0.009c0,-0.046 -0.015,-0.06 -0.061,-0.06Zm0.024,0.194l-0.055,-0c-0.023,-0 -0.03,0.007 -0.03,0.03l0,0.457c0,0.023 0.007,0.031 0.03,0.031l0.055,-0c0.023,-0 0.031,-0.008 0.031,-0.031l0,-0.457c0,-0.023 -0.008,-0.03 -0.031,-0.03Z" style="fill-rule:nonzero;"/>
            </g>
            <g transform="matrix(11,0,0,11,70.0192,159.57)">
                <path d="M0.038,-0.372c0,0.13 0.104,0.151 0.202,0.161c0.081,0.008 0.12,0.017 0.12,0.064c0,0.039 -0.035,0.059 -0.106,0.059c-0.061,0 -0.097,-0.016 -0.113,-0.055c-0.01,-0.023 -0.021,-0.026 -0.041,-0.019l-0.045,0.014c-0.023,0.008 -0.028,0.021 -0.02,0.042c0.03,0.078 0.105,0.121 0.223,0.121c0.142,-0 0.216,-0.069 0.216,-0.167c0,-0.122 -0.085,-0.149 -0.204,-0.161c-0.077,-0.007 -0.117,-0.015 -0.117,-0.062c0,-0.036 0.029,-0.054 0.094,-0.054c0.064,-0 0.091,0.022 0.108,0.052c0.013,0.021 0.02,0.024 0.042,0.014l0.045,-0.018c0.022,-0.01 0.028,-0.022 0.016,-0.045c-0.032,-0.065 -0.098,-0.107 -0.214,-0.107c-0.138,-0 -0.206,0.066 -0.206,0.161Z" style="fill-rule:nonzero;"/>
            </g>
            <g transform="matrix(11,0,0,11,77.9722,159.57)">
                <path d="M0.119,-0.712l-0.007,0c-0.046,0 -0.061,0.014 -0.061,0.06l0,0.009c0,0.046 0.015,0.061 0.061,0.061l0.007,-0c0.046,-0 0.061,-0.015 0.061,-0.061l0,-0.009c0,-0.046 -0.015,-0.06 -0.061,-0.06Zm0.024,0.194l-0.055,-0c-0.023,-0 -0.03,0.007 -0.03,0.03l0,0.457c0,0.023 0.007,0.031 0.03,0.031l0.055,-0c0.023,-0 0.031,-0.008 0.031,-0.031l0,-0.457c0,-0.023 -0.008,-0.03 -0.031,-0.03Z" style="fill-rule:nonzero;"/>
            </g>
            <g transform="matrix(11,0,0,11,80.5132,159.57)">
                <path d="M0.095,-0.499c-0.032,0.013 -0.039,0.025 -0.039,0.057l0,0.411c0,0.023 0.008,0.031 0.031,0.031l0.055,-0c0.023,-0 0.03,-0.008 0.03,-0.031l0,-0.373c0,-0.004 0.002,-0.008 0.007,-0.01c0.026,-0.007 0.057,-0.013 0.096,-0.013c0.073,0 0.109,0.032 0.109,0.098l0,0.298c0,0.023 0.007,0.031 0.03,0.031l0.055,-0c0.023,-0 0.031,-0.008 0.031,-0.031l0,-0.301c0,-0.127 -0.066,-0.201 -0.208,-0.201c-0.096,-0 -0.157,0.018 -0.197,0.034Z" style="fill-rule:nonzero;"/>
            </g>
            <g transform="matrix(11,0,0,11,86.5962,159.57)">
                <path d="M0.041,-0.328l0,0.138c0,0.127 0.069,0.205 0.221,0.205c0.121,-0 0.19,-0.048 0.223,-0.133c0.01,-0.025 0.002,-0.036 -0.021,-0.045l-0.045,-0.013c-0.024,-0.008 -0.035,-0.004 -0.044,0.02c-0.016,0.043 -0.051,0.069 -0.109,0.069c-0.072,-0 -0.109,-0.036 -0.109,-0.098l-0,-0.148c-0,-0.063 0.037,-0.098 0.109,-0.098c0.059,-0 0.093,0.025 0.109,0.067c0.009,0.024 0.02,0.031 0.044,0.021l0.044,-0.014c0.023,-0.009 0.03,-0.02 0.022,-0.045c-0.025,-0.075 -0.095,-0.131 -0.214,-0.131c-0.157,-0 -0.23,0.078 -0.23,0.205Z" style="fill-rule:nonzero;"/>
            </g>
            <g transform="matrix(11,0,0,11,92.2832,159.57)">
                <path d="M0.177,-0.031l0,-0.678c0,-0.023 -0.008,-0.031 -0.031,-0.031l-0.054,0c-0.024,0 -0.031,0.008 -0.031,0.031l0,0.678c0,0.023 0.007,0.031 0.031,0.031l0.054,0c0.023,0 0.031,-0.008 0.031,-0.031Z" style="fill-rule:nonzero;"/>
            </g>
            <g transform="matrix(11,0,0,11,94.9012,159.57)">
                <path d="M0.466,-0.518l-0.054,0c-0.023,0 -0.031,0.007 -0.031,0.03l0,0.368c0,0.008 -0.002,0.014 -0.011,0.017c-0.027,0.008 -0.053,0.012 -0.092,0.012c-0.073,0 -0.109,-0.032 -0.109,-0.099l-0,-0.298c-0,-0.023 -0.007,-0.03 -0.03,-0.03l-0.055,0c-0.023,0 -0.031,0.007 -0.031,0.03l-0,0.302c-0,0.126 0.066,0.201 0.209,0.201c0.095,-0 0.156,-0.019 0.196,-0.035c0.032,-0.013 0.039,-0.025 0.039,-0.056l0,-0.412c0,-0.023 -0.008,-0.03 -0.031,-0.03Z" style="fill-rule:nonzero;"/>
            </g>
            <g transform="matrix(11,0,0,11,100.984,159.57)">
                <path d="M0.042,-0.324l0,0.137c0,0.128 0.068,0.202 0.217,0.202c0.091,-0 0.147,-0.017 0.187,-0.032c0.032,-0.013 0.04,-0.022 0.04,-0.055l0,-0.637c0,-0.023 -0.008,-0.031 -0.031,-0.031l-0.055,0c-0.023,0 -0.03,0.008 -0.03,0.031l0,0.189c-0.028,-0.005 -0.07,-0.013 -0.119,-0.013c-0.139,0 -0.209,0.074 -0.209,0.209Zm0.328,-0.09l0,0.301c0,0.006 -0.001,0.008 -0.008,0.011c-0.025,0.007 -0.056,0.011 -0.092,0.011c-0.073,0 -0.112,-0.035 -0.112,-0.1l-0,-0.13c-0,-0.071 0.036,-0.106 0.115,-0.106c0.04,0 0.074,0.008 0.097,0.013Z" style="fill-rule:nonzero;"/>
            </g>
            <g transform="matrix(11,0,0,11,106.946,159.57)">
                <path d="M0.04,-0.317l0,0.118c0,0.123 0.066,0.214 0.23,0.214c0.113,0 0.18,-0.037 0.216,-0.096c0.014,-0.022 0.011,-0.039 -0.012,-0.05l-0.035,-0.019c-0.024,-0.013 -0.035,-0.01 -0.051,0.012c-0.021,0.033 -0.059,0.053 -0.118,0.053c-0.073,-0 -0.114,-0.035 -0.114,-0.1l0,-0.037l0.302,0c0.035,0 0.045,-0.017 0.045,-0.043l0,-0.061c0,-0.115 -0.072,-0.207 -0.231,-0.207c-0.151,0 -0.232,0.077 -0.232,0.216Zm0.347,-0.016l0,0.022l-0.231,0l0,-0.022c0,-0.065 0.041,-0.102 0.116,-0.102c0.076,0 0.115,0.037 0.115,0.102Z" style="fill-rule:nonzero;"/>
            </g>
            <g transform="matrix(11,0,0,11,112.853,159.57)">
                <path d="M0.042,-0.324l0,0.137c0,0.128 0.068,0.202 0.217,0.202c0.091,-0 0.147,-0.017 0.187,-0.032c0.032,-0.013 0.04,-0.022 0.04,-0.055l0,-0.637c0,-0.023 -0.008,-0.031 -0.031,-0.031l-0.055,0c-0.023,0 -0.03,0.008 -0.03,0.031l0,0.189c-0.028,-0.005 -0.07,-0.013 -0.119,-0.013c-0.139,0 -0.209,0.074 -0.209,0.209Zm0.328,-0.09l0,0.301c0,0.006 -0.001,0.008 -0.008,0.011c-0.025,0.007 -0.056,0.011 -0.092,0.011c-0.073,0 -0.112,-0.035 -0.112,-0.1l-0,-0.13c-0,-0.071 0.036,-0.106 0.115,-0.106c0.04,0 0.074,0.008 0.097,0.013Z" style="fill-rule:nonzero;"/>
            </g>
            <g transform="matrix(11,0,0,11,118.793,159.57)">
                <path d="M0.048,-0.836l-0.021,0.043c-0.009,0.022 -0.004,0.03 0.017,0.042c0.048,0.024 0.075,0.058 0.075,0.132l0,0.528c0,0.074 -0.027,0.108 -0.075,0.132c-0.021,0.012 -0.026,0.02 -0.017,0.042l0.021,0.043c0.011,0.022 0.021,0.029 0.042,0.019c0.092,-0.042 0.142,-0.113 0.142,-0.245l0,-0.51c0,-0.132 -0.05,-0.203 -0.142,-0.245c-0.021,-0.01 -0.031,-0.003 -0.042,0.019Z" style="fill-rule:nonzero;"/>
            </g>
            <path d="M69.051,153.872l-0.605,0c-0.253,0 -0.33,0.077 -0.33,0.33l0,5.027c0,0.253 0.077,0.341 0.33,0.341l0.605,0c0.253,0 0.341,-0.088 0.341,-0.341l0,-5.027c0,-0.253 -0.088,-0.33 -0.341,-0.33Zm0.04,0.302l-0.674,-0.001c-0,0.01 -0.001,0.02 -0.001,0.029c0,0 0,5.027 0,5.027c0,0.012 0.001,0.026 0.002,0.04l0.672,-0.001c0.001,-0.013 0.002,-0.027 0.002,-0.039l0,-5.027c0,-0.009 -0,-0.018 -0.001,-0.028Zm-0.304,-2.436l-0.077,0c-0.506,0 -0.671,0.154 -0.671,0.66l0,0.099c0,0.506 0.165,0.671 0.671,0.671l0.077,0c0.506,0 0.671,-0.165 0.671,-0.671l0,-0.099c0,-0.506 -0.165,-0.66 -0.671,-0.66Zm0,0.3c0.149,0 0.255,-0.005 0.316,0.055c0.06,0.059 0.055,0.16 0.055,0.305l0,0.099c0,0.148 0.003,0.252 -0.058,0.313c-0.061,0.061 -0.165,0.058 -0.313,0.058l-0.077,-0c-0.148,-0 -0.252,0.003 -0.313,-0.058c-0.061,-0.061 -0.058,-0.165 -0.058,-0.313l0,-0.099c0,-0.145 -0.005,-0.246 0.055,-0.305c0.062,-0.06 0.167,-0.055 0.316,-0.055l0.077,0Z"/>
            <path d="M70.437,155.478c0,1.43 1.144,1.661 2.222,1.771c0.891,0.088 1.32,0.187 1.32,0.704c0,0.429 -0.385,0.649 -1.166,0.649c-0.671,0 -1.067,-0.176 -1.243,-0.605c-0.11,-0.253 -0.231,-0.286 -0.451,-0.209l-0.495,0.154c-0.253,0.088 -0.308,0.231 -0.22,0.462c0.33,0.858 1.155,1.331 2.453,1.331c1.562,0 2.376,-0.759 2.376,-1.837c0,-1.342 -0.935,-1.639 -2.244,-1.771c-0.847,-0.077 -1.287,-0.165 -1.287,-0.682c0,-0.396 0.319,-0.594 1.034,-0.594c0.704,-0 1.001,0.242 1.188,0.572c0.143,0.231 0.22,0.264 0.462,0.154l0.495,-0.198c0.242,-0.11 0.308,-0.242 0.176,-0.495c-0.352,-0.715 -1.078,-1.177 -2.354,-1.177c-1.518,-0 -2.266,0.726 -2.266,1.771Zm4.376,-0.403c-0.006,-0.017 -0.015,-0.039 -0.025,-0.058c-0.31,-0.63 -0.962,-1.01 -2.085,-1.01c-0.797,0 -1.359,0.207 -1.675,0.588c-0.197,0.238 -0.291,0.54 -0.291,0.883c0,1.231 1.025,1.378 1.952,1.472c0.489,0.049 0.85,0.107 1.089,0.217c0.336,0.154 0.501,0.39 0.501,0.786c0,0.561 -0.444,0.949 -1.466,0.949c-0.832,0 -1.302,-0.259 -1.518,-0.785c-0.008,-0.019 -0.021,-0.042 -0.031,-0.059l-0.544,0.168c-0.016,0.006 -0.035,0.015 -0.049,0.023c0.003,0.015 0.008,0.033 0.013,0.047c0.29,0.755 1.032,1.139 2.173,1.139c1.344,-0 2.076,-0.61 2.076,-1.537c0,-0.333 -0.063,-0.59 -0.189,-0.787c-0.144,-0.224 -0.368,-0.365 -0.644,-0.465c-0.322,-0.117 -0.71,-0.177 -1.138,-0.22c-0.466,-0.043 -0.819,-0.095 -1.056,-0.201c-0.333,-0.148 -0.504,-0.381 -0.504,-0.78c0,-0.533 0.371,-0.894 1.334,-0.894c0.859,-0 1.215,0.314 1.445,0.716l0.037,0.055l0.543,-0.218c0.017,-0.008 0.037,-0.02 0.052,-0.029Z"/>
            <path d="M79.545,153.872l-0.605,0c-0.253,0 -0.33,0.077 -0.33,0.33l0,5.027c0,0.253 0.077,0.341 0.33,0.341l0.605,0c0.253,0 0.341,-0.088 0.341,-0.341l0,-5.027c0,-0.253 -0.088,-0.33 -0.341,-0.33Zm0.04,0.302l-0.674,-0.001c-0,0.01 -0.001,0.02 -0.001,0.029c0,0 0,5.027 0,5.027c0,0.012 0.001,0.026 0.002,0.04l0.672,-0.001c0.001,-0.013 0.002,-0.027 0.002,-0.039l0,-5.027c0,-0.009 -0,-0.018 -0.001,-0.028Zm-0.304,-2.436l-0.077,0c-0.506,0 -0.671,0.154 -0.671,0.66l0,0.099c0,0.506 0.165,0.671 0.671,0.671l0.077,0c0.506,0 0.671,-0.165 0.671,-0.671l0,-0.099c0,-0.506 -0.165,-0.66 -0.671,-0.66Zm0,0.3c0.149,0 0.255,-0.005 0.316,0.055c0.06,0.059 0.055,0.16 0.055,0.305l0,0.099c0,0.148 0.003,0.252 -0.058,0.313c-0.061,0.061 -0.165,0.058 -0.313,0.058l-0.077,-0c-0.148,-0 -0.252,0.003 -0.313,-0.058c-0.061,-0.061 -0.058,-0.165 -0.058,-0.313l0,-0.099c0,-0.145 -0.005,-0.246 0.055,-0.305c0.062,-0.06 0.167,-0.055 0.316,-0.055l0.077,0Z"/>
            <path d="M81.558,154.081c-0.352,0.143 -0.429,0.275 -0.429,0.627l0,4.521c0,0.253 0.088,0.341 0.341,0.341l0.605,0c0.253,0 0.33,-0.088 0.33,-0.341l0,-4.103c0,-0.044 0.022,-0.088 0.077,-0.11c0.286,-0.077 0.627,-0.143 1.056,-0.143c0.803,0 1.199,0.352 1.199,1.078l0,3.278c0,0.253 0.077,0.341 0.33,0.341l0.605,0c0.253,0 0.341,-0.088 0.341,-0.341l0,-3.311c0,-1.397 -0.726,-2.211 -2.288,-2.211c-1.056,0 -1.727,0.198 -2.167,0.374Zm4.153,5.187c0.001,-0.013 0.002,-0.027 0.002,-0.039l0,-3.311c0,-0.606 -0.144,-1.09 -0.471,-1.418c-0.329,-0.33 -0.834,-0.493 -1.517,-0.493c-1.001,0 -1.638,0.186 -2.055,0.352c-0.102,0.042 -0.172,0.069 -0.209,0.124c-0.036,0.053 -0.032,0.125 -0.032,0.225l0,4.521c0,0.012 0.001,0.026 0.002,0.039l0.672,0.001c0.001,-0.014 0.002,-0.028 0.002,-0.04c0,0 0,-4.103 0,-4.103c0,-0.154 0.073,-0.311 0.266,-0.389c0.011,-0.004 0.022,-0.008 0.033,-0.011c0.307,-0.082 0.674,-0.153 1.134,-0.153c0.493,-0 0.856,0.124 1.101,0.343c0.256,0.23 0.398,0.569 0.398,1.035c0,0 0,3.278 0,3.278c0,0.012 0.001,0.026 0.002,0.04l0.672,-0.001Z"/>
            <path d="M87.047,155.962l0,1.518c0,1.397 0.759,2.255 2.431,2.255c1.331,0 2.09,-0.528 2.453,-1.463c0.11,-0.275 0.022,-0.396 -0.231,-0.495l-0.495,-0.143c-0.264,-0.088 -0.385,-0.044 -0.484,0.22c-0.176,0.473 -0.561,0.759 -1.199,0.759c-0.792,0 -1.199,-0.396 -1.199,-1.078l0,-1.628c0,-0.693 0.407,-1.078 1.199,-1.078c0.649,0 1.023,0.275 1.199,0.737c0.099,0.264 0.22,0.341 0.484,0.231l0.484,-0.154c0.253,-0.099 0.33,-0.22 0.242,-0.495c-0.275,-0.825 -1.045,-1.441 -2.354,-1.441c-1.727,0 -2.53,0.858 -2.53,2.255Zm4.616,-0.64c-0.003,-0.021 -0.009,-0.055 -0.016,-0.079c-0.241,-0.721 -0.927,-1.236 -2.07,-1.236c-0.769,0 -1.337,0.176 -1.708,0.523c-0.36,0.336 -0.522,0.828 -0.522,1.432l0,1.518c0,0.606 0.152,1.099 0.498,1.437c0.353,0.344 0.894,0.518 1.633,0.518c1.174,-0 1.854,-0.447 2.175,-1.274c0.008,-0.02 0.015,-0.046 0.019,-0.064c-0.019,-0.011 -0.047,-0.026 -0.071,-0.037l-0.491,-0.141c-0.025,-0.009 -0.057,-0.016 -0.08,-0.021c-0.009,0.018 -0.02,0.041 -0.028,0.061c-0.218,0.587 -0.688,0.954 -1.48,0.954c-0.487,0 -0.852,-0.135 -1.099,-0.362c-0.258,-0.237 -0.4,-0.578 -0.4,-1.016c0,0 0,-1.628 0,-1.628c0,-0.445 0.143,-0.786 0.401,-1.021c0.247,-0.225 0.611,-0.357 1.098,-0.357c0.806,-0 1.261,0.357 1.48,0.932c0.01,0.025 0.025,0.055 0.036,0.076l0.548,-0.176c0.027,-0.011 0.059,-0.029 0.077,-0.039Z"/>
            <path d="M94.23,159.229l0,-7.458c0,-0.253 -0.088,-0.341 -0.341,-0.341l-0.594,0c-0.264,0 -0.341,0.088 -0.341,0.341l0,7.458c0,0.253 0.077,0.341 0.341,0.341l0.594,0c0.253,0 0.341,-0.088 0.341,-0.341Zm-0.302,-7.497l-0.672,0c-0.001,0.013 -0.002,0.027 -0.002,0.039l0,7.458c0,0.012 0.001,0.026 0.002,0.039l0.672,-0c0.001,-0.013 0.002,-0.027 0.002,-0.039c0,0 0,-7.458 0,-7.458c0,-0.012 -0.001,-0.026 -0.002,-0.039Z"/>
            <path d="M100.027,153.872l-0.594,0c-0.253,0 -0.341,0.077 -0.341,0.33l0,4.048c0,0.088 -0.022,0.154 -0.121,0.187c-0.297,0.088 -0.583,0.132 -1.012,0.132c-0.803,0 -1.199,-0.352 -1.199,-1.089l0,-3.278c0,-0.253 -0.077,-0.33 -0.33,-0.33l-0.605,0c-0.253,0 -0.341,0.077 -0.341,0.33l0,3.322c0,1.386 0.726,2.211 2.299,2.211c1.045,-0 1.716,-0.209 2.156,-0.385c0.352,-0.143 0.429,-0.275 0.429,-0.616l0,-4.532c0,-0.253 -0.088,-0.33 -0.341,-0.33Zm-3.568,0.301l-0.674,0.001c-0,0.01 -0.001,0.019 -0.001,0.028c0,-0 0,3.322 0,3.322c0,0.601 0.145,1.084 0.472,1.414c0.331,0.332 0.839,0.497 1.527,0.497c0.991,-0 1.628,-0.197 2.043,-0.363c0.103,-0.042 0.174,-0.069 0.211,-0.124c0.035,-0.052 0.031,-0.12 0.031,-0.214c0,0 0,-4.532 0,-4.532c0,-0.009 -0,-0.018 -0.001,-0.028l-0.674,0c-0,0.01 -0.001,0.019 -0.001,0.028l0,4.048c0,0.129 -0.033,0.235 -0.101,0.32c-0.05,0.062 -0.119,0.116 -0.225,0.152l-0.01,0.003c-0.322,0.095 -0.632,0.144 -1.097,0.144c-0.493,0 -0.857,-0.124 -1.102,-0.346c-0.254,-0.23 -0.397,-0.572 -0.397,-1.043l0,-3.278c0,-0.009 -0,-0.019 -0.001,-0.029Z"/>
            <path d="M101.446,156.006l0,1.507c0,1.408 0.748,2.222 2.387,2.222c1.001,0 1.617,-0.187 2.057,-0.352c0.352,-0.143 0.44,-0.242 0.44,-0.605l0,-7.007c0,-0.253 -0.088,-0.341 -0.341,-0.341l-0.605,0c-0.253,0 -0.33,0.088 -0.33,0.341l0,2.079c-0.308,-0.055 -0.77,-0.143 -1.309,-0.143c-1.529,-0 -2.299,0.814 -2.299,2.299Zm4.582,-4.274l-0.672,-0.001c-0.001,0.014 -0.002,0.028 -0.002,0.04l0,2.079c0,0.089 -0.039,0.173 -0.107,0.23c-0.068,0.057 -0.158,0.081 -0.246,0.065c-0.295,-0.052 -0.738,-0.138 -1.256,-0.138c-0.667,0 -1.174,0.163 -1.509,0.503c-0.335,0.34 -0.49,0.847 -0.49,1.496c0,0 0,1.507 0,1.507c0,0.609 0.149,1.095 0.488,1.423c0.345,0.335 0.877,0.499 1.599,0.499c0.948,-0 1.532,-0.176 1.95,-0.332c0.105,-0.043 0.179,-0.067 0.219,-0.12c0.035,-0.046 0.028,-0.11 0.028,-0.205c0,0 0,-7.007 0,-7.007c0,-0.012 -0.001,-0.026 -0.002,-0.039Zm-0.674,3.284c0,-0.141 -0.098,-0.263 -0.236,-0.293c-0.268,-0.058 -0.665,-0.15 -1.131,-0.15c-0.53,-0 -0.91,0.134 -1.163,0.371c-0.261,0.244 -0.402,0.604 -0.402,1.095l0,1.43c0,0.457 0.15,0.804 0.415,1.042c0.254,0.227 0.626,0.358 1.117,0.358c0.428,0 0.796,-0.049 1.093,-0.132c0.013,-0.004 0.025,-0.008 0.037,-0.013c0.112,-0.048 0.166,-0.102 0.202,-0.153c0.042,-0.061 0.068,-0.132 0.068,-0.244l0,-3.311Zm-0.3,0l0,3.311c0,0.066 -0.011,0.088 -0.088,0.121c-0.275,0.077 -0.616,0.121 -1.012,0.121c-0.803,0 -1.232,-0.385 -1.232,-1.1l0,-1.43c0,-0.781 0.396,-1.166 1.265,-1.166c0.44,0 0.814,0.088 1.067,0.143Z"/>
            <path d="M107.386,156.083l0,1.298c0,1.353 0.726,2.354 2.53,2.354c1.243,0 1.98,-0.407 2.376,-1.056c0.154,-0.242 0.121,-0.429 -0.132,-0.55l-0.385,-0.209c-0.264,-0.143 -0.385,-0.11 -0.561,0.132c-0.231,0.363 -0.649,0.583 -1.298,0.583c-0.803,0 -1.254,-0.385 -1.254,-1.1l0,-0.407l3.322,0c0.385,0 0.495,-0.187 0.495,-0.473l0,-0.671c0,-1.265 -0.792,-2.277 -2.541,-2.277c-1.661,0 -2.552,0.847 -2.552,2.376Zm4.073,2.142c-0.279,0.43 -0.77,0.71 -1.543,0.71c-0.488,0 -0.866,-0.13 -1.125,-0.356c-0.273,-0.238 -0.429,-0.586 -0.429,-1.044l0,-0.407c0,-0.166 0.135,-0.3 0.3,-0.3l3.322,-0c0.081,-0 0.139,0.003 0.171,-0.032c0.03,-0.033 0.024,-0.084 0.024,-0.141l0,-0.671c0,-0.548 -0.164,-1.043 -0.525,-1.399c-0.37,-0.366 -0.939,-0.578 -1.716,-0.578c-0.739,0 -1.311,0.175 -1.694,0.534c-0.375,0.351 -0.558,0.874 -0.558,1.542l0,1.298c0,0.591 0.148,1.109 0.504,1.475c0.361,0.372 0.927,0.579 1.726,0.579c1.103,-0 1.769,-0.336 2.123,-0.917c0.017,-0.027 0.033,-0.067 0.041,-0.088c-0.012,-0.009 -0.033,-0.022 -0.049,-0.03l-0.399,-0.216c-0.033,-0.018 -0.077,-0.035 -0.099,-0.044c-0.017,0.018 -0.05,0.053 -0.074,0.085Zm0.044,-2.318c0,-0.455 -0.148,-0.808 -0.418,-1.052c-0.258,-0.232 -0.638,-0.37 -1.147,-0.37c-0.501,-0 -0.884,0.136 -1.146,0.368c-0.275,0.244 -0.43,0.598 -0.43,1.054l0,0.242c0,0.166 0.135,0.3 0.3,0.3l2.541,0c0.166,0 0.3,-0.134 0.3,-0.3l0,-0.242Zm-0.3,0l0,0.242l-2.541,0l0,-0.242c0,-0.715 0.451,-1.122 1.276,-1.122c0.836,0 1.265,0.407 1.265,1.122Z"/>
            <path d="M113.315,156.006l0,1.507c0,1.408 0.748,2.222 2.387,2.222c1.001,0 1.617,-0.187 2.057,-0.352c0.352,-0.143 0.44,-0.242 0.44,-0.605l0,-7.007c0,-0.253 -0.088,-0.341 -0.341,-0.341l-0.605,0c-0.253,0 -0.33,0.088 -0.33,0.341l0,2.079c-0.308,-0.055 -0.77,-0.143 -1.309,-0.143c-1.529,-0 -2.299,0.814 -2.299,2.299Zm4.582,-4.274l-0.672,-0.001c-0.001,0.014 -0.002,0.028 -0.002,0.04l0,2.079c0,0.089 -0.039,0.173 -0.107,0.23c-0.068,0.057 -0.158,0.081 -0.246,0.065c-0.295,-0.052 -0.738,-0.138 -1.256,-0.138c-0.667,0 -1.174,0.163 -1.509,0.503c-0.335,0.34 -0.49,0.847 -0.49,1.496c0,0 0,1.507 0,1.507c0,0.609 0.149,1.095 0.488,1.423c0.345,0.335 0.877,0.499 1.599,0.499c0.948,-0 1.532,-0.176 1.95,-0.332c0.105,-0.043 0.179,-0.067 0.219,-0.12c0.035,-0.046 0.028,-0.11 0.028,-0.205l0,-7.007c0,-0.012 -0.001,-0.026 -0.002,-0.039Zm-0.674,3.284c0,-0.141 -0.098,-0.263 -0.236,-0.293c-0.268,-0.058 -0.665,-0.15 -1.131,-0.15c-0.53,-0 -0.91,0.134 -1.163,0.371c-0.261,0.244 -0.402,0.604 -0.402,1.095c0,-0 0,1.43 0,1.43c0,0.457 0.15,0.804 0.415,1.042c0.254,0.227 0.626,0.358 1.117,0.358c0.428,0 0.796,-0.049 1.093,-0.132c0.013,-0.004 0.025,-0.008 0.037,-0.013c0.112,-0.048 0.166,-0.102 0.202,-0.153c0.042,-0.061 0.068,-0.132 0.068,-0.244c0,0 0,-3.311 0,-3.311Zm-0.3,0l0,3.311c0,0.066 -0.011,0.088 -0.088,0.121c-0.275,0.077 -0.616,0.121 -1.012,0.121c-0.803,0 -1.232,-0.385 -1.232,-1.1l0,-1.43c0,-0.781 0.396,-1.166 1.265,-1.166c0.44,0 0.814,0.088 1.067,0.143Z"/>
            <path d="M119.321,150.374l-0.231,0.473c-0.099,0.242 -0.044,0.33 0.187,0.462c0.528,0.264 0.825,0.638 0.825,1.452l0,5.808c0,0.814 -0.297,1.188 -0.825,1.452c-0.231,0.132 -0.286,0.22 -0.187,0.462l0.231,0.473c0.121,0.242 0.231,0.319 0.462,0.209c1.012,-0.462 1.562,-1.243 1.562,-2.695l0,-5.61c0,-1.452 -0.55,-2.233 -1.562,-2.695c-0.231,-0.11 -0.341,-0.033 -0.462,0.209Zm0.316,0.054c-0.015,0.022 -0.034,0.053 -0.047,0.08l-0.227,0.465l-0.009,0.029c0.019,0.013 0.045,0.031 0.068,0.044c0.621,0.314 0.98,0.753 0.98,1.715l0,5.808c0,0.962 -0.359,1.401 -0.98,1.715c-0.023,0.013 -0.049,0.031 -0.068,0.044l0.011,0.034l0.225,0.46c0.013,0.027 0.032,0.057 0.047,0.079c0.007,-0.002 0.015,-0.006 0.022,-0.009c0.906,-0.414 1.386,-1.121 1.386,-2.422l0,-5.61c0,-1.301 -0.48,-2.008 -1.391,-2.424c-0.005,-0.003 -0.011,-0.005 -0.017,-0.008Z"/>
        </g>
    </g>
    <g id="tree_05">
        <g id="edges5" serif:id="edges">
        </g>
        <g id="nodes5" serif:id="nodes">
            <g id="BlueNode6" serif:id="BlueNode">
            </g>
            <g id="BlueNode7" serif:id="BlueNode">
            </g>
            <g id="BlueNode8" serif:id="BlueNode">
            </g>
            <g id="BlueNode9" serif:id="BlueNode">
            </g>
            <g id="BlueNode10" serif:id="BlueNode">
            </g>
            <g id="BlueNode11" serif:id="BlueNode">
            </g>
            <g id="YellowNode1" serif:id="YellowNode">
            </g>
            <g id="RedNode">
            </g>
            <g id="RedNode1" serif:id="RedNode">
            </g>
            <g id="RedNode2" serif:id="RedNode">
            </g>
            <g id="RedNode3" serif:id="RedNode">
            </g>
            <g id="GreenNode1" serif:id="GreenNode">
            </g>
            <g id="Node69" serif:id="Node">
            </g>
            <g id="Node70" serif:id="Node">
            </g>
            <g id="Node71" serif:id="Node">
            </g>
            <g id="Node72" serif:id="Node">
            </g>
            <g id="Node73" serif:id="Node">
            </g>
            <g id="Node74" serif:id="Node">
            </g>
        </g>
    </g>
    <g id="tree_04">
        <g id="edges6" serif:id="edges">
        </g>
        <g id="nodes6" serif:id="nodes">
            <g id="YellowNode2" serif:id="YellowNode">
            </g>
            <g id="YellowNode3" serif:id="YellowNode">
            </g>
            <g id="RedNode4" serif:id="RedNode">
            </g>
            <g id="GreenNode2" serif:id="GreenNode">
            </g>
            <g id="GreenNode3" serif:id="GreenNode">
            </g>
            <g id="Node75" serif:id="Node">
            </g>
            <g id="Node76" serif:id="Node">
            </g>
            <g id="Node77" serif:id="Node">
            </g>
            <g id="Node78" serif:id="Node">
            </g>
            <g id="Node79" serif:id="Node">
            </g>
            <g id="Node80" serif:id="Node">
            </g>
            <g id="Node81" serif:id="Node">
            </g>
            <g id="Node82" serif:id="Node">
            </g>
            <g id="Node83" serif:id="Node">
            </g>
            <g id="Node84" serif:id="Node">
            </g>
            <g id="Node85" serif:id="Node">
            </g>
            <g id="Node86" serif:id="Node">
            </g>
            <g id="Node87" serif:id="Node">
            </g>
        </g>
    </g>
    <g>
        <g id="edges7" serif:id="edges">
        </g>
        <g id="nodes7" serif:id="nodes">
            <g id="Node88" serif:id="Node">
            </g>
            <g id="Node89" serif:id="Node">
            </g>
            <g id="Node90" serif:id="Node">
            </g>
            <g id="Node91" serif:id="Node">
            </g>
            <g id="Node92" serif:id="Node">
            </g>
            <g id="Node93" serif:id="Node">
            </g>
            <g id="Node94" serif:id="Node">
            </g>
            <g id="Node95" serif:id="Node">
            </g>
            <g id="Node96" serif:id="Node">
            </g>
            <g id="Node97" serif:id="Node">
            </g>
            <g id="Node98" serif:id="Node">
            </g>
            <g id="Node99" serif:id="Node">
            </g>
            <g id="Node100" serif:id="Node">
            </g>
            <g id="Node101" serif:id="Node">
            </g>
            <g id="Node102" serif:id="Node">
            </g>
            <g id="Node103" serif:id="Node">
            </g>
            <g id="Node104" serif:id="Node">
            </g>
        </g>
    </g>
    <g id="tree_02">
        <g id="edges8" serif:id="edges">
        </g>
        <g id="nodes8" serif:id="nodes">
            <g id="Node105" serif:id="Node">
            </g>
            <g id="Node106" serif:id="Node">
            </g>
            <g id="Node107" serif:id="Node">
            </g>
            <g id="Node108" serif:id="Node">
            </g>
            <g id="Node109" serif:id="Node">
            </g>
            <g id="Node110" serif:id="Node">
            </g>
            <g id="Node111" serif:id="Node">
            </g>
            <g id="Node112" serif:id="Node">
            </g>
            <g id="Node113" serif:id="Node">
            </g>
            <g id="Node114" serif:id="Node">
            </g>
            <g id="Node115" serif:id="Node">
            </g>
            <g id="Node116" serif:id="Node">
            </g>
            <g id="Node117" serif:id="Node">
            </g>
            <g id="Node118" serif:id="Node">
            </g>
            <g id="Node119" serif:id="Node">
            </g>
            <g id="Node120" serif:id="Node">
            </g>
            <g id="Node121" serif:id="Node">
            </g>
            <g id="Node122" serif:id="Node">
            </g>
        </g>
    </g>
    <g id="tree_01">
        <g id="edges9" serif:id="edges">
        </g>
        <g id="nodes9" serif:id="nodes">
            <g id="Node123" serif:id="Node">
            </g>
            <g id="Node124" serif:id="Node">
            </g>
            <g id="Node125" serif:id="Node">
            </g>
            <g id="Node126" serif:id="Node">
            </g>
            <g id="Node127" serif:id="Node">
            </g>
            <g id="Node128" serif:id="Node">
            </g>
            <g id="Node129" serif:id="Node">
            </g>
            <g id="Node130" serif:id="Node">
            </g>
            <g id="Node131" serif:id="Node">
            </g>
            <g id="Node132" serif:id="Node">
            </g>
            <g id="Node133" serif:id="Node">
            </g>
            <g id="Node134" serif:id="Node">
            </g>
            <g id="Node135" serif:id="Node">
            </g>
            <g id="Node136" serif:id="Node">
            </g>
            <g id="Node137" serif:id="Node">
            </g>
            <g id="Node138" serif:id="Node">
            </g>
            <g id="Node139" serif:id="Node">
            </g>
            <g id="Node140" serif:id="Node">
            </g>
        </g>
    </g>
    <g id="graph_02">
        <g id="edges10" serif:id="edges">
        </g>
        <g id="nodes10" serif:id="nodes">
            <g id="Node141" serif:id="Node">
            </g>
            <g id="Node142" serif:id="Node">
            </g>
            <g id="Node143" serif:id="Node">
            </g>
            <g id="Node144" serif:id="Node">
            </g>
            <g id="Node145" serif:id="Node">
            </g>
            <g id="Node146" serif:id="Node">
            </g>
        </g>
    </g>
    <g id="graph_01">
        <g id="edges11" serif:id="edges">
        </g>
        <g id="nodes11" serif:id="nodes">
            <g id="Node147" serif:id="Node">
            </g>
            <g id="Node148" serif:id="Node">
            </g>
            <g id="Node149" serif:id="Node">
            </g>
            <g id="Node150" serif:id="Node">
            </g>
            <g id="Node151" serif:id="Node">
            </g>
            <g id="Node152" serif:id="Node">
            </g>
        </g>
    </g>
    <g id="traversal_01">
        <g id="edges12" serif:id="edges">
        </g>
        <g id="Node153" serif:id="Node">
        </g>
        <g id="Node154" serif:id="Node">
        </g>
        <g id="Node155" serif:id="Node">
        </g>
        <g id="Node156" serif:id="Node">
        </g>
        <g id="Node157" serif:id="Node">
        </g>
        <g id="Node158" serif:id="Node">
        </g>
        <g id="Node159" serif:id="Node">
        </g>
        <g id="Node160" serif:id="Node">
        </g>
        <g id="Node161" serif:id="Node">
        </g>
        <g id="Node162" serif:id="Node">
        </g>
        <g id="Node163" serif:id="Node">
        </g>
        <g id="Node164" serif:id="Node">
        </g>
        <g id="Node165" serif:id="Node">
        </g>
        <g id="Node166" serif:id="Node">
        </g>
        <g id="Node167" serif:id="Node">
        </g>
        <g id="Node168" serif:id="Node">
        </g>
        <g id="Node169" serif:id="Node">
        </g>
        <g id="Node170" serif:id="Node">
        </g>
        <g id="BlueNode12" serif:id="BlueNode">
        </g>
        <g id="BlueNode13" serif:id="BlueNode">
        </g>
        <g id="BlueNode14" serif:id="BlueNode">
        </g>
        <g id="BlueNode15" serif:id="BlueNode">
        </g>
        <g id="BlueNode16" serif:id="BlueNode">
        </g>
        <g id="BlueNode17" serif:id="BlueNode">
        </g>
        <g id="BlueNode18" serif:id="BlueNode">
        </g>
        <g id="BlueNode19" serif:id="BlueNode">
        </g>
        <g id="BlueNode20" serif:id="BlueNode">
        </g>
        <g id="BlueNode21" serif:id="BlueNode">
        </g>
        <g id="BlueNode22" serif:id="BlueNode">
        </g>
        <g id="BlueNode23" serif:id="BlueNode">
        </g>
        <g id="BlueNode24" serif:id="BlueNode">
        </g>
        <g id="BlueNode25" serif:id="BlueNode">
        </g>
        <g id="BlueNode26" serif:id="BlueNode">
        </g>
        <g id="BlueNode27" serif:id="BlueNode">
        </g>
        <g id="BlueNode28" serif:id="BlueNode">
        </g>
        <g id="BlueNode29" serif:id="BlueNode">
        </g>
    </g>
    <g id="traversal_02">
        <g id="edges13" serif:id="edges">
        </g>
        <g id="Node171" serif:id="Node">
        </g>
        <g id="Node172" serif:id="Node">
        </g>
        <g id="Node173" serif:id="Node">
        </g>
        <g id="Node174" serif:id="Node">
        </g>
        <g id="Node175" serif:id="Node">
        </g>
        <g id="Node176" serif:id="Node">
        </g>
        <g id="Node177" serif:id="Node">
        </g>
        <g id="Node178" serif:id="Node">
        </g>
        <g id="Node179" serif:id="Node">
        </g>
        <g id="Node180" serif:id="Node">
        </g>
        <g id="Node181" serif:id="Node">
        </g>
        <g id="Node182" serif:id="Node">
        </g>
        <g id="Node183" serif:id="Node">
        </g>
        <g id="Node184" serif:id="Node">
        </g>
        <g id="Node185" serif:id="Node">
        </g>
        <g id="Node186" serif:id="Node">
        </g>
        <g id="Node187" serif:id="Node">
        </g>
        <g id="Node188" serif:id="Node">
        </g>
        <g id="BlueNode30" serif:id="BlueNode">
        </g>
        <g id="BlueNode31" serif:id="BlueNode">
        </g>
        <g id="BlueNode32" serif:id="BlueNode">
        </g>
        <g id="BlueNode33" serif:id="BlueNode">
        </g>
        <g id="BlueNode34" serif:id="BlueNode">
        </g>
        <g id="BlueNode35" serif:id="BlueNode">
        </g>
        <g id="BlueNode36" serif:id="BlueNode">
        </g>
        <g id="BlueNode37" serif:id="BlueNode">
        </g>
        <g id="BlueNode38" serif:id="BlueNode">
        </g>
        <g id="BlueNode39" serif:id="BlueNode">
        </g>
    </g>
    <g id="traversal_05">
        <g id="edges14" serif:id="edges">
        </g>
        <g id="Node189" serif:id="Node">
        </g>
        <g id="Node190" serif:id="Node">
        </g>
        <g id="Node191" serif:id="Node">
        </g>
        <g id="Node192" serif:id="Node">
        </g>
        <g id="Node193" serif:id="Node">
        </g>
        <g id="Node194" serif:id="Node">
        </g>
        <g id="Node195" serif:id="Node">
        </g>
        <g id="Node196" serif:id="Node">
        </g>
        <g id="Node197" serif:id="Node">
        </g>
        <g id="Node198" serif:id="Node">
        </g>
        <g id="Node199" serif:id="Node">
        </g>
        <g id="Node200" serif:id="Node">
        </g>
        <g id="Node201" serif:id="Node">
        </g>
        <g id="Node202" serif:id="Node">
        </g>
        <g id="Node203" serif:id="Node">
        </g>
        <g id="Node204" serif:id="Node">
        </g>
        <g id="Node205" serif:id="Node">
        </g>
        <g id="Node206" serif:id="Node">
        </g>
        <g id="BlueNode40" serif:id="BlueNode">
        </g>
    </g>
    <g id="traversal_06">
        <g id="edges15" serif:id="edges">
        </g>
        <g id="Node207" serif:id="Node">
        </g>
        <g id="Node208" serif:id="Node">
        </g>
        <g id="Node209" serif:id="Node">
        </g>
        <g id="Node210" serif:id="Node">
        </g>
        <g id="Node211" serif:id="Node">
        </g>
        <g id="Node212" serif:id="Node">
        </g>
        <g id="Node213" serif:id="Node">
        </g>
        <g id="Node214" serif:id="Node">
        </g>
        <g id="Node215" serif:id="Node">
        </g>
        <g id="Node216" serif:id="Node">
        </g>
        <g id="Node217" serif:id="Node">
        </g>
        <g id="Node218" serif:id="Node">
        </g>
        <g id="Node219" serif:id="Node">
        </g>
        <g id="Node220" serif:id="Node">
        </g>
        <g id="Node221" serif:id="Node">
        </g>
        <g id="Node222" serif:id="Node">
        </g>
        <g id="Node223" serif:id="Node">
        </g>
        <g id="Node224" serif:id="Node">
        </g>
        <g id="BlueNode41" serif:id="BlueNode">
        </g>
        <g id="BlueNode42" serif:id="BlueNode">
        </g>
        <g id="BlueNode43" serif:id="BlueNode">
        </g>
        <g id="BlueNode44" serif:id="BlueNode">
        </g>
        <g id="BlueNode45" serif:id="BlueNode">
        </g>
        <g id="BlueNode46" serif:id="BlueNode">
        </g>
    </g>
    <g id="traversal_03">
        <g id="edges16" serif:id="edges">
        </g>
        <g id="Node225" serif:id="Node">
        </g>
        <g id="Node226" serif:id="Node">
        </g>
        <g id="Node227" serif:id="Node">
        </g>
        <g id="Node228" serif:id="Node">
        </g>
        <g id="Node229" serif:id="Node">
        </g>
        <g id="Node230" serif:id="Node">
        </g>
        <g id="Node231" serif:id="Node">
        </g>
        <g id="Node232" serif:id="Node">
        </g>
        <g id="Node233" serif:id="Node">
        </g>
        <g id="Node234" serif:id="Node">
        </g>
        <g id="Node235" serif:id="Node">
        </g>
        <g id="Node236" serif:id="Node">
        </g>
        <g id="Node237" serif:id="Node">
        </g>
        <g id="Node238" serif:id="Node">
        </g>
        <g id="Node239" serif:id="Node">
        </g>
        <g id="Node240" serif:id="Node">
        </g>
        <g id="Node241" serif:id="Node">
        </g>
        <g id="Node242" serif:id="Node">
        </g>
        <g id="BlueNode47" serif:id="BlueNode">
        </g>
        <g id="BlueNode48" serif:id="BlueNode">
        </g>
        <g id="BlueNode49" serif:id="BlueNode">
        </g>
    </g>
    <g id="traversal_04">
        <g id="edges17" serif:id="edges">
        </g>
        <g id="Node243" serif:id="Node">
        </g>
        <g id="Node244" serif:id="Node">
        </g>
        <g id="Node245" serif:id="Node">
        </g>
        <g id="Node246" serif:id="Node">
        </g>
        <g id="Node247" serif:id="Node">
        </g>
        <g id="Node248" serif:id="Node">
        </g>
        <g id="Node249" serif:id="Node">
        </g>
        <g id="Node250" serif:id="Node">
        </g>
        <g id="Node251" serif:id="Node">
        </g>
        <g id="Node252" serif:id="Node">
        </g>
        <g id="Node253" serif:id="Node">
        </g>
        <g id="Node254" serif:id="Node">
        </g>
        <g id="Node255" serif:id="Node">
        </g>
        <g id="Node256" serif:id="Node">
        </g>
        <g id="Node257" serif:id="Node">
        </g>
        <g id="Node258" serif:id="Node">
        </g>
        <g id="Node259" serif:id="Node">
        </g>
        <g id="Node260" serif:id="Node">
        </g>
        <g id="BlueNode50" serif:id="BlueNode">
        </g>
    </g>
    <g id="traversal_07">
        <g id="edges18" serif:id="edges">
        </g>
        <g id="Node261" serif:id="Node">
        </g>
        <g id="Node262" serif:id="Node">
        </g>
        <g id="Node263" serif:id="Node">
        </g>
        <g id="Node264" serif:id="Node">
        </g>
        <g id="Node265" serif:id="Node">
        </g>
        <g id="Node266" serif:id="Node">
        </g>
        <g id="Node267" serif:id="Node">
        </g>
        <g id="Node268" serif:id="Node">
        </g>
        <g id="Node269" serif:id="Node">
        </g>
        <g id="Node270" serif:id="Node">
        </g>
        <g id="Node271" serif:id="Node">
        </g>
        <g id="Node272" serif:id="Node">
        </g>
        <g id="Node273" serif:id="Node">
        </g>
        <g id="Node274" serif:id="Node">
        </g>
        <g id="Node275" serif:id="Node">
        </g>
        <g id="Node276" serif:id="Node">
        </g>
        <g id="Node277" serif:id="Node">
        </g>
        <g id="Node278" serif:id="Node">
        </g>
        <g id="BlueNode51" serif:id="BlueNode">
        </g>
        <g id="BlueNode52" serif:id="BlueNode">
        </g>
        <g id="BlueNode53" serif:id="BlueNode">
        </g>
        <g id="BlueNode54" serif:id="BlueNode">
        </g>
    </g>
    <g id="traversal_08">
        <g id="edges19" serif:id="edges">
        </g>
        <g id="Node279" serif:id="Node">
        </g>
        <g id="Node280" serif:id="Node">
        </g>
        <g id="Node281" serif:id="Node">
        </g>
        <g id="Node282" serif:id="Node">
        </g>
        <g id="Node283" serif:id="Node">
        </g>
        <g id="Node284" serif:id="Node">
        </g>
        <g id="Node285" serif:id="Node">
        </g>
        <g id="Node286" serif:id="Node">
        </g>
        <g id="Node287" serif:id="Node">
        </g>
        <g id="Node288" serif:id="Node">
        </g>
        <g id="Node289" serif:id="Node">
        </g>
        <g id="Node290" serif:id="Node">
        </g>
        <g id="Node291" serif:id="Node">
        </g>
        <g id="Node292" serif:id="Node">
        </g>
        <g id="Node293" serif:id="Node">
        </g>
        <g id="Node294" serif:id="Node">
        </g>
        <g id="Node295" serif:id="Node">
        </g>
        <g id="Node296" serif:id="Node">
        </g>
        <g id="BlueNode55" serif:id="BlueNode">
        </g>
    </g>
    <g id="traversal_09">
        <g id="edges20" serif:id="edges">
        </g>
        <g id="Node297" serif:id="Node">
        </g>
        <g id="Node298" serif:id="Node">
        </g>
        <g id="Node299" serif:id="Node">
        </g>
        <g id="Node300" serif:id="Node">
        </g>
        <g id="Node301" serif:id="Node">
        </g>
        <g id="Node302" serif:id="Node">
        </g>
        <g id="Node303" serif:id="Node">
        </g>
        <g id="Node304" serif:id="Node">
        </g>
        <g id="Node305" serif:id="Node">
        </g>
        <g id="Node306" serif:id="Node">
        </g>
        <g id="Node307" serif:id="Node">
        </g>
        <g id="Node308" serif:id="Node">
        </g>
        <g id="Node309" serif:id="Node">
        </g>
        <g id="Node310" serif:id="Node">
        </g>
        <g id="Node311" serif:id="Node">
        </g>
        <g id="Node312" serif:id="Node">
        </g>
        <g id="Node313" serif:id="Node">
        </g>
        <g id="Node314" serif:id="Node">
        </g>
        <g id="BlueNode56" serif:id="BlueNode">
        </g>
        <g id="BlueNode57" serif:id="BlueNode">
        </g>
    </g>
    <g id="traversal_10">
        <g id="edges21" serif:id="edges">
        </g>
        <g id="Node315" serif:id="Node">
        </g>
        <g id="Node316" serif:id="Node">
        </g>
        <g id="Node317" serif:id="Node">
        </g>
        <g id="Node318" serif:id="Node">
        </g>
        <g id="Node319" serif:id="Node">
        </g>
        <g id="Node320" serif:id="Node">
        </g>
        <g id="Node321" serif:id="Node">
        </g>
        <g id="Node322" serif:id="Node">
        </g>
        <g id="Node323" serif:id="Node">
        </g>
        <g id="Node324" serif:id="Node">
        </g>
        <g id="Node325" serif:id="Node">
        </g>
        <g id="Node326" serif:id="Node">
        </g>
        <g id="Node327" serif:id="Node">
        </g>
        <g id="Node328" serif:id="Node">
        </g>
        <g id="Node329" serif:id="Node">
        </g>
        <g id="Node330" serif:id="Node">
        </g>
        <g id="Node331" serif:id="Node">
        </g>
        <g id="Node332" serif:id="Node">
        </g>
        <g id="BlueNode58" serif:id="BlueNode">
        </g>
        <g id="BlueNode59" serif:id="BlueNode">
        </g>
        <g id="BlueNode60" serif:id="BlueNode">
        </g>
        <g id="BlueNode61" serif:id="BlueNode">
        </g>
    </g>
    <g id="traversal_11">
        <g id="edges22" serif:id="edges">
        </g>
        <g id="Node333" serif:id="Node">
        </g>
        <g id="Node334" serif:id="Node">
        </g>
        <g id="Node335" serif:id="Node">
        </g>
        <g id="Node336" serif:id="Node">
        </g>
        <g id="Node337" serif:id="Node">
        </g>
        <g id="Node338" serif:id="Node">
        </g>
        <g id="Node339" serif:id="Node">
        </g>
        <g id="Node340" serif:id="Node">
        </g>
        <g id="Node341" serif:id="Node">
        </g>
        <g id="Node342" serif:id="Node">
        </g>
        <g id="Node343" serif:id="Node">
        </g>
        <g id="Node344" serif:id="Node">
        </g>
        <g id="Node345" serif:id="Node">
        </g>
        <g id="Node346" serif:id="Node">
        </g>
        <g id="Node347" serif:id="Node">
        </g>
        <g id="Node348" serif:id="Node">
        </g>
        <g id="BlueNode62" serif:id="BlueNode">
        </g>
        <g id="BlueNode63" serif:id="BlueNode">
        </g>
        <g id="BlueNode64" serif:id="BlueNode">
        </g>
        <g id="BlueNode65" serif:id="BlueNode">
        </g>
        <g id="BlueNode66" serif:id="BlueNode">
        </g>
        <g id="BlueNode67" serif:id="BlueNode">
        </g>
        <g id="BlueNode68" serif:id="BlueNode">
        </g>
        <g id="Node349" serif:id="Node">
        </g>
        <g id="Node350" serif:id="Node">
        </g>
    </g>
    <g id="traversal_12">
        <g id="edges23" serif:id="edges">
        </g>
        <g id="Node351" serif:id="Node">
        </g>
        <g id="Node352" serif:id="Node">
        </g>
        <g id="Node353" serif:id="Node">
        </g>
        <g id="Node354" serif:id="Node">
        </g>
        <g id="Node355" serif:id="Node">
        </g>
        <g id="Node356" serif:id="Node">
        </g>
        <g id="Node357" serif:id="Node">
        </g>
        <g id="Node358" serif:id="Node">
        </g>
        <g id="Node359" serif:id="Node">
        </g>
        <g id="Node360" serif:id="Node">
        </g>
        <g id="Node361" serif:id="Node">
        </g>
        <g id="Node362" serif:id="Node">
        </g>
        <g id="Node363" serif:id="Node">
        </g>
        <g id="Node364" serif:id="Node">
        </g>
        <g id="Node365" serif:id="Node">
        </g>
        <g id="Node366" serif:id="Node">
        </g>
        <g id="Node367" serif:id="Node">
        </g>
        <g id="Node368" serif:id="Node">
        </g>
        <g id="BlueNode69" serif:id="BlueNode">
        </g>
        <g id="BlueNode70" serif:id="BlueNode">
        </g>
    </g>
    <g id="traversal_13">
        <g id="edges24" serif:id="edges">
        </g>
        <g id="Node369" serif:id="Node">
        </g>
        <g id="Node370" serif:id="Node">
        </g>
        <g id="Node371" serif:id="Node">
        </g>
        <g id="Node372" serif:id="Node">
        </g>
        <g id="Node373" serif:id="Node">
        </g>
        <g id="Node374" serif:id="Node">
        </g>
        <g id="Node375" serif:id="Node">
        </g>
        <g id="Node376" serif:id="Node">
        </g>
        <g id="Node377" serif:id="Node">
        </g>
        <g id="Node378" serif:id="Node">
        </g>
        <g id="Node379" serif:id="Node">
        </g>
        <g id="Node380" serif:id="Node">
        </g>
        <g id="Node381" serif:id="Node">
        </g>
        <g id="Node382" serif:id="Node">
        </g>
        <g id="Node383" serif:id="Node">
        </g>
        <g id="Node384" serif:id="Node">
        </g>
        <g id="Node385" serif:id="Node">
        </g>
        <g id="Node386" serif:id="Node">
        </g>
        <g id="BlueNode71" serif:id="BlueNode">
        </g>
        <g id="BlueNode72" serif:id="BlueNode">
        </g>
    </g>
</svg>
