<?xml version="1.0" encoding="UTF-8" standalone="no"?>
<!DOCTYPE svg PUBLIC "-//W3C//DTD SVG 1.1//EN" "http://www.w3.org/Graphics/SVG/1.1/DTD/svg11.dtd">
<svg width="100%" height="100%" viewBox="0 0 400 200" version="1.1" xmlns="http://www.w3.org/2000/svg" xmlns:xlink="http://www.w3.org/1999/xlink" xml:space="preserve" xmlns:serif="http://www.serif.com/" style="fill-rule:evenodd;clip-rule:evenodd;stroke-linecap:round;stroke-linejoin:round;stroke-miterlimit:1.5;">
    <g id="matrix_06">
    </g>
    <g id="matrix_05">
    </g>
    <g id="matrix_04">
    </g>
    <g id="matrix_03">
    </g>
    <g id="matrix_02">
    </g>
    <g id="matrix_01">
    </g>
    <g id="tree_10">
        <g id="edges">
        </g>
        <g id="nodes">
            <g id="Node">
            </g>
            <g id="Node1" serif:id="Node">
            </g>
            <g id="Node2" serif:id="Node">
            </g>
            <g id="Node3" serif:id="Node">
            </g>
            <g id="Node4" serif:id="Node">
            </g>
            <g id="Node5" serif:id="Node">
            </g>
            <g id="Node6" serif:id="Node">
            </g>
            <g id="Node7" serif:id="Node">
            </g>
            <g id="Node8" serif:id="Node">
            </g>
            <g id="Node9" serif:id="Node">
            </g>
            <g id="Node10" serif:id="Node">
            </g>
            <g id="Node11" serif:id="Node">
            </g>
            <g id="Node12" serif:id="Node">
            </g>
            <g id="Node13" serif:id="Node">
            </g>
            <g id="Node14" serif:id="Node">
            </g>
            <g id="Node15" serif:id="Node">
            </g>
            <g id="Node16" serif:id="Node">
            </g>
            <g id="Node17" serif:id="Node">
            </g>
            <g id="Node18" serif:id="Node">
            </g>
            <g id="Node19" serif:id="Node">
            </g>
        </g>
    </g>
    <g id="tree_09">
        <g id="edges1" serif:id="edges">
        </g>
        <g id="nodes1" serif:id="nodes">
            <g id="Node20" serif:id="Node">
            </g>
            <g id="Node21" serif:id="Node">
            </g>
            <g id="Node22" serif:id="Node">
            </g>
            <g id="Node23" serif:id="Node">
            </g>
            <g id="Node24" serif:id="Node">
            </g>
        </g>
    </g>
    <g id="tree_08">
        <g id="edges2" serif:id="edges">
        </g>
        <g id="nodes2" serif:id="nodes">
            <g id="GreenNode">
            </g>
            <g id="Node25" serif:id="Node">
            </g>
            <g id="Node26" serif:id="Node">
            </g>
            <g id="Node27" serif:id="Node">
            </g>
            <g id="Node28" serif:id="Node">
            </g>
            <g id="Node29" serif:id="Node">
            </g>
            <g id="Node30" serif:id="Node">
            </g>
            <g id="Node31" serif:id="Node">
            </g>
            <g id="Node32" serif:id="Node">
            </g>
            <g id="Node33" serif:id="Node">
            </g>
            <g id="Node34" serif:id="Node">
            </g>
            <g id="Node35" serif:id="Node">
            </g>
            <g id="Node36" serif:id="Node">
            </g>
            <g id="Node37" serif:id="Node">
            </g>
            <g id="Node38" serif:id="Node">
            </g>
            <g id="Node39" serif:id="Node">
            </g>
            <g id="Node40" serif:id="Node">
            </g>
            <g id="Node41" serif:id="Node">
            </g>
        </g>
    </g>
    <g id="tree_07">
        <g id="edges3" serif:id="edges">
            <path d="M99.498,77.768l-6.178,1.685l3.932,-5.054l2.246,3.369Z"/>
            <path d="M130,55c0,-0 -23.099,15.4 -32.636,21.758" style="fill:none;stroke:#000;stroke-width:1.8px;"/>
            <path d="M75.602,102.749l-5.055,3.931l1.685,-6.178l3.37,2.247Z"/>
            <path d="M85,85c0,-0 -7.575,11.363 -11.757,17.636" style="fill:none;stroke:#000;stroke-width:1.8px;"/>
            <path d="M94.399,102.749l5.055,3.931l-1.685,-6.178l-3.37,2.247Z"/>
            <path d="M96.758,102.636c-4.182,-6.273 -11.758,-17.636 -11.758,-17.636" style="fill:none;stroke:#000;stroke-width:1.8px;"/>
            <path d="M162.232,100.502l-1.685,6.178l5.055,-3.931l-3.37,-2.247Z"/>
            <path d="M163.243,102.636c4.182,-6.273 11.757,-17.636 11.757,-17.636" style="fill:none;stroke:#000;stroke-width:1.8px;"/>
            <path d="M187.769,100.502l1.685,6.178l-5.055,-3.931l3.37,-2.247Z"/>
            <path d="M175,85c0,-0 7.576,11.363 11.758,17.636" style="fill:none;stroke:#000;stroke-width:1.8px;"/>
            <path d="M157.025,128.925l-2.025,6.075l-2.025,-6.075l4.05,0Z"/>
            <path d="M155,115l0,15.14" style="fill:none;stroke:#000;stroke-width:1.8px;"/>
            <path d="M285.624,47.421l5.073,3.908l-6.403,-0.083l1.33,-3.825Z"/>
            <path d="M215,25c0,-0 54.709,19.029 71.106,24.733" style="fill:none;stroke:#000;stroke-width:1.8px;"/>
            <path d="M324.114,73.002l3.295,5.491l-5.93,-2.416l2.635,-3.075Z"/>
            <path d="M300,55c0,-0 16.241,13.92 23.719,20.33" style="fill:none;stroke:#000;stroke-width:1.8px;"/>
            <path d="M337.025,98.925l-2.025,6.075l-2.025,-6.075l4.05,0Z"/>
            <path d="M335,85l0,15.14" style="fill:none;stroke:#000;stroke-width:1.8px;"/>
            <path d="M337.025,128.925l-2.025,6.075l-2.025,-6.075l4.05,0Z"/>
            <path d="M335,121l0,9.14" style="fill:none;stroke:#000;stroke-width:1.8px;"/>
            <path d="M252.232,100.502l-1.685,6.178l5.055,-3.931l-3.37,-2.247Z"/>
            <path d="M253.243,102.636c3.386,-5.079 8.757,-13.136 8.757,-13.136" style="fill:none;stroke:#000;stroke-width:1.8px;"/>
            <path d="M277.769,100.502l1.685,6.178l-5.055,-3.931l3.37,-2.247Z"/>
            <path d="M265,85c0,-0 7.576,11.363 11.758,17.636" style="fill:none;stroke:#000;stroke-width:1.8px;"/>
            <path d="M275.886,73.002l-3.294,5.491l5.93,-2.416l-2.636,-3.075Z"/>
            <path d="M276.282,75.33c7.478,-6.41 23.718,-20.33 23.718,-20.33" style="fill:none;stroke:#000;stroke-width:1.8px;"/>
            <path d="M160.502,77.768l6.178,1.685l-3.931,-5.054l-2.247,3.369Z"/>
            <path d="M162.637,76.758c-9.537,-6.358 -32.637,-21.758 -32.637,-21.758" style="fill:none;stroke:#000;stroke-width:1.8px;"/>
            <path d="M145.037,47.911l-5.037,3.955l6.402,-0.143l-1.365,-3.812Z"/>
            <path d="M144.576,50.227c16.279,-5.832 70.424,-25.227 70.424,-25.227" style="fill:none;stroke:#000;stroke-width:1.8px;"/>
        </g>
        <g id="nodes3" serif:id="nodes">
            <g id="Node42" serif:id="Node">
                <circle cx="85" cy="85" r="10" style="fill:#ebebeb;"/>
                <path d="M85,75c5.519,-0 10,4.481 10,10c0,5.519 -4.481,10 -10,10c-5.519,-0 -10,-4.481 -10,-10c0,-5.519 4.481,-10 10,-10Zm0,1.8c4.526,-0 8.2,3.674 8.2,8.2c0,4.526 -3.674,8.2 -8.2,8.2c-4.525,0 -8.2,-3.674 -8.2,-8.2c0,-4.526 3.675,-8.2 8.2,-8.2Z"/>
                <path d="M84.93,80.24l-3.136,-0c-0.364,-0 -0.49,0.126 -0.49,0.476l0,8.988c0,0.35 0.126,0.476 0.49,0.476l3.136,-0c2.604,-0 4.06,-1.414 4.06,-3.696l0,-2.548c0,-2.282 -1.456,-3.696 -4.06,-3.696Zm2.31,3.682l0,2.576c0,1.33 -0.826,2.044 -2.296,2.044l-1.876,-0l0,-6.664l1.876,-0c1.47,-0 2.296,0.714 2.296,2.044Z" style="fill-rule:nonzero;"/>
            </g>
            <g id="Node43" serif:id="Node">
                <circle cx="65" cy="115" r="10" style="fill:#ebebeb;"/>
                <path d="M65,105c5.519,-0 10,4.481 10,10c0,5.519 -4.481,10 -10,10c-5.519,-0 -10,-4.481 -10,-10c0,-5.519 4.481,-10 10,-10Zm0,1.8c4.526,-0 8.2,3.674 8.2,8.2c0,4.526 -3.674,8.2 -8.2,8.2c-4.525,0 -8.2,-3.674 -8.2,-8.2c0,-4.526 3.675,-8.2 8.2,-8.2Z"/>
                <path d="M68.066,110.24l-5.558,-0c-0.364,-0 -0.49,0.126 -0.49,0.476l0,8.988c0,0.35 0.126,0.476 0.49,0.476l0.798,-0c0.35,-0 0.476,-0.126 0.476,-0.476l0,-3.612l3.598,-0c0.364,-0 0.49,-0.112 0.49,-0.476l0,-0.686c0,-0.35 -0.126,-0.476 -0.49,-0.476l-3.598,-0l0,-2.576l4.284,-0c0.364,-0 0.49,-0.126 0.49,-0.476l0,-0.686c0,-0.35 -0.126,-0.476 -0.49,-0.476Z" style="fill-rule:nonzero;"/>
            </g>
            <g id="Node44" serif:id="Node">
                <circle cx="105" cy="115" r="10" style="fill:#ebebeb;"/>
                <path d="M105,105c5.519,-0 10,4.481 10,10c0,5.519 -4.481,10 -10,10c-5.519,-0 -10,-4.481 -10,-10c0,-5.519 4.481,-10 10,-10Zm0,1.8c4.526,-0 8.2,3.674 8.2,8.2c0,4.526 -3.674,8.2 -8.2,8.2c-4.525,0 -8.2,-3.674 -8.2,-8.2c0,-4.526 3.675,-8.2 8.2,-8.2Z"/>
                <path d="M108.57,114.734l-3.36,-0c-0.35,-0 -0.476,0.112 -0.476,0.476l0,0.672c0,0.364 0.126,0.49 0.476,0.49l2.114,-0l0,0.728c0,0.952 -0.84,1.652 -2.268,1.652c-1.442,-0 -2.24,-0.7 -2.24,-2.002l0,-3.094c0,-1.288 0.784,-1.988 2.24,-1.988c1.162,-0 1.834,0.434 2.142,1.288c0.126,0.35 0.266,0.42 0.602,0.294l0.77,-0.266c0.336,-0.126 0.42,-0.28 0.294,-0.616c-0.532,-1.512 -1.75,-2.338 -3.808,-2.338c-2.576,-0 -4.004,1.4 -4.004,3.64l0,3.066c0,2.254 1.428,3.654 4.004,3.654c2.562,-0 3.99,-1.4 3.99,-3.304l0,-1.876c0,-0.364 -0.112,-0.476 -0.476,-0.476Z" style="fill-rule:nonzero;"/>
            </g>
            <g id="Node45" serif:id="Node">
                <circle cx="195" cy="115" r="10" style="fill:#ebebeb;"/>
                <path d="M195,105c5.519,-0 10,4.481 10,10c0,5.519 -4.481,10 -10,10c-5.519,-0 -10,-4.481 -10,-10c0,-5.519 4.481,-10 10,-10Zm0,1.8c4.526,-0 8.2,3.674 8.2,8.2c0,4.526 -3.674,8.2 -8.2,8.2c-4.525,0 -8.2,-3.674 -8.2,-8.2c0,-4.526 3.675,-8.2 8.2,-8.2Z"/>
                <path d="M194.118,110.716l0,8.988c0,0.35 0.126,0.476 0.49,0.476l0.798,-0c0.35,-0 0.476,-0.126 0.476,-0.476l0,-8.988c0,-0.35 -0.126,-0.476 -0.476,-0.476l-0.798,-0c-0.364,-0 -0.49,0.126 -0.49,0.476Z" style="fill-rule:nonzero;"/>
            </g>
            <g id="Node46" serif:id="Node">
                <circle cx="175" cy="85" r="10" style="fill:#ebebeb;"/>
                <path d="M175,75c5.519,0 10,4.481 10,10c0,5.519 -4.481,10 -10,10c-5.519,-0 -10,-4.481 -10,-10c0,-5.519 4.481,-10 10,-10Zm0,1.8c4.526,-0 8.2,3.674 8.2,8.2c0,4.526 -3.674,8.2 -8.2,8.2c-4.525,0 -8.2,-3.674 -8.2,-8.2c0,-4.526 3.675,-8.2 8.2,-8.2Z"/>
                <path d="M177.961,80.24l-5.558,0c-0.364,0 -0.49,0.126 -0.49,0.476l0,8.988c0,0.35 0.126,0.476 0.49,0.476l5.712,0c0.364,0 0.476,-0.126 0.476,-0.476l0,-0.686c0,-0.35 -0.112,-0.476 -0.476,-0.476l-4.438,0l0,-2.576l3.626,0c0.35,0 0.476,-0.126 0.476,-0.476l0,-0.686c0,-0.35 -0.126,-0.476 -0.476,-0.476l-3.626,0l0,-2.45l4.284,0c0.364,0 0.49,-0.126 0.49,-0.476l0,-0.686c0,-0.35 -0.126,-0.476 -0.49,-0.476Z" style="fill-rule:nonzero;"/>
            </g>
            <g id="Node47" serif:id="Node">
                <circle cx="130" cy="55" r="10" style="fill:#ebebeb;"/>
                <path d="M130,45c5.519,0 10,4.481 10,10c0,5.519 -4.481,10 -10,10c-5.519,-0 -10,-4.481 -10,-10c0,-5.519 4.481,-10 10,-10Zm0,1.8c4.526,-0 8.2,3.674 8.2,8.2c0,4.526 -3.674,8.2 -8.2,8.2c-4.525,0 -8.2,-3.674 -8.2,-8.2c0,-4.526 3.675,-8.2 8.2,-8.2Z"/>
                <path d="M130.784,50.24l-3.878,0c-0.364,0 -0.49,0.126 -0.49,0.476l0,8.988c0,0.35 0.126,0.476 0.49,0.476l3.962,0c1.834,0 3.15,-0.966 3.15,-2.73c0,-1.26 -0.518,-2.1 -1.428,-2.422l0,-0.056c0.728,-0.434 1.064,-1.106 1.064,-2.114c0,-1.68 -1.064,-2.618 -2.87,-2.618Zm1.078,2.87c0,0.84 -0.462,1.232 -1.288,1.232l-2.394,0l0,-2.464l2.394,0c0.84,0 1.288,0.406 1.288,1.232Zm0.294,4.144c0,0.854 -0.462,1.288 -1.33,1.288l-2.646,0l0,-2.604l2.646,0c0.868,0 1.33,0.462 1.33,1.316Z" style="fill-rule:nonzero;"/>
            </g>
            <g id="Node48" serif:id="Node">
                <circle cx="155" cy="115" r="10" style="fill:#ebebeb;"/>
                <path d="M155,105c5.519,0 10,4.481 10,10c0,5.519 -4.481,10 -10,10c-5.519,-0 -10,-4.481 -10,-10c0,-5.519 4.481,-10 10,-10Zm0,1.8c4.526,-0 8.2,3.674 8.2,8.2c0,4.526 -3.674,8.2 -8.2,8.2c-4.525,0 -8.2,-3.674 -8.2,-8.2c0,-4.526 3.675,-8.2 8.2,-8.2Z"/>
                <path d="M158.346,110.24l-0.798,0c-0.35,0 -0.476,0.126 -0.476,0.476l0,3.612l-4.144,0l0,-3.612c0,-0.35 -0.126,-0.476 -0.476,-0.476l-0.798,0c-0.364,0 -0.49,0.126 -0.49,0.476l0,8.988c0,0.35 0.126,0.476 0.49,0.476l0.798,0c0.35,0 0.476,-0.126 0.476,-0.476l0,-3.738l4.144,0l0,3.738c0,0.35 0.126,0.476 0.476,0.476l0.798,0c0.364,0 0.49,-0.126 0.49,-0.476l0,-8.988c0,-0.35 -0.126,-0.476 -0.49,-0.476Z" style="fill-rule:nonzero;"/>
            </g>
            <g id="Node49" serif:id="Node">
                <circle cx="155" cy="145" r="10" style="fill:#ebebeb;"/>
                <path d="M155,135c5.519,0 10,4.481 10,10c0,5.519 -4.481,10 -10,10c-5.519,0 -10,-4.481 -10,-10c0,-5.519 4.481,-10 10,-10Zm0,1.8c4.526,-0 8.2,3.674 8.2,8.2c0,4.526 -3.674,8.2 -8.2,8.2c-4.525,0 -8.2,-3.674 -8.2,-8.2c0,-4.526 3.675,-8.2 8.2,-8.2Z"/>
                <path d="M157.681,140.24l-0.826,0c-0.364,0 -0.476,0.126 -0.476,0.462l0,6.216c0,1.204 -0.602,1.834 -1.806,1.834c-0.966,0 -1.442,-0.448 -1.722,-1.288c-0.14,-0.35 -0.28,-0.42 -0.602,-0.294l-0.77,0.266c-0.336,0.126 -0.42,0.28 -0.294,0.616c0.476,1.484 1.54,2.338 3.388,2.338c2.338,0 3.57,-1.33 3.57,-3.486l0,-6.202c0,-0.336 -0.126,-0.462 -0.462,-0.462Z" style="fill-rule:nonzero;"/>
            </g>
            <g id="Node50" serif:id="Node">
                <circle cx="215" cy="25" r="10" style="fill:#ebebeb;"/>
                <path d="M215,15c5.519,0 10,4.481 10,10c0,5.519 -4.481,10 -10,10c-5.519,-0 -10,-4.481 -10,-10c0,-5.519 4.481,-10 10,-10Zm0,1.8c4.526,-0 8.2,3.674 8.2,8.2c0,4.526 -3.674,8.2 -8.2,8.2c-4.525,0 -8.2,-3.674 -8.2,-8.2c0,-4.526 3.675,-8.2 8.2,-8.2Z"/>
                <path d="M219.452,29.718l-3.5,-9.114c-0.112,-0.308 -0.266,-0.378 -0.588,-0.378l-0.742,0c-0.322,0 -0.462,0.07 -0.588,0.392l-3.5,9.1c-0.112,0.308 -0.028,0.462 0.322,0.462l0.644,0c0.588,0 0.756,-0.084 0.868,-0.42l0.658,-1.806l3.864,0l0.644,1.806c0.112,0.336 0.28,0.42 0.868,0.42l0.728,0c0.35,0 0.434,-0.154 0.322,-0.462Zm-4.116,-6.16l1.064,2.954l-2.884,0l1.078,-2.968c0.294,-0.854 0.308,-1.68 0.308,-1.694l0.098,0c0.014,0.014 0.042,0.84 0.336,1.708Z" style="fill-rule:nonzero;"/>
            </g>
            <g id="Node51" serif:id="Node">
                <circle cx="265" cy="85" r="10" style="fill:#ebebeb;"/>
                <path d="M265,75c5.519,0 10,4.481 10,10c-0,5.519 -4.481,10 -10,10c-5.519,-0 -10,-4.481 -10,-10c-0,-5.519 4.481,-10 10,-10Zm-0,1.8c4.525,-0 8.2,3.674 8.2,8.2c-0,4.526 -3.675,8.2 -8.2,8.2c-4.526,0 -8.2,-3.674 -8.2,-8.2c-0,-4.526 3.674,-8.2 8.2,-8.2Z"/>
                <path d="M269.221,80.24l-0.686,0c-0.378,0 -0.476,0.07 -0.644,0.378l-2.912,5.194l-2.912,-5.208c-0.154,-0.294 -0.28,-0.364 -0.672,-0.364l-0.616,0c-0.364,0 -0.49,0.126 -0.49,0.476l-0,8.988c-0,0.35 0.126,0.476 0.49,0.476l0.672,0c0.364,0 0.476,-0.126 0.476,-0.476l-0,-4.256c-0,-0.882 -0.07,-1.708 -0.294,-2.8l0.098,0c0.336,1.12 0.602,1.736 1.078,2.548l1.4,2.436c0.154,0.28 0.252,0.336 0.546,0.336l0.448,0c0.28,0 0.392,-0.084 0.546,-0.336l1.372,-2.422c0.448,-0.812 0.798,-1.512 1.148,-2.562l0.098,0c-0.238,1.078 -0.336,1.988 -0.336,2.786l-0,4.27c-0,0.35 0.112,0.476 0.476,0.476l0.714,0c0.364,0 0.476,-0.126 0.476,-0.476l-0,-8.988c-0,-0.35 -0.112,-0.476 -0.476,-0.476Z" style="fill-rule:nonzero;"/>
            </g>
            <g id="Node52" serif:id="Node">
                <circle cx="245" cy="115" r="10" style="fill:#ebebeb;"/>
                <path d="M245,105c5.519,0 10,4.481 10,10c-0,5.519 -4.481,10 -10,10c-5.519,-0 -10,-4.481 -10,-10c-0,-5.519 4.481,-10 10,-10Zm-0,1.8c4.525,-0 8.2,3.674 8.2,8.2c-0,4.526 -3.675,8.2 -8.2,8.2c-4.526,0 -8.2,-3.674 -8.2,-8.2c-0,-4.526 3.674,-8.2 8.2,-8.2Z"/>
                <path d="M241.003,113.684l-0,3.052c-0,2.254 1.428,3.654 4.004,3.654c2.562,0 3.99,-1.4 3.99,-3.654l-0,-3.052c-0,-2.254 -1.428,-3.654 -3.99,-3.654c-2.576,0 -4.004,1.4 -4.004,3.654Zm6.244,-0.014l-0,3.08c-0,1.302 -0.812,2.002 -2.24,2.002c-1.442,0 -2.24,-0.7 -2.24,-2.002l-0,-3.08c-0,-1.302 0.798,-2.002 2.24,-2.002c1.428,0 2.24,0.7 2.24,2.002Z" style="fill-rule:nonzero;"/>
            </g>
            <g id="Node53" serif:id="Node">
                <circle cx="285" cy="115" r="10" style="fill:#ebebeb;"/>
                <path d="M285,105c5.519,0 10,4.481 10,10c-0,5.519 -4.481,10 -10,10c-5.519,-0 -10,-4.481 -10,-10c-0,-5.519 4.481,-10 10,-10Zm-0,1.8c4.525,-0 8.2,3.674 8.2,8.2c-0,4.526 -3.675,8.2 -8.2,8.2c-4.526,0 -8.2,-3.674 -8.2,-8.2c-0,-4.526 3.674,-8.2 8.2,-8.2Z"/>
                <path d="M285.742,110.24l-3.71,0c-0.364,0 -0.49,0.126 -0.49,0.476l-0,8.988c-0,0.35 0.126,0.476 0.49,0.476l0.798,0c0.35,0 0.476,-0.126 0.476,-0.476l-0,-2.982l2.436,0c2.03,0 3.304,-1.204 3.304,-3.234c-0,-2.03 -1.288,-3.248 -3.304,-3.248Zm-0.168,4.844l-2.268,0l-0,-3.206l2.268,0c1.022,0 1.624,0.602 1.624,1.61c-0,1.008 -0.602,1.596 -1.624,1.596Z" style="fill-rule:nonzero;"/>
            </g>
            <g id="Node54" serif:id="Node">
                <circle cx="300" cy="55" r="10" style="fill:#ebebeb;"/>
                <path d="M300,45c5.519,0 10,4.481 10,10c-0,5.519 -4.481,10 -10,10c-5.519,-0 -10,-4.481 -10,-10c-0,-5.519 4.481,-10 10,-10Zm-0,1.8c4.525,-0 8.2,3.674 8.2,8.2c-0,4.526 -3.675,8.2 -8.2,8.2c-4.526,0 -8.2,-3.674 -8.2,-8.2c-0,-4.526 3.674,-8.2 8.2,-8.2Z"/>
                <path d="M296.206,53.67l-0,3.066c-0,2.254 1.428,3.654 4.004,3.654c2.072,0 3.29,-0.84 3.822,-2.352c0.112,-0.336 0.028,-0.49 -0.308,-0.616l-0.756,-0.266c-0.336,-0.126 -0.476,-0.056 -0.616,0.294c-0.308,0.854 -0.966,1.302 -2.142,1.302c-1.442,0 -2.24,-0.714 -2.24,-2.002l-0,-3.094c-0,-1.288 0.798,-1.988 2.24,-1.988c1.162,0 1.834,0.434 2.142,1.288c0.126,0.35 0.266,0.392 0.602,0.294l0.77,-0.266c0.336,-0.126 0.42,-0.28 0.294,-0.616c-0.532,-1.512 -1.75,-2.338 -3.808,-2.338c-2.576,0 -4.004,1.4 -4.004,3.64Z" style="fill-rule:nonzero;"/>
            </g>
            <g id="Node55" serif:id="Node">
                <circle cx="335" cy="145" r="10" style="fill:#ebebeb;"/>
                <path d="M335,135c5.519,0 10,4.481 10,10c-0,5.519 -4.481,10 -10,10c-5.519,0 -10,-4.481 -10,-10c-0,-5.519 4.481,-10 10,-10Zm-0,1.8c4.525,-0 8.2,3.674 8.2,8.2c-0,4.526 -3.675,8.2 -8.2,8.2c-4.526,0 -8.2,-3.674 -8.2,-8.2c-0,-4.526 3.674,-8.2 8.2,-8.2Z"/>
                <path d="M335.763,140.24l-3.864,0c-0.364,0 -0.49,0.126 -0.49,0.476l-0,8.988c-0,0.35 0.126,0.476 0.49,0.476l0.798,0c0.35,0 0.476,-0.126 0.476,-0.476l-0,-3.304l1.036,0c0.966,0 1.302,0.21 1.666,0.98l1.176,2.38c0.168,0.35 0.35,0.42 0.952,0.42l0.812,0c0.35,0 0.378,-0.21 0.238,-0.476l-1.54,-2.954c-0.126,-0.252 -0.266,-0.448 -0.448,-0.602c1.162,-0.392 1.848,-1.372 1.848,-2.828c-0,-1.932 -1.204,-3.08 -3.15,-3.08Zm1.302,3.08c-0,0.938 -0.532,1.442 -1.47,1.442l-2.422,0l-0,-2.884l2.422,0c0.952,0 1.47,0.518 1.47,1.442Z" style="fill-rule:nonzero;"/>
            </g>
            <g id="Node56" serif:id="Node">
                <circle cx="335" cy="115" r="10" style="fill:#ebebeb;"/>
                <path d="M335,105c5.519,0 10,4.481 10,10c-0,5.519 -4.481,10 -10,10c-5.519,-0 -10,-4.481 -10,-10c-0,-5.519 4.481,-10 10,-10Zm-0,1.8c4.525,-0 8.2,3.674 8.2,8.2c-0,4.526 -3.675,8.2 -8.2,8.2c-4.526,0 -8.2,-3.674 -8.2,-8.2c-0,-4.526 3.674,-8.2 8.2,-8.2Z"/>
                <path d="M339.039,120.026l-0.84,-0.98c0.462,-0.602 0.7,-1.386 0.7,-2.31l-0,-3.052c-0,-2.254 -1.428,-3.654 -3.99,-3.654c-2.576,0 -4.004,1.4 -4.004,3.654l-0,3.052c-0,2.254 1.428,3.654 4.004,3.654c0.756,0 1.428,-0.126 1.96,-0.378l0.91,1.078c0.224,0.266 0.406,0.28 0.672,0.056l0.532,-0.434c0.266,-0.238 0.28,-0.406 0.056,-0.686Zm-6.37,-3.276l-0,-3.08c-0,-1.302 0.798,-2.002 2.24,-2.002c1.428,0 2.24,0.7 2.24,2.002l-0,3.08c-0,1.302 -0.812,2.002 -2.24,2.002c-1.442,0 -2.24,-0.7 -2.24,-2.002Z" style="fill-rule:nonzero;"/>
            </g>
            <g id="Node57" serif:id="Node">
                <circle cx="335" cy="85" r="10" style="fill:#ebebeb;"/>
                <path d="M335,75c5.519,0 10,4.481 10,10c-0,5.519 -4.481,10 -10,10c-5.519,-0 -10,-4.481 -10,-10c-0,-5.519 4.481,-10 10,-10Zm-0,1.8c4.525,-0 8.2,3.674 8.2,8.2c-0,4.526 -3.675,8.2 -8.2,8.2c-4.526,0 -8.2,-3.674 -8.2,-8.2c-0,-4.526 3.674,-8.2 8.2,-8.2Z"/>
                <path d="M338.416,80.24l-0.742,0c-0.35,0 -0.476,0.126 -0.476,0.476l-0,4.34c-0,1.414 0.308,2.688 0.308,2.828l-0.084,0c-0.07,-0.112 -0.462,-1.316 -1.176,-2.38l-3.402,-5.04c-0.098,-0.14 -0.21,-0.224 -0.462,-0.224l-0.798,0c-0.364,0 -0.49,0.126 -0.49,0.476l-0,8.988c-0,0.35 0.126,0.476 0.49,0.476l0.742,0c0.35,0 0.476,-0.126 0.476,-0.476l-0,-4.396c-0,-1.33 -0.308,-2.674 -0.308,-2.786l0.084,0c0.056,0.084 0.49,1.372 1.148,2.352l3.43,5.068c0.112,0.182 0.224,0.238 0.462,0.238l0.798,0c0.364,0 0.476,-0.126 0.476,-0.476l-0,-8.988c-0,-0.35 -0.112,-0.476 -0.476,-0.476Z" style="fill-rule:nonzero;"/>
            </g>
        </g>
        <g transform="matrix(1,0,0,1,120,-99.07)">
            <g transform="matrix(11,0,0,11,61.5765,154.07)">
                <path d="M0.381,-0.71l-0.277,0c-0.026,0 -0.035,0.009 -0.035,0.034l0,0.642c0,0.025 0.009,0.034 0.035,0.034l0.283,-0c0.131,-0 0.225,-0.069 0.225,-0.195c0,-0.09 -0.037,-0.15 -0.102,-0.173l0,-0.004c0.052,-0.031 0.076,-0.079 0.076,-0.151c0,-0.12 -0.076,-0.187 -0.205,-0.187Zm0.077,0.205c0,0.06 -0.033,0.088 -0.092,0.088l-0.171,-0l0,-0.176l0.171,0c0.06,0 0.092,0.029 0.092,0.088Zm0.021,0.296c0,0.061 -0.033,0.092 -0.095,0.092l-0.189,0l0,-0.186l0.189,0c0.062,0 0.095,0.033 0.095,0.094Z" style="fill-rule:nonzero;"/>
            </g>
            <g transform="matrix(11,0,0,11,68.7265,154.07)">
                <path d="M0.049,-0.429c-0.012,0.023 -0.005,0.035 0.017,0.045l0.04,0.017c0.023,0.009 0.029,0.006 0.043,-0.015c0.021,-0.032 0.055,-0.048 0.105,-0.048c0.075,0 0.1,0.036 0.1,0.099l0,0.028c-0.017,-0.001 -0.057,-0.005 -0.096,-0.005c-0.16,-0 -0.227,0.041 -0.227,0.161c0,0.104 0.046,0.162 0.223,0.162c0.082,-0 0.143,-0.01 0.18,-0.026c0.028,-0.012 0.036,-0.022 0.036,-0.057l0,-0.259c0,-0.118 -0.05,-0.206 -0.214,-0.206c-0.104,-0 -0.173,0.039 -0.207,0.104Zm0.305,0.221l0,0.105c0,0.009 -0.003,0.011 -0.011,0.014c-0.018,0.004 -0.049,0.008 -0.1,0.008c-0.078,-0 -0.094,-0.026 -0.094,-0.067c0,-0.041 0.02,-0.065 0.096,-0.065c0.039,-0 0.088,0.004 0.109,0.005Z" style="fill-rule:nonzero;"/>
            </g>
            <g transform="matrix(11,0,0,11,74.4355,154.07)">
                <path d="M0.177,-0.031l0,-0.678c0,-0.023 -0.008,-0.031 -0.031,-0.031l-0.054,0c-0.024,0 -0.031,0.008 -0.031,0.031l0,0.678c0,0.023 0.007,0.031 0.031,0.031l0.054,0c0.023,0 0.031,-0.008 0.031,-0.031Z" style="fill-rule:nonzero;"/>
            </g>
            <g transform="matrix(11,0,0,11,77.0535,154.07)">
                <path d="M0.049,-0.429c-0.012,0.023 -0.005,0.035 0.017,0.045l0.04,0.017c0.023,0.009 0.029,0.006 0.043,-0.015c0.021,-0.032 0.055,-0.048 0.105,-0.048c0.075,0 0.1,0.036 0.1,0.099l0,0.028c-0.017,-0.001 -0.057,-0.005 -0.096,-0.005c-0.16,-0 -0.227,0.041 -0.227,0.161c0,0.104 0.046,0.162 0.223,0.162c0.082,-0 0.143,-0.01 0.18,-0.026c0.028,-0.012 0.036,-0.022 0.036,-0.057l0,-0.259c0,-0.118 -0.05,-0.206 -0.214,-0.206c-0.104,-0 -0.173,0.039 -0.207,0.104Zm0.305,0.221l0,0.105c0,0.009 -0.003,0.011 -0.011,0.014c-0.018,0.004 -0.049,0.008 -0.1,0.008c-0.078,-0 -0.094,-0.026 -0.094,-0.067c0,-0.041 0.02,-0.065 0.096,-0.065c0.039,-0 0.088,0.004 0.109,0.005Z" style="fill-rule:nonzero;"/>
            </g>
            <g transform="matrix(11,0,0,11,82.7625,154.07)">
                <path d="M0.095,-0.499c-0.032,0.013 -0.039,0.025 -0.039,0.057l0,0.411c0,0.023 0.008,0.031 0.031,0.031l0.055,-0c0.023,-0 0.03,-0.008 0.03,-0.031l0,-0.373c0,-0.004 0.002,-0.008 0.007,-0.01c0.026,-0.007 0.057,-0.013 0.096,-0.013c0.073,0 0.109,0.032 0.109,0.098l0,0.298c0,0.023 0.007,0.031 0.03,0.031l0.055,-0c0.023,-0 0.031,-0.008 0.031,-0.031l0,-0.301c0,-0.127 -0.066,-0.201 -0.208,-0.201c-0.096,-0 -0.157,0.018 -0.197,0.034Z" style="fill-rule:nonzero;"/>
            </g>
            <g transform="matrix(11,0,0,11,88.8455,154.07)">
                <path d="M0.041,-0.328l0,0.138c0,0.127 0.069,0.205 0.221,0.205c0.121,-0 0.19,-0.048 0.223,-0.133c0.01,-0.025 0.002,-0.036 -0.021,-0.045l-0.045,-0.013c-0.024,-0.008 -0.035,-0.004 -0.044,0.02c-0.016,0.043 -0.051,0.069 -0.109,0.069c-0.072,-0 -0.109,-0.036 -0.109,-0.098l-0,-0.148c-0,-0.063 0.037,-0.098 0.109,-0.098c0.059,-0 0.093,0.025 0.109,0.067c0.009,0.024 0.02,0.031 0.044,0.021l0.044,-0.014c0.023,-0.009 0.03,-0.02 0.022,-0.045c-0.025,-0.075 -0.095,-0.131 -0.214,-0.131c-0.157,-0 -0.23,0.078 -0.23,0.205Z" style="fill-rule:nonzero;"/>
            </g>
            <g transform="matrix(11,0,0,11,94.5325,154.07)">
                <path d="M0.04,-0.317l0,0.118c0,0.123 0.066,0.214 0.23,0.214c0.113,0 0.18,-0.037 0.216,-0.096c0.014,-0.022 0.011,-0.039 -0.012,-0.05l-0.035,-0.019c-0.024,-0.013 -0.035,-0.01 -0.051,0.012c-0.021,0.033 -0.059,0.053 -0.118,0.053c-0.073,-0 -0.114,-0.035 -0.114,-0.1l0,-0.037l0.302,0c0.035,0 0.045,-0.017 0.045,-0.043l0,-0.061c0,-0.115 -0.072,-0.207 -0.231,-0.207c-0.151,0 -0.232,0.077 -0.232,0.216Zm0.347,-0.016l0,0.022l-0.231,0l0,-0.022c0,-0.065 0.041,-0.102 0.116,-0.102c0.076,0 0.115,0.037 0.115,0.102Z" style="fill-rule:nonzero;"/>
            </g>
            <g transform="matrix(11,0,0,11,100.44,154.07)">
                <path d="M0.042,-0.324l0,0.137c0,0.128 0.068,0.202 0.217,0.202c0.091,-0 0.147,-0.017 0.187,-0.032c0.032,-0.013 0.04,-0.022 0.04,-0.055l0,-0.637c0,-0.023 -0.008,-0.031 -0.031,-0.031l-0.055,0c-0.023,0 -0.03,0.008 -0.03,0.031l0,0.189c-0.028,-0.005 -0.07,-0.013 -0.119,-0.013c-0.139,0 -0.209,0.074 -0.209,0.209Zm0.328,-0.09l0,0.301c0,0.006 -0.001,0.008 -0.008,0.011c-0.025,0.007 -0.056,0.011 -0.092,0.011c-0.073,0 -0.112,-0.035 -0.112,-0.1l-0,-0.13c-0,-0.071 0.036,-0.106 0.115,-0.106c0.04,0 0.074,0.008 0.097,0.013Z" style="fill-rule:nonzero;"/>
            </g>
            <g transform="matrix(11,0,0,11,108.591,154.07)">
                <path d="M0.193,-0.638l-0.054,0c-0.023,0 -0.031,0.007 -0.031,0.03l-0,0.09l-0.069,0c-0.023,0 -0.03,0.007 -0.03,0.03l-0,0.046c-0,0.023 0.007,0.031 0.03,0.031l0.069,0l-0,0.205c-0,0.173 0.064,0.225 0.229,0.22c0.024,-0.001 0.032,-0.008 0.032,-0.032l0,-0.046c0,-0.024 -0.008,-0.031 -0.032,-0.031c-0.084,0 -0.113,-0.017 -0.113,-0.115l0,-0.201l0.114,0c0.023,0 0.031,-0.008 0.031,-0.031l0,-0.046c0,-0.023 -0.008,-0.03 -0.031,-0.03l-0.114,0l0,-0.09c0,-0.023 -0.008,-0.03 -0.031,-0.03Z" style="fill-rule:nonzero;"/>
            </g>
            <g transform="matrix(11,0,0,11,112.87,154.07)">
                <path d="M0.281,-0.533c-0.089,0.002 -0.149,0.016 -0.186,0.03c-0.032,0.013 -0.039,0.025 -0.039,0.057l-0,0.415c-0,0.023 0.008,0.031 0.031,0.031l0.055,-0c0.023,-0 0.03,-0.008 0.03,-0.031l0,-0.372c0,-0.005 0.001,-0.01 0.01,-0.012c0.026,-0.008 0.056,-0.012 0.095,-0.012l0.036,0c0.023,0 0.031,-0.008 0.031,-0.031l-0,-0.044c-0,-0.024 -0.008,-0.031 -0.031,-0.031l-0.032,0Z" style="fill-rule:nonzero;"/>
            </g>
            <g transform="matrix(11,0,0,11,116.61,154.07)">
                <path d="M0.04,-0.317l0,0.118c0,0.123 0.066,0.214 0.23,0.214c0.113,0 0.18,-0.037 0.216,-0.096c0.014,-0.022 0.011,-0.039 -0.012,-0.05l-0.035,-0.019c-0.024,-0.013 -0.035,-0.01 -0.051,0.012c-0.021,0.033 -0.059,0.053 -0.118,0.053c-0.073,-0 -0.114,-0.035 -0.114,-0.1l0,-0.037l0.302,0c0.035,0 0.045,-0.017 0.045,-0.043l0,-0.061c0,-0.115 -0.072,-0.207 -0.231,-0.207c-0.151,0 -0.232,0.077 -0.232,0.216Zm0.347,-0.016l0,0.022l-0.231,0l0,-0.022c0,-0.065 0.041,-0.102 0.116,-0.102c0.076,0 0.115,0.037 0.115,0.102Z" style="fill-rule:nonzero;"/>
            </g>
            <g transform="matrix(11,0,0,11,122.517,154.07)">
                <path d="M0.04,-0.317l0,0.118c0,0.123 0.066,0.214 0.23,0.214c0.113,0 0.18,-0.037 0.216,-0.096c0.014,-0.022 0.011,-0.039 -0.012,-0.05l-0.035,-0.019c-0.024,-0.013 -0.035,-0.01 -0.051,0.012c-0.021,0.033 -0.059,0.053 -0.118,0.053c-0.073,-0 -0.114,-0.035 -0.114,-0.1l0,-0.037l0.302,0c0.035,0 0.045,-0.017 0.045,-0.043l0,-0.061c0,-0.115 -0.072,-0.207 -0.231,-0.207c-0.151,0 -0.232,0.077 -0.232,0.216Zm0.347,-0.016l0,0.022l-0.231,0l0,-0.022c0,-0.065 0.041,-0.102 0.116,-0.102c0.076,0 0.115,0.037 0.115,0.102Z" style="fill-rule:nonzero;"/>
            </g>
            <path d="M65.768,146.26l-3.047,0c-0.287,0 -0.385,0.099 -0.385,0.374l-0,7.062c-0,0.275 0.098,0.374 0.385,0.374l3.112,0c1.441,0 2.475,-0.759 2.475,-2.145c0,-0.99 -0.406,-1.65 -1.121,-1.903l-0,-0.044c0.572,-0.341 0.836,-0.869 0.836,-1.661c-0,-1.32 -0.836,-2.057 -2.255,-2.057Zm-3.127,7.503c0.022,0.003 0.054,0.007 0.079,0.007c0,-0 3.114,-0 3.113,-0c1.255,-0 2.175,-0.638 2.175,-1.845c0,-0.835 -0.318,-1.407 -0.922,-1.62c-0.119,-0.043 -0.2,-0.156 -0.2,-0.283l0,-0.044c0,-0.106 0.056,-0.204 0.147,-0.258c0.481,-0.286 0.689,-0.737 0.689,-1.403c0,-0.562 -0.167,-1.004 -0.496,-1.301c-0.339,-0.306 -0.837,-0.456 -1.458,-0.456c-0,0 -3.048,0 -3.047,0c-0.026,0 -0.058,0.004 -0.08,0.007c-0.003,0.019 -0.005,0.046 -0.005,0.067c-0,-0 -0,7.062 -0,7.062c-0,0.021 0.002,0.048 0.005,0.067Zm4.505,-1.992c-0,-0.43 -0.13,-0.758 -0.356,-0.982c-0.225,-0.223 -0.554,-0.352 -0.989,-0.352l-2.08,-0c-0.165,-0 -0.3,0.134 -0.3,0.3l0,2.046c0,0.166 0.135,0.3 0.3,0.3l2.08,0c0.434,0 0.762,-0.123 0.986,-0.338c0.227,-0.219 0.359,-0.54 0.359,-0.974Zm-0.3,-0c-0.001,0.671 -0.364,1.012 -1.045,1.012l-2.08,-0l0,-2.046l2.08,-0c0.681,-0 1.044,0.363 1.044,1.034Zm0.07,-3.256c-0,-0.424 -0.13,-0.735 -0.353,-0.946c-0.218,-0.205 -0.537,-0.322 -0.96,-0.322c0.001,-0 -1.881,-0 -1.881,-0c-0.165,-0 -0.3,0.134 -0.3,0.3l0,1.936c0,0.166 0.135,0.3 0.301,0.3l1.88,0c0.415,0 0.734,-0.113 0.954,-0.317c0.225,-0.208 0.359,-0.519 0.359,-0.951Zm-0.3,-0c-0,0.66 -0.364,0.968 -1.013,0.968l-1.881,-0l0,-1.936l1.881,-0c0.661,-0 1.013,0.319 1.013,0.968Z"/>
            <path d="M69.265,149.351c-0.131,0.253 -0.054,0.385 0.187,0.495l0.441,0.187c0.252,0.099 0.319,0.066 0.472,-0.165c0.231,-0.352 0.606,-0.528 1.155,-0.528c0.826,-0 1.1,0.396 1.1,1.089l0.001,0.308c-0.188,-0.011 -0.627,-0.055 -1.057,-0.055c-1.76,-0 -2.496,0.451 -2.496,1.771c-0.001,1.144 0.505,1.782 2.452,1.782c0.903,-0 1.573,-0.11 1.98,-0.286c0.308,-0.132 0.396,-0.242 0.396,-0.627l0,-2.849c0,-1.298 -0.55,-2.266 -2.353,-2.266c-1.144,-0 -1.904,0.429 -2.278,1.144Zm0.798,0.423c0.016,-0.02 0.036,-0.047 0.052,-0.071c0.282,-0.43 0.732,-0.663 1.405,-0.663c0.522,-0 0.863,0.146 1.08,0.381c0.217,0.234 0.321,0.571 0.321,1.008l-0,0.308c-0,0.083 -0.035,0.162 -0.095,0.218c-0.06,0.057 -0.141,0.086 -0.223,0.081c-0.184,-0.01 -0.617,-0.054 -1.039,-0.054c-0.941,0 -1.564,0.11 -1.903,0.48c-0.21,0.229 -0.293,0.555 -0.293,0.991c-0,0.381 0.055,0.699 0.24,0.938c0.294,0.381 0.88,0.544 1.912,0.544c0.848,-0 1.479,-0.096 1.862,-0.262c0.085,-0.036 0.148,-0.057 0.181,-0.107c0.036,-0.055 0.033,-0.13 0.033,-0.244c0,0 0,-2.849 0,-2.849c0,-0.567 -0.106,-1.066 -0.423,-1.419c-0.318,-0.354 -0.84,-0.547 -1.63,-0.547c-1.005,0 -1.683,0.355 -2.012,0.983l-0.019,0.047c0.017,0.011 0.04,0.025 0.058,0.033l0.493,0.204Zm2.858,2.008c-0,-0.16 -0.126,-0.292 -0.286,-0.3c-0.234,-0.011 -0.779,-0.055 -1.213,-0.055c-0.634,-0 -0.975,0.158 -1.157,0.377c-0.137,0.166 -0.2,0.379 -0.2,0.638c0,0.253 0.052,0.465 0.176,0.633c0.17,0.23 0.5,0.404 1.158,0.404c0.595,0 0.956,-0.049 1.166,-0.095c0.013,-0.003 0.027,-0.007 0.04,-0.012c0.139,-0.052 0.21,-0.116 0.258,-0.197c0.033,-0.056 0.058,-0.129 0.058,-0.238c-0,0 -0,-1.155 -0,-1.155Zm-0.301,-0l0,1.155c0,0.099 -0.033,0.121 -0.12,0.154c-0.198,0.044 -0.539,0.088 -1.101,0.088c-0.857,0 -1.034,-0.286 -1.034,-0.737c0.001,-0.451 0.221,-0.715 1.057,-0.715c0.429,-0 0.968,0.044 1.198,0.055Z"/>
            <path d="M76.383,153.729l-0,-7.458c-0,-0.253 -0.088,-0.341 -0.341,-0.341l-0.595,0c-0.263,0 -0.34,0.088 -0.34,0.341l-0,7.458c-0,0.253 0.077,0.341 0.34,0.341l0.595,-0c0.253,-0 0.341,-0.088 0.341,-0.341Zm-0.303,-7.497l-0.671,0c-0.002,0.013 -0.002,0.027 -0.002,0.039c-0,-0 -0,7.458 -0,7.458c-0,0.012 0,0.026 0.002,0.039l0.671,-0c0.002,-0.013 0.002,-0.027 0.002,-0.039l0,-7.458c0,-0.012 -0,-0.026 -0.002,-0.039Z"/>
            <path d="M77.592,149.351c-0.131,0.253 -0.054,0.385 0.187,0.495l0.441,0.187c0.252,0.099 0.319,0.066 0.472,-0.165c0.231,-0.352 0.606,-0.528 1.155,-0.528c0.826,-0 1.1,0.396 1.1,1.089l0.001,0.308c-0.188,-0.011 -0.627,-0.055 -1.057,-0.055c-1.76,-0 -2.496,0.451 -2.496,1.771c-0.001,1.144 0.505,1.782 2.452,1.782c0.903,-0 1.573,-0.11 1.98,-0.286c0.308,-0.132 0.396,-0.242 0.396,-0.627l0,-2.849c0,-1.298 -0.55,-2.266 -2.353,-2.266c-1.144,-0 -1.904,0.429 -2.278,1.144Zm0.798,0.423c0.016,-0.02 0.036,-0.047 0.052,-0.071c0.282,-0.43 0.732,-0.663 1.405,-0.663c0.522,-0 0.863,0.146 1.08,0.381c0.217,0.234 0.321,0.571 0.321,1.008l-0,0.308c-0,0.083 -0.035,0.162 -0.095,0.218c-0.06,0.057 -0.141,0.086 -0.223,0.081c-0.184,-0.01 -0.617,-0.054 -1.039,-0.054c-0.941,0 -1.564,0.11 -1.903,0.48c-0.21,0.229 -0.293,0.555 -0.293,0.991c-0,0.381 0.055,0.699 0.24,0.938c0.294,0.381 0.88,0.544 1.912,0.544c0.848,-0 1.479,-0.096 1.862,-0.262c0.085,-0.036 0.148,-0.057 0.181,-0.107c0.036,-0.055 0.033,-0.13 0.033,-0.244c0,0 0,-2.849 0,-2.849c0,-0.567 -0.106,-1.066 -0.423,-1.419c-0.318,-0.354 -0.84,-0.547 -1.63,-0.547c-1.005,0 -1.683,0.355 -2.012,0.983l-0.019,0.047c0.017,0.011 0.04,0.025 0.058,0.033l0.493,0.204Zm2.858,2.008c-0,-0.16 -0.126,-0.292 -0.286,-0.3c-0.234,-0.011 -0.779,-0.055 -1.213,-0.055c-0.634,-0 -0.975,0.158 -1.157,0.377c-0.137,0.166 -0.2,0.379 -0.2,0.638c0,0.253 0.052,0.465 0.176,0.633c0.17,0.23 0.5,0.404 1.158,0.404c0.595,0 0.956,-0.049 1.166,-0.095c0.013,-0.003 0.027,-0.007 0.04,-0.012c0.139,-0.052 0.21,-0.116 0.258,-0.197c0.033,-0.056 0.058,-0.129 0.058,-0.238l-0,-1.155Zm-0.301,-0l0,1.155c0,0.099 -0.033,0.121 -0.12,0.154c-0.198,0.044 -0.539,0.088 -1.101,0.088c-0.857,0 -1.034,-0.286 -1.034,-0.737c0.001,-0.451 0.221,-0.715 1.057,-0.715c0.429,-0 0.968,0.044 1.198,0.055Z"/>
            <path d="M83.808,148.581c-0.352,0.143 -0.429,0.275 -0.429,0.627l-0,4.521c-0,0.253 0.087,0.341 0.341,0.341l0.605,-0c0.253,-0 0.33,-0.088 0.33,-0.341l-0,-4.103c-0,-0.044 0.022,-0.088 0.077,-0.11c0.286,-0.077 0.627,-0.143 1.056,-0.143c0.803,0 1.199,0.352 1.199,1.078l-0,3.278c-0,0.253 0.077,0.341 0.33,0.341l0.605,0c0.253,0 0.341,-0.088 0.341,-0.341l-0,-3.311c-0,-1.397 -0.726,-2.211 -2.288,-2.211c-1.056,0 -1.727,0.198 -2.167,0.374Zm4.152,5.187c0.002,-0.013 0.002,-0.027 0.002,-0.039c0,0 0,-3.311 0,-3.311c0,-0.606 -0.144,-1.09 -0.47,-1.418c-0.33,-0.33 -0.835,-0.493 -1.517,-0.493c-1.002,0 -1.639,0.186 -2.056,0.352c-0.101,0.042 -0.172,0.069 -0.208,0.124c-0.036,0.053 -0.032,0.125 -0.032,0.225c-0,0 -0,4.521 -0,4.521c-0,0.012 0,0.026 0.002,0.039l0.671,0.001c0.002,-0.014 0.002,-0.028 0.002,-0.04l0,-4.103c0,-0.154 0.073,-0.311 0.266,-0.389c0.011,-0.004 0.022,-0.008 0.034,-0.011c0.307,-0.082 0.673,-0.153 1.134,-0.153c0.492,-0 0.856,0.124 1.1,0.343c0.256,0.23 0.399,0.569 0.399,1.035c-0,0 -0,3.278 -0,3.278c-0,0.012 0,0.026 0.002,0.04l0.671,-0.001Z"/>
            <path d="M89.297,150.462l-0,1.518c-0,1.397 0.759,2.255 2.43,2.255c1.331,0 2.09,-0.528 2.454,-1.463c0.11,-0.275 0.021,-0.396 -0.231,-0.495l-0.495,-0.143c-0.264,-0.088 -0.385,-0.044 -0.484,0.22c-0.177,0.473 -0.562,0.759 -1.199,0.759c-0.792,0 -1.2,-0.396 -1.2,-1.078l0,-1.628c0,-0.693 0.408,-1.078 1.2,-1.078c0.649,0 1.022,0.275 1.199,0.737c0.099,0.264 0.22,0.341 0.484,0.231l0.483,-0.154c0.254,-0.099 0.331,-0.22 0.243,-0.495c-0.276,-0.825 -1.046,-1.441 -2.354,-1.441c-1.727,0 -2.53,0.858 -2.53,2.255Zm4.616,-0.64c-0.003,-0.021 -0.009,-0.055 -0.017,-0.079c-0.24,-0.721 -0.926,-1.236 -2.069,-1.236c-0.769,0 -1.337,0.176 -1.708,0.523c-0.361,0.336 -0.522,0.828 -0.522,1.432c-0,0 -0,1.518 -0,1.518c-0,0.606 0.152,1.099 0.498,1.437c0.352,0.344 0.894,0.518 1.632,0.518c1.174,-0 1.854,-0.447 2.175,-1.274c0.008,-0.02 0.015,-0.046 0.019,-0.064c-0.018,-0.011 -0.046,-0.026 -0.071,-0.037l-0.49,-0.141c-0.026,-0.009 -0.058,-0.016 -0.08,-0.021c-0.01,0.018 -0.021,0.041 -0.028,0.061c-0.219,0.587 -0.689,0.954 -1.48,0.954c-0.488,0 -0.853,-0.135 -1.1,-0.362c-0.258,-0.237 -0.4,-0.578 -0.4,-1.016l0,-1.628c0,-0.445 0.143,-0.786 0.401,-1.021c0.247,-0.225 0.611,-0.357 1.099,-0.357c0.805,-0 1.26,0.357 1.479,0.932c0.01,0.025 0.025,0.055 0.036,0.076l0.548,-0.176c0.028,-0.011 0.059,-0.029 0.078,-0.039Z"/>
            <path d="M94.973,150.583l-0,1.298c-0,1.353 0.726,2.354 2.53,2.354c1.242,-0 1.98,-0.407 2.376,-1.056c0.154,-0.242 0.121,-0.429 -0.132,-0.55l-0.386,-0.209c-0.263,-0.143 -0.385,-0.11 -0.56,0.132c-0.231,0.363 -0.649,0.583 -1.298,0.583c-0.803,0 -1.254,-0.385 -1.254,-1.1l-0,-0.407l3.322,0c0.385,0 0.495,-0.187 0.495,-0.473l-0,-0.671c-0,-1.265 -0.792,-2.277 -2.542,-2.277c-1.66,0 -2.551,0.847 -2.551,2.376Zm4.073,2.142c-0.279,0.43 -0.77,0.71 -1.543,0.71c-0.489,0 -0.866,-0.13 -1.126,-0.356c-0.273,-0.238 -0.429,-0.586 -0.429,-1.044l0,-0.407c0,-0.166 0.135,-0.3 0.301,-0.3l3.322,-0c0.081,-0 0.138,0.003 0.17,-0.032c0.03,-0.033 0.024,-0.084 0.024,-0.141l0,-0.671c0,-0.548 -0.164,-1.043 -0.525,-1.399c-0.37,-0.366 -0.939,-0.578 -1.715,-0.578c-0.739,0 -1.311,0.175 -1.694,0.534c-0.376,0.351 -0.558,0.874 -0.558,1.542c-0,0 -0,1.298 -0,1.298c-0,0.591 0.148,1.109 0.503,1.475c0.361,0.372 0.927,0.579 1.727,0.579c1.103,-0 1.768,-0.336 2.122,-0.917c0.017,-0.027 0.034,-0.067 0.042,-0.088c-0.013,-0.009 -0.033,-0.022 -0.05,-0.03l-0.398,-0.216c-0.034,-0.018 -0.077,-0.035 -0.1,-0.044c-0.017,0.018 -0.049,0.053 -0.073,0.085Zm0.044,-2.318c-0,-0.455 -0.149,-0.808 -0.418,-1.052c-0.258,-0.232 -0.639,-0.37 -1.147,-0.37c-0.501,-0 -0.885,0.136 -1.147,0.368c-0.275,0.244 -0.43,0.598 -0.43,1.054l0,0.242c0,0.166 0.135,0.3 0.301,0.3l2.54,0c0.166,0 0.301,-0.134 0.301,-0.3l-0,-0.242Zm-0.3,0l-0.001,0.242l-2.54,0l-0,-0.242c-0,-0.715 0.451,-1.122 1.276,-1.122c0.836,0 1.265,0.407 1.265,1.122Z"/>
            <path d="M100.902,150.506l-0,1.507c-0,1.408 0.748,2.222 2.387,2.222c1.001,-0 1.617,-0.187 2.057,-0.352c0.351,-0.143 0.439,-0.242 0.439,-0.605l0,-7.007c0,-0.253 -0.088,-0.341 -0.34,-0.341l-0.605,0c-0.253,0 -0.33,0.088 -0.33,0.341l-0,2.079c-0.308,-0.055 -0.77,-0.143 -1.309,-0.143c-1.529,-0 -2.299,0.814 -2.299,2.299Zm4.581,-4.274l-0.671,-0.001c-0.002,0.014 -0.002,0.028 -0.002,0.04l-0,2.079c-0,0.089 -0.04,0.173 -0.108,0.23c-0.068,0.057 -0.158,0.081 -0.245,0.065c-0.296,-0.052 -0.739,-0.138 -1.256,-0.138c-0.668,0 -1.175,0.163 -1.51,0.503c-0.335,0.34 -0.489,0.847 -0.489,1.496c-0,0 -0,1.507 -0,1.507c-0,0.609 0.148,1.095 0.487,1.423c0.346,0.335 0.877,0.499 1.6,0.499c0.948,-0 1.532,-0.176 1.949,-0.332c0.106,-0.043 0.179,-0.067 0.219,-0.12c0.035,-0.046 0.028,-0.11 0.028,-0.205c0,0 0,-7.007 0,-7.007c0,-0.012 -0,-0.026 -0.002,-0.039Zm-0.673,3.284c-0,-0.141 -0.099,-0.263 -0.237,-0.293c-0.268,-0.058 -0.664,-0.15 -1.13,-0.15c-0.53,-0 -0.91,0.134 -1.164,0.371c-0.261,0.244 -0.402,0.604 -0.402,1.095c0,-0 0,1.43 0,1.43c0,0.457 0.15,0.804 0.415,1.042c0.254,0.227 0.627,0.358 1.118,0.358c0.427,0 0.795,-0.049 1.092,-0.132c0.013,-0.004 0.026,-0.008 0.038,-0.013c0.111,-0.048 0.165,-0.102 0.201,-0.153c0.042,-0.061 0.069,-0.132 0.069,-0.244l-0,-3.311Zm-0.3,0l-0,3.311c-0,0.066 -0.011,0.088 -0.088,0.121c-0.275,0.077 -0.616,0.121 -1.012,0.121c-0.803,-0 -1.232,-0.385 -1.232,-1.1l-0,-1.43c-0,-0.781 0.396,-1.166 1.265,-1.166c0.44,-0 0.813,0.088 1.067,0.143Z"/>
            <path d="M110.714,147.052l-0.594,0c-0.253,0 -0.341,0.077 -0.341,0.33l-0,0.99l-0.759,-0c-0.254,-0 -0.331,0.077 -0.331,0.33l0,0.506c0,0.253 0.077,0.341 0.331,0.341l0.759,-0l-0,2.255c-0,1.903 0.704,2.475 2.519,2.42c0.264,-0.011 0.351,-0.088 0.351,-0.352l0,-0.506c0,-0.264 -0.087,-0.341 -0.351,-0.341c-0.925,-0 -1.244,-0.187 -1.244,-1.265l0,-2.211l1.255,-0c0.253,-0 0.34,-0.088 0.34,-0.341l0,-0.506c0,-0.253 -0.087,-0.33 -0.34,-0.33l-1.255,0l0,-0.99c0,-0.253 -0.088,-0.33 -0.34,-0.33Zm0.039,0.302l-0.673,0l-0.001,1.018c-0,0.166 -0.135,0.3 -0.3,0.3l-0.788,0.001l0.001,0.575l0.786,0.001c0.166,-0 0.301,0.134 0.301,0.3l-0,2.255c-0,0.84 0.127,1.394 0.482,1.724c0.358,0.332 0.923,0.421 1.724,0.396c0.02,-0.001 0.043,-0.003 0.062,-0.006l0,-0.59c-0.016,-0.002 -0.034,-0.003 -0.049,-0.003c-0.564,0 -0.935,-0.087 -1.173,-0.309c-0.238,-0.221 -0.371,-0.598 -0.371,-1.256l0,-2.211c0,-0.166 0.135,-0.3 0.3,-0.3l1.255,-0c0.011,-0 0.025,-0.001 0.038,-0.002l0.001,-0.573c-0.013,-0.001 -0.027,-0.002 -0.039,-0.002l-1.255,0c-0.165,0 -0.299,-0.134 -0.3,-0.3l-0.001,-1.018Z"/>
            <path d="M115.96,148.207c-0.978,0.022 -1.638,0.176 -2.045,0.33c-0.353,0.143 -0.43,0.275 -0.43,0.627l0.001,4.565c-0.001,0.253 0.087,0.341 0.341,0.341l0.604,-0c0.254,-0 0.331,-0.088 0.331,-0.341l-0,-4.092c-0,-0.055 0.011,-0.11 0.109,-0.132c0.287,-0.088 0.616,-0.132 1.046,-0.132l0.395,0c0.253,0 0.342,-0.088 0.342,-0.341l-0,-0.484c-0,-0.264 -0.089,-0.341 -0.341,-0.341l-0.353,0Zm0.004,0.3c-0.929,0.021 -1.557,0.164 -1.937,0.308c-0.102,0.042 -0.173,0.068 -0.209,0.124c-0.036,0.053 -0.032,0.125 -0.032,0.225c-0,0 -0,4.565 -0,4.565c-0,0.012 0,0.026 0.002,0.039l0.671,0.001c0.002,-0.014 0.002,-0.028 0.002,-0.04l0,-4.092c0,-0.086 0.019,-0.169 0.067,-0.241c0.045,-0.071 0.119,-0.145 0.264,-0.18c0.308,-0.094 0.663,-0.143 1.125,-0.143l0.434,-0.002l0,-0.562l-0.387,-0.002Z"/>
            <path d="M117.05,150.583l-0,1.298c-0,1.353 0.725,2.354 2.53,2.354c1.242,-0 1.98,-0.407 2.376,-1.056c0.154,-0.242 0.121,-0.429 -0.133,-0.55l-0.385,-0.209c-0.263,-0.143 -0.385,-0.11 -0.56,0.132c-0.231,0.363 -0.65,0.583 -1.298,0.583c-0.804,0 -1.255,-0.385 -1.255,-1.1l0,-0.407l3.323,0c0.385,0 0.494,-0.187 0.494,-0.473l0,-0.671c0,-1.265 -0.791,-2.277 -2.541,-2.277c-1.661,0 -2.551,0.847 -2.551,2.376Zm4.073,2.142c-0.279,0.43 -0.77,0.71 -1.543,0.71c-0.489,0 -0.866,-0.13 -1.126,-0.356c-0.273,-0.238 -0.429,-0.586 -0.429,-1.044l0,-0.407c0,-0.166 0.135,-0.3 0.3,-0.3l3.323,-0c0.081,-0 0.138,0.003 0.17,-0.032c0.03,-0.033 0.024,-0.084 0.024,-0.141l0,-0.671c0,-0.548 -0.164,-1.043 -0.525,-1.399c-0.37,-0.366 -0.939,-0.578 -1.715,-0.578c-0.739,0 -1.311,0.175 -1.694,0.534c-0.376,0.351 -0.558,0.874 -0.558,1.542l-0,1.298c-0,0.591 0.148,1.109 0.503,1.475c0.361,0.372 0.927,0.579 1.727,0.579c1.103,-0 1.768,-0.336 2.122,-0.917c0.017,-0.027 0.034,-0.067 0.042,-0.088c-0.013,-0.009 -0.033,-0.022 -0.05,-0.03l-0.398,-0.216c-0.034,-0.018 -0.077,-0.035 -0.1,-0.044c-0.017,0.018 -0.049,0.053 -0.073,0.085Zm0.044,-2.318c-0,-0.455 -0.149,-0.808 -0.418,-1.052c-0.258,-0.232 -0.639,-0.37 -1.147,-0.37c-0.501,-0 -0.885,0.136 -1.147,0.368c-0.275,0.244 -0.43,0.598 -0.43,1.054l0,0.242c0,0.166 0.135,0.3 0.301,0.3l2.54,0c0.166,0 0.301,-0.134 0.301,-0.3l-0,-0.242Zm-0.3,0l-0,0.242l-2.542,0l0,-0.242c0,-0.715 0.451,-1.122 1.277,-1.122c0.836,0 1.265,0.407 1.265,1.122Z"/>
            <path d="M122.957,150.583l-0.001,1.298c0.001,1.353 0.726,2.354 2.53,2.354c1.243,-0 1.98,-0.407 2.376,-1.056c0.154,-0.242 0.122,-0.429 -0.132,-0.55l-0.385,-0.209c-0.263,-0.143 -0.385,-0.11 -0.561,0.132c-0.231,0.363 -0.649,0.583 -1.298,0.583c-0.803,0 -1.254,-0.385 -1.254,-1.1l0,-0.407l3.322,0c0.385,0 0.495,-0.187 0.495,-0.473l0,-0.671c0,-1.265 -0.792,-2.277 -2.541,-2.277c-1.661,0 -2.551,0.847 -2.551,2.376Zm4.073,2.142c-0.279,0.43 -0.77,0.71 -1.543,0.71c-0.489,0 -0.866,-0.13 -1.126,-0.356c-0.273,-0.238 -0.429,-0.586 -0.429,-1.044l0,-0.407c0,-0.166 0.135,-0.3 0.3,-0.3l3.323,-0c0.081,-0 0.138,0.003 0.17,-0.032c0.03,-0.033 0.024,-0.084 0.024,-0.141c0,0 0,-0.671 0,-0.671c0,-0.548 -0.164,-1.043 -0.525,-1.399c-0.37,-0.366 -0.939,-0.578 -1.716,-0.578c-0.738,0 -1.31,0.175 -1.693,0.534c-0.376,0.351 -0.558,0.874 -0.558,1.542l-0,1.298c-0,0.591 0.148,1.109 0.503,1.475c0.361,0.372 0.927,0.579 1.727,0.579c1.103,-0 1.768,-0.336 2.122,-0.917c0.017,-0.027 0.034,-0.067 0.042,-0.088c-0.013,-0.009 -0.033,-0.022 -0.05,-0.03l-0.398,-0.216c-0.034,-0.018 -0.077,-0.035 -0.1,-0.044c-0.017,0.018 -0.049,0.053 -0.073,0.085Zm0.044,-2.318c-0,-0.455 -0.149,-0.808 -0.418,-1.052c-0.258,-0.232 -0.639,-0.37 -1.148,-0.37c-0.5,-0 -0.884,0.136 -1.146,0.368c-0.275,0.244 -0.43,0.598 -0.43,1.054l0,0.242c0,0.166 0.135,0.3 0.301,0.3l2.54,0c0.166,0 0.301,-0.134 0.301,-0.3l-0,-0.242Zm-0.3,0l-0,0.242l-2.542,0l0,-0.242c0,-0.715 0.451,-1.122 1.276,-1.122c0.836,0 1.266,0.407 1.266,1.122Z"/>
        </g>
    </g>
    <g id="tree_06">
        <g id="edges4" serif:id="edges">
        </g>
        <g id="nodes4" serif:id="nodes">
            <g id="BlueNode">
            </g>
            <g id="BlueNode1" serif:id="BlueNode">
            </g>
            <g id="BlueNode2" serif:id="BlueNode">
            </g>
            <g id="BlueNode3" serif:id="BlueNode">
            </g>
            <g id="BlueNode4" serif:id="BlueNode">
            </g>
            <g id="BlueNode5" serif:id="BlueNode">
            </g>
            <g id="YellowNode">
            </g>
            <g id="Node58" serif:id="Node">
            </g>
            <g id="Node59" serif:id="Node">
            </g>
            <g id="Node60" serif:id="Node">
            </g>
            <g id="Node61" serif:id="Node">
            </g>
            <g id="Node62" serif:id="Node">
            </g>
            <g id="Node63" serif:id="Node">
            </g>
            <g id="Node64" serif:id="Node">
            </g>
            <g id="Node65" serif:id="Node">
            </g>
            <g id="Node66" serif:id="Node">
            </g>
            <g id="Node67" serif:id="Node">
            </g>
            <g id="Node68" serif:id="Node">
            </g>
        </g>
    </g>
    <g id="tree_05">
        <g id="edges5" serif:id="edges">
        </g>
        <g id="nodes5" serif:id="nodes">
            <g id="BlueNode6" serif:id="BlueNode">
            </g>
            <g id="BlueNode7" serif:id="BlueNode">
            </g>
            <g id="BlueNode8" serif:id="BlueNode">
            </g>
            <g id="BlueNode9" serif:id="BlueNode">
            </g>
            <g id="BlueNode10" serif:id="BlueNode">
            </g>
            <g id="BlueNode11" serif:id="BlueNode">
            </g>
            <g id="YellowNode1" serif:id="YellowNode">
            </g>
            <g id="RedNode">
            </g>
            <g id="RedNode1" serif:id="RedNode">
            </g>
            <g id="RedNode2" serif:id="RedNode">
            </g>
            <g id="RedNode3" serif:id="RedNode">
            </g>
            <g id="GreenNode1" serif:id="GreenNode">
            </g>
            <g id="Node69" serif:id="Node">
            </g>
            <g id="Node70" serif:id="Node">
            </g>
            <g id="Node71" serif:id="Node">
            </g>
            <g id="Node72" serif:id="Node">
            </g>
            <g id="Node73" serif:id="Node">
            </g>
            <g id="Node74" serif:id="Node">
            </g>
        </g>
    </g>
    <g id="tree_04">
        <g id="edges6" serif:id="edges">
        </g>
        <g id="nodes6" serif:id="nodes">
            <g id="YellowNode2" serif:id="YellowNode">
            </g>
            <g id="YellowNode3" serif:id="YellowNode">
            </g>
            <g id="RedNode4" serif:id="RedNode">
            </g>
            <g id="GreenNode2" serif:id="GreenNode">
            </g>
            <g id="GreenNode3" serif:id="GreenNode">
            </g>
            <g id="Node75" serif:id="Node">
            </g>
            <g id="Node76" serif:id="Node">
            </g>
            <g id="Node77" serif:id="Node">
            </g>
            <g id="Node78" serif:id="Node">
            </g>
            <g id="Node79" serif:id="Node">
            </g>
            <g id="Node80" serif:id="Node">
            </g>
            <g id="Node81" serif:id="Node">
            </g>
            <g id="Node82" serif:id="Node">
            </g>
            <g id="Node83" serif:id="Node">
            </g>
            <g id="Node84" serif:id="Node">
            </g>
            <g id="Node85" serif:id="Node">
            </g>
            <g id="Node86" serif:id="Node">
            </g>
            <g id="Node87" serif:id="Node">
            </g>
        </g>
    </g>
    <g>
        <g id="edges7" serif:id="edges">
        </g>
        <g id="nodes7" serif:id="nodes">
            <g id="Node88" serif:id="Node">
            </g>
            <g id="Node89" serif:id="Node">
            </g>
            <g id="Node90" serif:id="Node">
            </g>
            <g id="Node91" serif:id="Node">
            </g>
            <g id="Node92" serif:id="Node">
            </g>
            <g id="Node93" serif:id="Node">
            </g>
            <g id="Node94" serif:id="Node">
            </g>
            <g id="Node95" serif:id="Node">
            </g>
            <g id="Node96" serif:id="Node">
            </g>
            <g id="Node97" serif:id="Node">
            </g>
            <g id="Node98" serif:id="Node">
            </g>
            <g id="Node99" serif:id="Node">
            </g>
            <g id="Node100" serif:id="Node">
            </g>
            <g id="Node101" serif:id="Node">
            </g>
            <g id="Node102" serif:id="Node">
            </g>
            <g id="Node103" serif:id="Node">
            </g>
            <g id="Node104" serif:id="Node">
            </g>
        </g>
    </g>
    <g id="tree_02">
        <g id="edges8" serif:id="edges">
        </g>
        <g id="nodes8" serif:id="nodes">
            <g id="Node105" serif:id="Node">
            </g>
            <g id="Node106" serif:id="Node">
            </g>
            <g id="Node107" serif:id="Node">
            </g>
            <g id="Node108" serif:id="Node">
            </g>
            <g id="Node109" serif:id="Node">
            </g>
            <g id="Node110" serif:id="Node">
            </g>
            <g id="Node111" serif:id="Node">
            </g>
            <g id="Node112" serif:id="Node">
            </g>
            <g id="Node113" serif:id="Node">
            </g>
            <g id="Node114" serif:id="Node">
            </g>
            <g id="Node115" serif:id="Node">
            </g>
            <g id="Node116" serif:id="Node">
            </g>
            <g id="Node117" serif:id="Node">
            </g>
            <g id="Node118" serif:id="Node">
            </g>
            <g id="Node119" serif:id="Node">
            </g>
            <g id="Node120" serif:id="Node">
            </g>
            <g id="Node121" serif:id="Node">
            </g>
            <g id="Node122" serif:id="Node">
            </g>
        </g>
    </g>
    <g id="tree_01">
        <g id="edges9" serif:id="edges">
        </g>
        <g id="nodes9" serif:id="nodes">
            <g id="Node123" serif:id="Node">
            </g>
            <g id="Node124" serif:id="Node">
            </g>
            <g id="Node125" serif:id="Node">
            </g>
            <g id="Node126" serif:id="Node">
            </g>
            <g id="Node127" serif:id="Node">
            </g>
            <g id="Node128" serif:id="Node">
            </g>
            <g id="Node129" serif:id="Node">
            </g>
            <g id="Node130" serif:id="Node">
            </g>
            <g id="Node131" serif:id="Node">
            </g>
            <g id="Node132" serif:id="Node">
            </g>
            <g id="Node133" serif:id="Node">
            </g>
            <g id="Node134" serif:id="Node">
            </g>
            <g id="Node135" serif:id="Node">
            </g>
            <g id="Node136" serif:id="Node">
            </g>
            <g id="Node137" serif:id="Node">
            </g>
            <g id="Node138" serif:id="Node">
            </g>
            <g id="Node139" serif:id="Node">
            </g>
            <g id="Node140" serif:id="Node">
            </g>
        </g>
    </g>
    <g id="graph_02">
        <g id="edges10" serif:id="edges">
        </g>
        <g id="nodes10" serif:id="nodes">
            <g id="Node141" serif:id="Node">
            </g>
            <g id="Node142" serif:id="Node">
            </g>
            <g id="Node143" serif:id="Node">
            </g>
            <g id="Node144" serif:id="Node">
            </g>
            <g id="Node145" serif:id="Node">
            </g>
            <g id="Node146" serif:id="Node">
            </g>
        </g>
    </g>
    <g id="graph_01">
        <g id="edges11" serif:id="edges">
        </g>
        <g id="nodes11" serif:id="nodes">
            <g id="Node147" serif:id="Node">
            </g>
            <g id="Node148" serif:id="Node">
            </g>
            <g id="Node149" serif:id="Node">
            </g>
            <g id="Node150" serif:id="Node">
            </g>
            <g id="Node151" serif:id="Node">
            </g>
            <g id="Node152" serif:id="Node">
            </g>
        </g>
    </g>
    <g id="traversal_01">
        <g id="edges12" serif:id="edges">
        </g>
        <g id="Node153" serif:id="Node">
        </g>
        <g id="Node154" serif:id="Node">
        </g>
        <g id="Node155" serif:id="Node">
        </g>
        <g id="Node156" serif:id="Node">
        </g>
        <g id="Node157" serif:id="Node">
        </g>
        <g id="Node158" serif:id="Node">
        </g>
        <g id="Node159" serif:id="Node">
        </g>
        <g id="Node160" serif:id="Node">
        </g>
        <g id="Node161" serif:id="Node">
        </g>
        <g id="Node162" serif:id="Node">
        </g>
        <g id="Node163" serif:id="Node">
        </g>
        <g id="Node164" serif:id="Node">
        </g>
        <g id="Node165" serif:id="Node">
        </g>
        <g id="Node166" serif:id="Node">
        </g>
        <g id="Node167" serif:id="Node">
        </g>
        <g id="Node168" serif:id="Node">
        </g>
        <g id="Node169" serif:id="Node">
        </g>
        <g id="Node170" serif:id="Node">
        </g>
        <g id="BlueNode12" serif:id="BlueNode">
        </g>
        <g id="BlueNode13" serif:id="BlueNode">
        </g>
        <g id="BlueNode14" serif:id="BlueNode">
        </g>
        <g id="BlueNode15" serif:id="BlueNode">
        </g>
        <g id="BlueNode16" serif:id="BlueNode">
        </g>
        <g id="BlueNode17" serif:id="BlueNode">
        </g>
        <g id="BlueNode18" serif:id="BlueNode">
        </g>
        <g id="BlueNode19" serif:id="BlueNode">
        </g>
        <g id="BlueNode20" serif:id="BlueNode">
        </g>
        <g id="BlueNode21" serif:id="BlueNode">
        </g>
        <g id="BlueNode22" serif:id="BlueNode">
        </g>
        <g id="BlueNode23" serif:id="BlueNode">
        </g>
        <g id="BlueNode24" serif:id="BlueNode">
        </g>
        <g id="BlueNode25" serif:id="BlueNode">
        </g>
        <g id="BlueNode26" serif:id="BlueNode">
        </g>
        <g id="BlueNode27" serif:id="BlueNode">
        </g>
        <g id="BlueNode28" serif:id="BlueNode">
        </g>
        <g id="BlueNode29" serif:id="BlueNode">
        </g>
    </g>
    <g id="traversal_02">
        <g id="edges13" serif:id="edges">
        </g>
        <g id="Node171" serif:id="Node">
        </g>
        <g id="Node172" serif:id="Node">
        </g>
        <g id="Node173" serif:id="Node">
        </g>
        <g id="Node174" serif:id="Node">
        </g>
        <g id="Node175" serif:id="Node">
        </g>
        <g id="Node176" serif:id="Node">
        </g>
        <g id="Node177" serif:id="Node">
        </g>
        <g id="Node178" serif:id="Node">
        </g>
        <g id="Node179" serif:id="Node">
        </g>
        <g id="Node180" serif:id="Node">
        </g>
        <g id="Node181" serif:id="Node">
        </g>
        <g id="Node182" serif:id="Node">
        </g>
        <g id="Node183" serif:id="Node">
        </g>
        <g id="Node184" serif:id="Node">
        </g>
        <g id="Node185" serif:id="Node">
        </g>
        <g id="Node186" serif:id="Node">
        </g>
        <g id="Node187" serif:id="Node">
        </g>
        <g id="Node188" serif:id="Node">
        </g>
        <g id="BlueNode30" serif:id="BlueNode">
        </g>
        <g id="BlueNode31" serif:id="BlueNode">
        </g>
        <g id="BlueNode32" serif:id="BlueNode">
        </g>
        <g id="BlueNode33" serif:id="BlueNode">
        </g>
        <g id="BlueNode34" serif:id="BlueNode">
        </g>
        <g id="BlueNode35" serif:id="BlueNode">
        </g>
        <g id="BlueNode36" serif:id="BlueNode">
        </g>
        <g id="BlueNode37" serif:id="BlueNode">
        </g>
        <g id="BlueNode38" serif:id="BlueNode">
        </g>
        <g id="BlueNode39" serif:id="BlueNode">
        </g>
    </g>
    <g id="traversal_05">
        <g id="edges14" serif:id="edges">
        </g>
        <g id="Node189" serif:id="Node">
        </g>
        <g id="Node190" serif:id="Node">
        </g>
        <g id="Node191" serif:id="Node">
        </g>
        <g id="Node192" serif:id="Node">
        </g>
        <g id="Node193" serif:id="Node">
        </g>
        <g id="Node194" serif:id="Node">
        </g>
        <g id="Node195" serif:id="Node">
        </g>
        <g id="Node196" serif:id="Node">
        </g>
        <g id="Node197" serif:id="Node">
        </g>
        <g id="Node198" serif:id="Node">
        </g>
        <g id="Node199" serif:id="Node">
        </g>
        <g id="Node200" serif:id="Node">
        </g>
        <g id="Node201" serif:id="Node">
        </g>
        <g id="Node202" serif:id="Node">
        </g>
        <g id="Node203" serif:id="Node">
        </g>
        <g id="Node204" serif:id="Node">
        </g>
        <g id="Node205" serif:id="Node">
        </g>
        <g id="Node206" serif:id="Node">
        </g>
        <g id="BlueNode40" serif:id="BlueNode">
        </g>
    </g>
    <g id="traversal_06">
        <g id="edges15" serif:id="edges">
        </g>
        <g id="Node207" serif:id="Node">
        </g>
        <g id="Node208" serif:id="Node">
        </g>
        <g id="Node209" serif:id="Node">
        </g>
        <g id="Node210" serif:id="Node">
        </g>
        <g id="Node211" serif:id="Node">
        </g>
        <g id="Node212" serif:id="Node">
        </g>
        <g id="Node213" serif:id="Node">
        </g>
        <g id="Node214" serif:id="Node">
        </g>
        <g id="Node215" serif:id="Node">
        </g>
        <g id="Node216" serif:id="Node">
        </g>
        <g id="Node217" serif:id="Node">
        </g>
        <g id="Node218" serif:id="Node">
        </g>
        <g id="Node219" serif:id="Node">
        </g>
        <g id="Node220" serif:id="Node">
        </g>
        <g id="Node221" serif:id="Node">
        </g>
        <g id="Node222" serif:id="Node">
        </g>
        <g id="Node223" serif:id="Node">
        </g>
        <g id="Node224" serif:id="Node">
        </g>
        <g id="BlueNode41" serif:id="BlueNode">
        </g>
        <g id="BlueNode42" serif:id="BlueNode">
        </g>
        <g id="BlueNode43" serif:id="BlueNode">
        </g>
        <g id="BlueNode44" serif:id="BlueNode">
        </g>
        <g id="BlueNode45" serif:id="BlueNode">
        </g>
        <g id="BlueNode46" serif:id="BlueNode">
        </g>
    </g>
    <g id="traversal_03">
        <g id="edges16" serif:id="edges">
        </g>
        <g id="Node225" serif:id="Node">
        </g>
        <g id="Node226" serif:id="Node">
        </g>
        <g id="Node227" serif:id="Node">
        </g>
        <g id="Node228" serif:id="Node">
        </g>
        <g id="Node229" serif:id="Node">
        </g>
        <g id="Node230" serif:id="Node">
        </g>
        <g id="Node231" serif:id="Node">
        </g>
        <g id="Node232" serif:id="Node">
        </g>
        <g id="Node233" serif:id="Node">
        </g>
        <g id="Node234" serif:id="Node">
        </g>
        <g id="Node235" serif:id="Node">
        </g>
        <g id="Node236" serif:id="Node">
        </g>
        <g id="Node237" serif:id="Node">
        </g>
        <g id="Node238" serif:id="Node">
        </g>
        <g id="Node239" serif:id="Node">
        </g>
        <g id="Node240" serif:id="Node">
        </g>
        <g id="Node241" serif:id="Node">
        </g>
        <g id="Node242" serif:id="Node">
        </g>
        <g id="BlueNode47" serif:id="BlueNode">
        </g>
        <g id="BlueNode48" serif:id="BlueNode">
        </g>
        <g id="BlueNode49" serif:id="BlueNode">
        </g>
    </g>
    <g id="traversal_04">
        <g id="edges17" serif:id="edges">
        </g>
        <g id="Node243" serif:id="Node">
        </g>
        <g id="Node244" serif:id="Node">
        </g>
        <g id="Node245" serif:id="Node">
        </g>
        <g id="Node246" serif:id="Node">
        </g>
        <g id="Node247" serif:id="Node">
        </g>
        <g id="Node248" serif:id="Node">
        </g>
        <g id="Node249" serif:id="Node">
        </g>
        <g id="Node250" serif:id="Node">
        </g>
        <g id="Node251" serif:id="Node">
        </g>
        <g id="Node252" serif:id="Node">
        </g>
        <g id="Node253" serif:id="Node">
        </g>
        <g id="Node254" serif:id="Node">
        </g>
        <g id="Node255" serif:id="Node">
        </g>
        <g id="Node256" serif:id="Node">
        </g>
        <g id="Node257" serif:id="Node">
        </g>
        <g id="Node258" serif:id="Node">
        </g>
        <g id="Node259" serif:id="Node">
        </g>
        <g id="Node260" serif:id="Node">
        </g>
        <g id="BlueNode50" serif:id="BlueNode">
        </g>
    </g>
    <g id="traversal_07">
        <g id="edges18" serif:id="edges">
        </g>
        <g id="Node261" serif:id="Node">
        </g>
        <g id="Node262" serif:id="Node">
        </g>
        <g id="Node263" serif:id="Node">
        </g>
        <g id="Node264" serif:id="Node">
        </g>
        <g id="Node265" serif:id="Node">
        </g>
        <g id="Node266" serif:id="Node">
        </g>
        <g id="Node267" serif:id="Node">
        </g>
        <g id="Node268" serif:id="Node">
        </g>
        <g id="Node269" serif:id="Node">
        </g>
        <g id="Node270" serif:id="Node">
        </g>
        <g id="Node271" serif:id="Node">
        </g>
        <g id="Node272" serif:id="Node">
        </g>
        <g id="Node273" serif:id="Node">
        </g>
        <g id="Node274" serif:id="Node">
        </g>
        <g id="Node275" serif:id="Node">
        </g>
        <g id="Node276" serif:id="Node">
        </g>
        <g id="Node277" serif:id="Node">
        </g>
        <g id="Node278" serif:id="Node">
        </g>
        <g id="BlueNode51" serif:id="BlueNode">
        </g>
        <g id="BlueNode52" serif:id="BlueNode">
        </g>
        <g id="BlueNode53" serif:id="BlueNode">
        </g>
        <g id="BlueNode54" serif:id="BlueNode">
        </g>
    </g>
    <g id="traversal_08">
        <g id="edges19" serif:id="edges">
        </g>
        <g id="Node279" serif:id="Node">
        </g>
        <g id="Node280" serif:id="Node">
        </g>
        <g id="Node281" serif:id="Node">
        </g>
        <g id="Node282" serif:id="Node">
        </g>
        <g id="Node283" serif:id="Node">
        </g>
        <g id="Node284" serif:id="Node">
        </g>
        <g id="Node285" serif:id="Node">
        </g>
        <g id="Node286" serif:id="Node">
        </g>
        <g id="Node287" serif:id="Node">
        </g>
        <g id="Node288" serif:id="Node">
        </g>
        <g id="Node289" serif:id="Node">
        </g>
        <g id="Node290" serif:id="Node">
        </g>
        <g id="Node291" serif:id="Node">
        </g>
        <g id="Node292" serif:id="Node">
        </g>
        <g id="Node293" serif:id="Node">
        </g>
        <g id="Node294" serif:id="Node">
        </g>
        <g id="Node295" serif:id="Node">
        </g>
        <g id="Node296" serif:id="Node">
        </g>
        <g id="BlueNode55" serif:id="BlueNode">
        </g>
    </g>
    <g id="traversal_09">
        <g id="edges20" serif:id="edges">
        </g>
        <g id="Node297" serif:id="Node">
        </g>
        <g id="Node298" serif:id="Node">
        </g>
        <g id="Node299" serif:id="Node">
        </g>
        <g id="Node300" serif:id="Node">
        </g>
        <g id="Node301" serif:id="Node">
        </g>
        <g id="Node302" serif:id="Node">
        </g>
        <g id="Node303" serif:id="Node">
        </g>
        <g id="Node304" serif:id="Node">
        </g>
        <g id="Node305" serif:id="Node">
        </g>
        <g id="Node306" serif:id="Node">
        </g>
        <g id="Node307" serif:id="Node">
        </g>
        <g id="Node308" serif:id="Node">
        </g>
        <g id="Node309" serif:id="Node">
        </g>
        <g id="Node310" serif:id="Node">
        </g>
        <g id="Node311" serif:id="Node">
        </g>
        <g id="Node312" serif:id="Node">
        </g>
        <g id="Node313" serif:id="Node">
        </g>
        <g id="Node314" serif:id="Node">
        </g>
        <g id="BlueNode56" serif:id="BlueNode">
        </g>
        <g id="BlueNode57" serif:id="BlueNode">
        </g>
    </g>
    <g id="traversal_10">
        <g id="edges21" serif:id="edges">
        </g>
        <g id="Node315" serif:id="Node">
        </g>
        <g id="Node316" serif:id="Node">
        </g>
        <g id="Node317" serif:id="Node">
        </g>
        <g id="Node318" serif:id="Node">
        </g>
        <g id="Node319" serif:id="Node">
        </g>
        <g id="Node320" serif:id="Node">
        </g>
        <g id="Node321" serif:id="Node">
        </g>
        <g id="Node322" serif:id="Node">
        </g>
        <g id="Node323" serif:id="Node">
        </g>
        <g id="Node324" serif:id="Node">
        </g>
        <g id="Node325" serif:id="Node">
        </g>
        <g id="Node326" serif:id="Node">
        </g>
        <g id="Node327" serif:id="Node">
        </g>
        <g id="Node328" serif:id="Node">
        </g>
        <g id="Node329" serif:id="Node">
        </g>
        <g id="Node330" serif:id="Node">
        </g>
        <g id="Node331" serif:id="Node">
        </g>
        <g id="Node332" serif:id="Node">
        </g>
        <g id="BlueNode58" serif:id="BlueNode">
        </g>
        <g id="BlueNode59" serif:id="BlueNode">
        </g>
        <g id="BlueNode60" serif:id="BlueNode">
        </g>
        <g id="BlueNode61" serif:id="BlueNode">
        </g>
    </g>
    <g id="traversal_11">
        <g id="edges22" serif:id="edges">
        </g>
        <g id="Node333" serif:id="Node">
        </g>
        <g id="Node334" serif:id="Node">
        </g>
        <g id="Node335" serif:id="Node">
        </g>
        <g id="Node336" serif:id="Node">
        </g>
        <g id="Node337" serif:id="Node">
        </g>
        <g id="Node338" serif:id="Node">
        </g>
        <g id="Node339" serif:id="Node">
        </g>
        <g id="Node340" serif:id="Node">
        </g>
        <g id="Node341" serif:id="Node">
        </g>
        <g id="Node342" serif:id="Node">
        </g>
        <g id="Node343" serif:id="Node">
        </g>
        <g id="Node344" serif:id="Node">
        </g>
        <g id="Node345" serif:id="Node">
        </g>
        <g id="Node346" serif:id="Node">
        </g>
        <g id="Node347" serif:id="Node">
        </g>
        <g id="Node348" serif:id="Node">
        </g>
        <g id="BlueNode62" serif:id="BlueNode">
        </g>
        <g id="BlueNode63" serif:id="BlueNode">
        </g>
        <g id="BlueNode64" serif:id="BlueNode">
        </g>
        <g id="BlueNode65" serif:id="BlueNode">
        </g>
        <g id="BlueNode66" serif:id="BlueNode">
        </g>
        <g id="BlueNode67" serif:id="BlueNode">
        </g>
        <g id="BlueNode68" serif:id="BlueNode">
        </g>
        <g id="Node349" serif:id="Node">
        </g>
        <g id="Node350" serif:id="Node">
        </g>
    </g>
    <g id="traversal_12">
        <g id="edges23" serif:id="edges">
        </g>
        <g id="Node351" serif:id="Node">
        </g>
        <g id="Node352" serif:id="Node">
        </g>
        <g id="Node353" serif:id="Node">
        </g>
        <g id="Node354" serif:id="Node">
        </g>
        <g id="Node355" serif:id="Node">
        </g>
        <g id="Node356" serif:id="Node">
        </g>
        <g id="Node357" serif:id="Node">
        </g>
        <g id="Node358" serif:id="Node">
        </g>
        <g id="Node359" serif:id="Node">
        </g>
        <g id="Node360" serif:id="Node">
        </g>
        <g id="Node361" serif:id="Node">
        </g>
        <g id="Node362" serif:id="Node">
        </g>
        <g id="Node363" serif:id="Node">
        </g>
        <g id="Node364" serif:id="Node">
        </g>
        <g id="Node365" serif:id="Node">
        </g>
        <g id="Node366" serif:id="Node">
        </g>
        <g id="Node367" serif:id="Node">
        </g>
        <g id="Node368" serif:id="Node">
        </g>
        <g id="BlueNode69" serif:id="BlueNode">
        </g>
        <g id="BlueNode70" serif:id="BlueNode">
        </g>
    </g>
    <g id="traversal_13">
        <g id="edges24" serif:id="edges">
        </g>
        <g id="Node369" serif:id="Node">
        </g>
        <g id="Node370" serif:id="Node">
        </g>
        <g id="Node371" serif:id="Node">
        </g>
        <g id="Node372" serif:id="Node">
        </g>
        <g id="Node373" serif:id="Node">
        </g>
        <g id="Node374" serif:id="Node">
        </g>
        <g id="Node375" serif:id="Node">
        </g>
        <g id="Node376" serif:id="Node">
        </g>
        <g id="Node377" serif:id="Node">
        </g>
        <g id="Node378" serif:id="Node">
        </g>
        <g id="Node379" serif:id="Node">
        </g>
        <g id="Node380" serif:id="Node">
        </g>
        <g id="Node381" serif:id="Node">
        </g>
        <g id="Node382" serif:id="Node">
        </g>
        <g id="Node383" serif:id="Node">
        </g>
        <g id="Node384" serif:id="Node">
        </g>
        <g id="Node385" serif:id="Node">
        </g>
        <g id="Node386" serif:id="Node">
        </g>
        <g id="BlueNode71" serif:id="BlueNode">
        </g>
        <g id="BlueNode72" serif:id="BlueNode">
        </g>
    </g>
</svg>
